<svg width="640" height="560" viewBox="0 0 640 560" fill="none" xmlns="http://www.w3.org/2000/svg">
<path d="M322.195 170.984C322.195 170.887 322.579 170.851 323.153 170.573C323.868 170.217 324.482 169.598 324.915 168.795C325.321 167.97 325.515 167.007 325.471 166.038C325.471 165.288 325.308 164.828 325.384 164.828C325.461 164.828 325.691 165.215 325.825 166.038C325.99 167.13 325.815 168.261 325.337 169.196C324.859 170.13 324.115 170.797 323.258 171.057C322.598 171.19 322.186 171.057 322.195 170.984Z" fill="#E0E0E0"/>
<path d="M325.997 176.316C325.93 176.316 325.892 175.917 325.729 175.336C325.528 174.599 325.17 173.947 324.695 173.45C324.202 172.968 323.617 172.66 323 172.555C322.521 172.482 322.205 172.555 322.196 172.434C322.186 172.313 322.473 172.143 323.019 172.119C323.739 172.09 324.443 172.387 325.003 172.958C325.564 173.528 325.944 174.333 326.074 175.227C326.16 175.905 326.064 176.328 325.997 176.316Z" fill="#E0E0E0"/>
<path d="M330.2 169.872C330.2 169.945 329.855 170.102 329.242 169.993C328.472 169.823 327.785 169.281 327.327 168.482C326.876 167.673 326.688 166.678 326.8 165.7C326.906 164.962 327.126 164.587 327.183 164.623C327.241 164.66 327.183 165.083 327.183 165.736C327.161 166.595 327.367 167.439 327.768 168.133C328.168 168.828 328.741 169.333 329.395 169.57C329.845 169.764 330.19 169.776 330.2 169.872Z" fill="#E0E0E0"/>
<path d="M328.354 176.321C328.354 176.321 328.019 176.237 327.712 175.692C327.526 175.341 327.403 174.942 327.353 174.524C327.303 174.106 327.328 173.678 327.425 173.274C327.538 172.866 327.721 172.495 327.961 172.187C328.201 171.88 328.492 171.644 328.814 171.496C329.302 171.29 329.628 171.399 329.628 171.496C329.628 171.593 329.34 171.653 328.957 171.931C328.45 172.253 328.064 172.815 327.885 173.495C327.705 174.176 327.747 174.918 328 175.559C328.201 175.983 328.44 176.249 328.354 176.321Z" fill="#E0E0E0"/>
<path d="M285.211 138.008C285.211 137.911 285.604 137.875 286.169 137.596C286.884 137.246 287.496 136.625 287.921 135.818C288.324 134.992 288.521 134.031 288.486 133.061C288.486 132.311 288.323 131.852 288.39 131.852C288.457 131.852 288.706 132.239 288.831 133.061C288.991 134.149 288.817 135.274 288.342 136.206C287.863 137.133 287.124 137.798 286.274 138.068C285.613 138.213 285.211 138.129 285.211 138.008Z" fill="#E0E0E0"/>
<path d="M289.023 143.351C288.947 143.351 288.918 142.94 288.755 142.371C288.547 141.632 288.187 140.977 287.711 140.472C287.225 139.987 286.641 139.682 286.026 139.59C285.547 139.505 285.231 139.59 285.212 139.457C285.193 139.323 285.499 139.178 286.035 139.142C286.756 139.118 287.461 139.413 288.027 139.977C288.584 140.556 288.961 141.366 289.09 142.262C289.176 142.964 289.081 143.351 289.023 143.351Z" fill="#E0E0E0"/>
<path d="M293.218 136.911C293.218 136.984 292.874 137.141 292.261 137.02C291.488 136.86 290.797 136.319 290.339 135.517C289.882 134.714 289.694 133.715 289.819 132.739C289.915 132.001 290.144 131.626 290.192 131.663C290.24 131.699 290.192 132.11 290.192 132.775C290.184 133.638 290.388 134.484 290.776 135.194C291.176 135.874 291.736 136.378 292.376 136.633C292.874 136.791 293.218 136.803 293.218 136.911Z" fill="#E0E0E0"/>
<path d="M291.38 143.354C291.38 143.414 291.036 143.257 290.739 142.725C290.544 142.37 290.417 141.963 290.367 141.535C290.318 141.108 290.347 140.672 290.452 140.261C290.558 139.85 290.737 139.476 290.976 139.167C291.215 138.858 291.508 138.623 291.831 138.48C292.328 138.274 292.645 138.371 292.645 138.48C292.645 138.589 292.357 138.637 291.974 138.903C291.467 139.225 291.081 139.787 290.902 140.468C290.722 141.148 290.764 141.89 291.017 142.532C291.218 142.967 291.428 143.269 291.38 143.354Z" fill="#E0E0E0"/>
<path d="M292.508 202.715L292.967 203.67C293.477 204.748 294.221 205.618 295.112 206.174L295.898 206.67L295.141 207.238C294.295 207.888 293.611 208.827 293.168 209.947L292.776 210.951L292.326 209.996C291.811 208.926 291.067 208.063 290.181 207.504L289.386 207.008L290.142 206.428C290.993 205.784 291.678 204.843 292.115 203.719L292.508 202.715Z" fill="#F5F5F5"/>
<path d="M337.796 147.801L338.246 148.756C338.758 149.828 339.502 150.692 340.391 151.248L341.186 151.744L340.429 152.324C339.578 152.968 338.893 153.909 338.456 155.033L338.064 156.037L337.604 155.069C337.092 153.998 336.347 153.133 335.459 152.578L334.664 152.082L335.421 151.514C336.27 150.864 336.957 149.925 337.403 148.805L337.796 147.801Z" fill="#F5F5F5"/>
<path d="M302.583 118.07L303.043 119.026C303.549 120.103 304.295 120.969 305.188 121.517L305.982 122.013L305.226 122.594C304.372 123.237 303.684 124.177 303.244 125.303L302.851 126.307L302.401 125.351C301.889 124.276 301.145 123.407 300.256 122.848L299.461 122.352L300.217 121.783C301.066 121.136 301.751 120.196 302.19 119.074L302.583 118.07Z" fill="#F5F5F5"/>
<path d="M553.829 141.246C554.269 137.183 549.72 133.832 546.302 133.482C544.674 133.312 542.979 133.627 541.437 132.95C538.085 131.474 536.754 126.02 533.479 124.278C531.037 122.972 528.231 124.133 525.818 125.633C523.404 127.132 521.106 129.031 518.463 129.261C516.165 129.442 513.675 128.366 511.654 129.793C510.151 130.845 509.365 133.022 507.986 134.316C506.549 135.434 504.886 136.005 503.198 135.961C501.515 135.905 499.839 136.25 498.257 136.977C496.734 137.86 495.47 139.904 495.786 141.984L553.829 141.246Z" fill="#EBEBEB"/>
<path d="M498.9 39.1404C499.542 33.1779 492.886 28.2555 487.887 27.7717C485.503 27.5299 483.032 27.9894 480.772 26.9977C475.878 24.8449 473.915 16.8506 469.146 14.3108C465.574 12.412 461.485 14.1052 457.999 16.3063C454.513 18.5075 451.123 21.2771 447.254 21.5794C443.883 21.8576 440.235 20.2854 437.295 22.3535C435.102 23.9016 433.953 27.0945 431.932 28.9812C429.912 30.8679 427.374 31.2065 424.922 31.4C422.471 31.5935 419.923 31.6056 417.692 32.8876C415.461 34.1696 413.603 37.169 414.072 40.2168L498.9 39.1404Z" fill="#EBEBEB"/>
<path d="M185.33 102H88.8281V488.244H185.33V102Z" fill="#F5F5F5"/>
<path d="M185.319 102H137.073V487.18H185.319V102Z" fill="#EBEBEB"/>
<path d="M133.912 64.0742H99.8389V101.99H133.912V64.0742Z" fill="#F5F5F5"/>
<path d="M133.913 64.0742H125.792V101.99H133.913V64.0742Z" fill="#EBEBEB"/>
<path d="M80.7842 101.998V99.7852H188.145V101.998" fill="#E0E0E0"/>
<path d="M116.044 118.535H107.875V140.293H116.044V118.535Z" fill="#FAFAFA"/>
<path d="M137.074 148.814C137.074 149.043 126.272 149.237 112.951 149.237C99.6303 149.237 88.8281 149.043 88.8281 148.814C88.8281 148.584 99.6207 148.402 112.951 148.402C126.281 148.402 137.074 148.596 137.074 148.814Z" fill="#E0E0E0"/>
<path d="M164.711 118.535H156.542V140.293H164.711V118.535Z" fill="#E0E0E0"/>
<path d="M185.749 148.814C185.749 149.043 174.947 149.237 161.626 149.237C148.305 149.237 137.503 149.043 137.503 148.814C137.503 148.584 148.305 148.402 161.626 148.402C174.947 148.402 185.749 148.596 185.749 148.814Z" fill="#E0E0E0"/>
<path d="M164.711 161.723H156.542V183.48H164.711V161.723Z" fill="#E0E0E0"/>
<path d="M185.749 192.009C185.749 192.239 174.947 192.432 161.626 192.432C148.305 192.432 137.503 192.239 137.503 192.009C137.503 191.779 148.305 191.598 161.626 191.598C174.947 191.598 185.749 191.779 185.749 192.009Z" fill="#E0E0E0"/>
<path d="M164.711 206.211H156.542V227.969H164.711V206.211Z" fill="#E0E0E0"/>
<path d="M185.749 236.498C185.749 236.727 174.947 236.909 161.626 236.909C148.305 236.909 137.503 236.727 137.503 236.498C137.503 236.268 148.305 236.074 161.626 236.074C174.947 236.074 185.749 236.268 185.749 236.498Z" fill="#E0E0E0"/>
<path d="M164.711 250.699H156.542V272.457H164.711V250.699Z" fill="#E0E0E0"/>
<path d="M185.749 280.982C185.749 281.211 174.947 281.405 161.626 281.405C148.305 281.405 137.503 281.211 137.503 280.982C137.503 280.752 148.305 280.57 161.626 280.57C174.947 280.57 185.749 280.752 185.749 280.982Z" fill="#E0E0E0"/>
<path d="M164.711 293.906H156.542V315.664H164.711V293.906Z" fill="#E0E0E0"/>
<path d="M185.749 324.212C185.749 324.442 174.947 324.624 161.626 324.624C148.305 324.624 137.503 324.442 137.503 324.212C137.503 323.983 148.305 323.789 161.626 323.789C174.947 323.789 185.749 323.983 185.749 324.212Z" fill="#E0E0E0"/>
<path d="M164.711 337.301H156.542V359.058H164.711V337.301Z" fill="#E0E0E0"/>
<path d="M164.711 381.27H156.542V403.027H164.711V381.27Z" fill="#E0E0E0"/>
<path d="M185.749 367.595C185.749 367.825 174.947 368.018 161.626 368.018C148.305 368.018 137.503 367.825 137.503 367.595C137.503 367.365 148.305 367.184 161.626 367.184C174.947 367.184 185.749 367.365 185.749 367.595Z" fill="#E0E0E0"/>
<path d="M116.044 162.379H107.875V184.137H116.044V162.379Z" fill="#FAFAFA"/>
<path d="M137.074 192.665C137.074 192.895 126.272 193.077 112.951 193.077C99.6303 193.077 88.8281 192.895 88.8281 192.665C88.8281 192.436 99.6207 192.242 112.951 192.242C126.281 192.242 137.074 192.436 137.074 192.665Z" fill="#E0E0E0"/>
<path d="M116.044 206.227H107.875V227.984H116.044V206.227Z" fill="#FAFAFA"/>
<path d="M137.074 236.509C137.074 236.739 126.272 236.92 112.951 236.92C99.6303 236.92 88.8281 236.739 88.8281 236.509C88.8281 236.279 99.6207 236.086 112.97 236.086C126.32 236.086 137.074 236.279 137.074 236.509Z" fill="#E0E0E0"/>
<path d="M116.044 250.07H107.875V271.828H116.044V250.07Z" fill="#FAFAFA"/>
<path d="M137.074 280.353C137.074 280.582 126.272 280.776 112.951 280.776C99.6303 280.776 88.8281 280.582 88.8281 280.353C88.8281 280.123 99.6207 279.941 112.951 279.941C126.281 279.941 137.074 280.123 137.074 280.353Z" fill="#E0E0E0"/>
<path d="M116.044 293.906H107.875V315.664H116.044V293.906Z" fill="#FAFAFA"/>
<path d="M137.074 324.212C137.074 324.442 126.272 324.624 112.951 324.624C99.6303 324.624 88.8281 324.442 88.8281 324.212C88.8281 323.983 99.6207 323.789 112.951 323.789C126.281 323.789 137.074 323.983 137.074 324.212Z" fill="#E0E0E0"/>
<path d="M116.044 337.766H107.875V359.523H116.044V337.766Z" fill="#FAFAFA"/>
<path d="M137.074 368.044C137.074 368.274 126.272 368.455 112.951 368.455C99.6303 368.455 88.8281 368.274 88.8281 368.044C88.8281 367.814 99.6207 367.633 112.951 367.633C126.281 367.633 137.074 367.814 137.074 368.044Z" fill="#E0E0E0"/>
<path d="M116.044 381.605H107.875V403.363H116.044V381.605Z" fill="#FAFAFA"/>
<path d="M310.207 325.324H169.328V559.99H310.207V325.324Z" fill="#EBEBEB"/>
<path d="M310.214 325.324H244.156V559.99H310.214V325.324Z" fill="#E0E0E0"/>
<path d="M211.54 357.094H198.87V395.965H211.54V357.094Z" fill="#F5F5F5"/>
<path d="M211.54 509.211H198.87V548.082H211.54V509.211Z" fill="#F5F5F5"/>
<path d="M244.166 411.212C244.166 411.647 227.417 412.01 206.751 412.01C186.085 412.01 169.336 411.647 169.336 411.212C169.336 410.777 186.085 410.426 206.751 410.426C227.417 410.426 244.166 410.777 244.166 411.212Z" fill="#F5F5F5"/>
<path d="M211.54 433.734H198.87V472.606H211.54V433.734Z" fill="#F5F5F5"/>
<path d="M244.166 487.853C244.166 488.288 227.417 488.639 206.751 488.639C186.085 488.639 169.336 488.288 169.336 487.853C169.336 487.418 186.085 487.055 206.751 487.055C227.417 487.055 244.166 487.418 244.166 487.853Z" fill="#F5F5F5"/>
<path d="M270.857 357.094H258.188V395.965H270.857V357.094Z" fill="#F5F5F5"/>
<path d="M298.334 357.094H285.664V395.965H298.334V357.094Z" fill="#F5F5F5"/>
<path d="M270.857 430.844H258.188V469.715H270.857V430.844Z" fill="#F5F5F5"/>
<path d="M298.334 430.844H285.664V469.715H298.334V430.844Z" fill="#F5F5F5"/>
<path d="M270.857 504.59H258.188V543.461H270.857V504.59Z" fill="#F5F5F5"/>
<path d="M298.334 504.59H285.664V543.461H298.334V504.59Z" fill="#F5F5F5"/>
<path d="M320.807 317.156H158.745V325.622H320.807V317.156Z" fill="#E0E0E0"/>
<path d="M311.203 326.416C311.203 326.864 279.716 327.214 240.884 327.214C202.051 327.214 170.555 326.864 170.555 326.416C170.555 325.969 202.032 325.594 240.874 325.594C279.716 325.594 311.203 325.981 311.203 326.416Z" fill="#EBEBEB"/>
<path d="M170.621 560.001H28.6225L28 276.57H170.009L170.621 560.001Z" fill="#EBEBEB"/>
<path d="M170.007 276.57H99.0078V560.001H170.007V276.57Z" fill="#E0E0E0"/>
<path d="M94.3638 220.762H44.2217V276.565H94.3638V220.762Z" fill="#EBEBEB"/>
<path d="M94.3654 220.762H82.4141V276.565H94.3654V220.762Z" fill="#E0E0E0"/>
<path d="M174.163 273.297H16.1719V276.55H174.163V273.297Z" fill="#E0E0E0"/>
<path d="M68.0496 300.902H56.0312V332.916H68.0496V300.902Z" fill="white"/>
<path d="M99.0073 345.464C99.0073 345.803 83.1105 346.081 63.5076 346.081C43.9046 346.081 28.0078 345.803 28.0078 345.464C28.0078 345.126 43.8951 344.848 63.5076 344.848C83.12 344.848 99.0073 345.126 99.0073 345.464Z" fill="#E0E0E0"/>
<path d="M139.67 300.902H127.651V332.916H139.67V300.902Z" fill="#F5F5F5"/>
<path d="M170.62 345.464C170.62 345.803 154.723 346.081 135.12 346.081C115.517 346.081 99.6201 345.803 99.6201 345.464C99.6201 345.126 115.517 344.848 135.12 344.848C154.723 344.848 170.62 345.126 170.62 345.464Z" fill="#EBEBEB"/>
<path d="M139.67 364.449H127.651V396.463H139.67V364.449Z" fill="#F5F5F5"/>
<path d="M170.62 409.039C170.62 409.365 154.723 409.643 135.12 409.643C115.517 409.643 99.6201 409.365 99.6201 409.039C99.6201 408.712 115.517 408.422 135.12 408.422C154.723 408.422 170.62 408.688 170.62 409.039Z" fill="#EBEBEB"/>
<path d="M139.67 429.914H127.651V461.928H139.67V429.914Z" fill="#F5F5F5"/>
<path d="M170.62 474.492C170.62 474.818 154.723 475.097 135.12 475.097C115.517 475.097 99.6201 474.818 99.6201 474.492C99.6201 474.165 115.517 473.875 135.12 473.875C154.723 473.875 170.62 474.153 170.62 474.492Z" fill="#EBEBEB"/>
<path d="M139.67 495.375H127.651V527.389H139.67V495.375Z" fill="#F5F5F5"/>
<path d="M170.62 539.961C170.62 540.299 154.723 540.565 135.12 540.565C115.517 540.565 99.6201 540.299 99.6201 539.961C99.6201 539.622 115.517 539.344 135.12 539.344C154.723 539.344 170.62 539.658 170.62 539.961Z" fill="#EBEBEB"/>
<path d="M68.0496 365.41H56.0312V397.424H68.0496V365.41Z" fill="white"/>
<path d="M99.0073 409.996C99.0073 410.334 83.1105 410.6 63.5076 410.6C43.9046 410.6 28.0078 410.334 28.0078 409.996C28.0078 409.657 43.8951 409.379 63.5076 409.379C83.12 409.379 99.0073 409.657 99.0073 409.996Z" fill="#E0E0E0"/>
<path d="M68.0496 429.934H56.0312V461.947H68.0496V429.934Z" fill="white"/>
<path d="M99.0073 474.507C99.0073 474.846 83.1105 475.124 63.5076 475.124C43.9046 475.124 28.0078 474.846 28.0078 474.507C28.0078 474.168 43.8951 473.902 63.5076 473.902C83.12 473.902 99.0073 474.181 99.0073 474.507Z" fill="#E0E0E0"/>
<path d="M68.0496 494.465H56.0312V526.479H68.0496V494.465Z" fill="white"/>
<path d="M99.0073 539.027C99.0073 539.365 83.1105 539.643 63.5076 539.643C43.9046 539.643 28.0078 539.365 28.0078 539.027C28.0078 538.688 43.8951 538.422 63.5076 538.422C83.12 538.422 99.0073 538.688 99.0073 539.027Z" fill="#E0E0E0"/>
<path d="M555.977 467.355L539.237 559.163L546.314 559.139L563.092 468.226L555.977 467.355Z" fill="#E0E0E0"/>
<path d="M586.515 467.355L603.312 559.163H610.044L593.783 467.355H586.515Z" fill="#E0E0E0"/>
<path d="M544.675 398.41L554.203 461.615H565.044L554.855 398.41H544.675Z" fill="#E0E0E0"/>
<path d="M378.647 467.355L364.991 559.163H371.944L386.213 467.355H378.647Z" fill="#E0E0E0"/>
<path d="M407.358 467.355L422.978 558.656H429.844L414.771 467.355H407.358Z" fill="#E0E0E0"/>
<path d="M367.347 398.41L376.875 461.615H387.706L377.526 398.41H367.347Z" fill="#E0E0E0"/>
<path d="M345.898 392.668L347.852 404.158H565.361L562.823 392.668H345.898Z" fill="#EBEBEB"/>
<path d="M350.055 414.984L352.353 426.474H568.397L566.434 414.984H350.055Z" fill="#EBEBEB"/>
<path d="M354.354 438.09L356.49 449.579H571.863L569.824 438.09H354.354Z" fill="#EBEBEB"/>
<path d="M603.062 461.613H370.815V473.103H603.062V461.613Z" fill="#EBEBEB"/>
<path d="M360.798 73.1371C361.239 69.0613 356.69 65.7112 353.271 65.3725C351.634 65.2032 349.948 65.5177 348.397 64.8404C345.055 63.3649 343.714 57.8982 340.449 56.1567C338.007 54.8626 335.201 56.0236 332.787 57.5233C330.374 59.023 328.085 60.9218 325.442 61.1516C323.144 61.333 320.654 60.2566 318.634 61.6717C317.13 62.736 316.345 64.9129 314.966 66.207C313.528 67.3236 311.865 67.8906 310.178 67.8398C308.494 67.7931 306.819 68.1417 305.236 68.8678C303.704 69.7507 302.44 71.7825 302.765 73.8748L360.798 73.1371Z" fill="#EBEBEB"/>
<path d="M223.359 34.2351C223.924 29.0587 218.13 24.7894 213.782 24.354C211.704 24.1363 209.549 24.5354 207.586 23.6767C203.325 21.8021 201.63 14.8479 197.474 12.6346C194.371 10.9898 190.77 12.4532 187.782 14.3762C184.794 16.2992 181.797 18.6939 178.426 18.972C175.553 19.2018 172.326 17.8352 169.807 19.6372C167.892 20.9797 166.934 23.7614 165.134 25.3941C163.334 27.0269 161.169 27.3413 159.034 27.4864C156.898 27.6316 154.696 27.6558 152.752 28.7805C150.808 29.9053 149.199 32.5056 149.601 35.1542L223.359 34.2351Z" fill="#F5F5F5"/>
<path d="M73.8511 143.516C74.4161 138.34 68.6223 134.071 64.2747 133.635C62.2062 133.418 60.0515 133.817 58.0787 132.958C53.8268 131.083 52.1222 124.129 47.966 121.916C44.8633 120.271 41.2625 121.734 38.2747 123.657C35.2869 125.58 32.2895 127.975 28.9281 128.253C25.9978 128.483 22.8184 127.116 20.2615 128.918C18.3462 130.261 17.3886 133.043 15.5978 134.675C13.807 136.308 11.6331 136.623 9.49761 136.768C7.36207 136.913 5.14992 136.937 3.20591 138.062C1.2619 139.187 -0.346939 141.787 0.0648463 144.436L73.8511 143.516Z" fill="#F5F5F5"/>
<path d="M639.961 231.459C640.526 226.283 634.742 222.026 630.385 221.578C628.307 221.372 626.152 221.772 624.189 220.901C619.928 219.026 618.233 212.084 614.076 209.871C610.964 208.214 607.373 209.689 604.385 211.6C601.397 213.511 598.39 215.93 595.029 216.196C592.156 216.438 588.929 215.059 586.41 216.873C584.495 218.216 583.537 220.985 581.746 222.63C579.956 224.275 577.782 224.565 575.646 224.71C573.511 224.856 571.308 224.892 569.364 226.017C567.42 227.141 565.811 229.73 566.213 232.378L639.961 231.459Z" fill="#F5F5F5"/>
<path d="M516.69 508.103C517.611 508.658 518.433 509.442 519.108 510.408C519.783 511.375 520.296 512.503 520.616 513.727C521.25 516.178 521.43 518.781 521.143 521.334C520.702 526.281 518.471 531.276 516.077 535.218C512.783 531.59 512.026 525.253 511.796 522.011C511.442 516.871 513.271 507.329 516.69 508.103Z" fill="#FF725E"/>
<path d="M519.907 543.385C519.682 541.972 519.758 540.509 520.126 539.145C520.494 537.781 521.142 536.565 522.004 535.62C522.877 534.694 523.887 533.996 524.976 533.566C526.064 533.137 527.209 532.984 528.344 533.117C528.87 533.108 529.39 533.244 529.87 533.515C530.35 533.787 530.777 534.188 531.121 534.689C531.378 535.221 531.517 535.83 531.526 536.453C531.534 537.076 531.411 537.69 531.169 538.233C530.666 539.309 529.95 540.201 529.091 540.821C526.218 543.083 523.144 544.606 519.907 543.385Z" fill="#FF725E"/>
<path d="M515.687 558.541C515.705 558.199 515.743 557.859 515.801 557.525L516.204 554.779C516.574 551.724 517.331 548.763 518.444 546.011C519.605 543.263 521.324 540.955 523.424 539.323C524.069 538.85 524.753 538.468 525.464 538.186C525.713 538.089 525.914 538.041 526.048 538.004C526.118 537.988 526.189 537.988 526.259 538.004C525.306 538.401 524.391 538.929 523.53 539.577C521.499 541.244 519.836 543.532 518.693 546.229C517.598 548.954 516.823 551.867 516.395 554.876C516.204 556.025 516.041 556.956 515.916 557.597C515.861 557.919 515.785 558.235 515.687 558.541Z" fill="#263238"/>
<path d="M515.811 515.516C515.82 515.665 515.82 515.814 515.811 515.963C515.811 516.286 515.83 516.709 515.868 517.233C515.868 518.346 515.973 519.942 516.021 521.926C516.117 525.893 516.203 531.359 516.184 537.406C516.165 543.454 516.04 548.932 515.916 552.899C515.849 554.871 515.791 556.527 515.734 557.58C515.734 558.1 515.734 558.523 515.667 558.85C515.681 558.998 515.681 559.148 515.667 559.297C515.657 559.148 515.657 558.998 515.667 558.85C515.667 558.523 515.667 558.1 515.667 557.58C515.667 556.37 515.724 554.834 515.763 552.887C515.839 548.92 515.925 543.454 515.945 537.406C515.964 531.359 515.945 525.893 515.868 521.938C515.868 519.991 515.82 518.394 515.811 517.245C515.811 516.713 515.811 516.29 515.811 515.963C515.796 515.815 515.796 515.664 515.811 515.516Z" fill="#263238"/>
<path d="M514.22 546.393C513.82 543.397 512.861 540.564 511.423 538.128C509.984 535.693 508.106 533.725 505.946 532.388C504.844 531.723 503.398 531.288 502.498 532.316C501.598 533.344 501.79 535.218 502.24 536.657C503.206 539.643 504.852 542.2 506.969 544.004C509.086 545.808 511.58 546.779 514.134 546.793" fill="#FF725E"/>
<path d="M506.472 537.078C506.716 537.17 506.95 537.296 507.171 537.453C507.445 537.61 507.71 537.788 507.966 537.985C508.263 538.227 508.617 538.457 508.924 538.783C509.322 539.124 509.706 539.492 510.073 539.884C510.505 540.318 510.915 540.787 511.299 541.287C512.185 542.43 512.965 543.696 513.626 545.06C514.269 546.44 514.783 547.909 515.158 549.439C515.323 550.105 515.454 550.783 515.551 551.47C515.643 552.07 515.707 552.676 515.742 553.285C515.788 553.782 515.808 554.283 515.8 554.784C515.825 555.158 515.825 555.535 515.8 555.909C515.8 556.23 515.774 556.55 515.723 556.864C515.656 556.864 515.723 555.486 515.579 553.309C515.522 552.764 515.465 552.16 515.35 551.531C515.235 550.902 515.101 550.237 514.938 549.535C514.553 548.044 514.042 546.608 513.415 545.254C512.765 543.908 512.001 542.655 511.136 541.517C510.762 541.02 510.366 540.552 509.949 540.114C509.575 539.678 509.182 539.328 508.838 538.989C507.44 537.719 506.444 537.139 506.472 537.078Z" fill="#263238"/>
<path d="M435.205 188.515L454.473 210.285L478.251 184.887L485.912 192.143C485.912 192.143 462.776 231.704 457.719 235.598C452.663 239.493 447.137 236.36 444.619 233.506C442.512 231.087 427.257 209.39 427.257 209.39L435.205 188.515Z" fill="#B57F76"/>
<path d="M544.28 53.2593C544.548 45.6399 543.044 37.706 539.195 31.816C536.946 28.641 534.1 26.2314 530.921 24.8091C527.741 23.3867 524.33 22.9972 521 23.6766C509.345 26.5429 504.059 36.2788 503.839 50.0785C503.628 63.0315 507.851 76.0813 515.962 84.0272C520.454 88.4296 526.669 91.3685 531.802 88.2723C535.795 85.8535 538.046 80.4715 539.76 75.3193C542.106 68.2804 544.012 60.8908 544.28 53.2593Z" fill="#455A64"/>
<path d="M527.111 89.4167C526.451 90.7645 525.96 92.2332 525.655 93.7706C525.593 94.0075 525.574 94.2593 525.601 94.5067C525.627 94.7541 525.698 94.9905 525.808 95.1978C525.978 95.3695 526.189 95.4631 526.407 95.4631C526.625 95.4631 526.836 95.3695 527.006 95.1978C527.325 94.813 527.565 94.3355 527.705 93.8069C528.362 94.204 529.053 94.5082 529.764 94.714C529.918 94.7912 530.085 94.8226 530.251 94.8058C530.417 94.789 530.578 94.7245 530.721 94.6172C530.819 94.5069 530.894 94.3669 530.937 94.2104C530.981 94.0538 530.992 93.8859 530.97 93.7223C530.97 93.3957 531.2 92.5128 531.066 92.1984C530.52 90.9889 529.476 90.3842 528.71 89.332" fill="#455A64"/>
<path d="M527.626 93.2338C527.397 92.6668 527.289 92.0347 527.31 91.3989C527.332 90.7632 527.484 90.1453 527.751 89.6055C527.756 90.2134 527.718 90.8206 527.636 91.4196C527.67 92.0237 527.666 92.6303 527.626 93.2338Z" fill="#263238"/>
<path d="M528.585 91.9821C528.518 92.0547 528.154 91.6072 527.934 90.8936C527.714 90.1801 527.743 89.5391 527.829 89.5391C527.915 89.5391 528.039 90.0833 528.241 90.7485C528.442 91.4137 528.633 91.9095 528.585 91.9821Z" fill="#263238"/>
<g opacity="0.3">
<path d="M512.918 45.628C513.367 43.6075 514.169 41.7397 515.264 40.1613C516.364 38.5714 517.087 36.6224 517.351 34.5375C517.476 32.4452 516.327 28.9862 513.952 30.2077C508.579 34.6342 506.109 42.3746 506.511 50.4536C506.52 52.1207 506.884 53.7542 507.564 55.1825C507.915 55.8847 508.429 56.4333 509.036 56.7536C509.642 57.0739 510.312 57.1503 510.954 56.9725C512.535 56.3556 513.176 53.9489 513.147 51.8686C513.119 49.7884 512.621 47.6719 512.918 45.628Z" fill="white"/>
</g>
<path d="M600.208 151.187C605.245 146.966 609.43 140.762 610.933 133.36C611.638 129.195 611.502 124.874 610.538 120.793C609.574 116.712 607.813 113.003 605.417 110.006C596.722 99.7984 587.376 100.137 578.412 108.047C570.004 115.461 564.143 127.458 563.846 140.411C563.674 147.595 565.455 155.674 570.464 159.085C574.361 161.733 579.082 160.851 583.44 159.569C589.32 157.815 595.171 155.408 600.208 151.187Z" fill="#455A64"/>
<path d="M566.946 154.973C565.699 155.089 564.475 155.453 563.317 156.049C562.953 156.255 562.56 156.557 562.484 157.053C562.477 157.329 562.546 157.6 562.679 157.82C562.811 158.04 562.999 158.196 563.212 158.262C563.646 158.365 564.094 158.327 564.514 158.153C564.648 159.057 564.857 159.941 565.136 160.79C565.27 161.177 565.443 161.6 565.769 161.709C565.897 161.742 566.03 161.734 566.156 161.686C566.281 161.637 566.395 161.55 566.487 161.431C566.678 161.201 567.444 160.935 567.511 160.633C567.99 159.339 567.741 157.936 567.961 156.533" fill="#455A64"/>
<path d="M564.792 157.705C564.725 157.645 565.08 156.883 565.75 156.302C566.147 155.887 566.652 155.672 567.167 155.697C567.167 155.818 566.583 156.096 565.941 156.641C565.3 157.185 564.869 157.778 564.792 157.705Z" fill="#263238"/>
<path d="M566.171 157.948C566.085 157.948 566.171 157.295 566.478 156.654C566.784 156.013 567.225 155.662 567.282 155.747C567.34 155.832 567.062 156.279 566.765 156.872C566.468 157.464 566.257 157.984 566.171 157.948Z" fill="#263238"/>
<g opacity="0.3">
<path d="M586.618 114.684C588.177 113.937 589.851 113.652 591.511 113.849C593.165 114.016 594.824 113.598 596.3 112.64C597.707 111.527 599.249 108.322 597.066 106.592C591.071 103.714 584.616 105.758 579.732 110.934C578.668 111.918 577.834 113.247 577.319 114.78C577.077 115.555 577.031 116.404 577.185 117.214C577.339 118.023 577.687 118.753 578.181 119.304C579.503 120.513 581.427 119.787 582.73 118.53C584.032 117.272 585.133 115.591 586.618 114.684Z" fill="white"/>
</g>
<path d="M607.112 37.306C609.19 30.1341 609.65 21.9946 607.39 14.9194C605.999 11.0457 603.861 7.67374 601.173 5.11116C598.485 2.54858 595.332 0.877017 592.001 0.249016C580.202 -1.46838 572.848 5.80031 569.324 18.8743C566.029 31.15 566.939 45.2036 572.771 55.8587C576.008 61.7728 581.227 66.9492 586.868 65.9454C591.254 65.1713 594.672 60.8899 597.545 56.6328C601.462 50.7912 605.044 44.4659 607.112 37.306Z" fill="#455A64"/>
<path d="M582.106 65.2344C581.152 66.274 580.334 67.4987 579.684 68.8627C579.566 69.0655 579.488 69.3001 579.455 69.5477C579.421 69.7954 579.434 70.0494 579.492 70.2898C579.617 70.5147 579.799 70.6792 580.008 70.7562C580.217 70.8331 580.44 70.8179 580.641 70.7131C581.023 70.4646 581.351 70.1037 581.599 69.6609C582.129 70.2898 582.714 70.8416 583.342 71.3057C583.474 71.4417 583.629 71.5376 583.795 71.5858C583.961 71.634 584.134 71.6334 584.299 71.5839C584.419 71.5156 584.524 71.4098 584.602 71.2765C584.681 71.1432 584.732 70.9868 584.749 70.8219C584.797 70.4954 585.257 69.7335 585.209 69.4069C584.979 68.004 584.117 67.0727 583.639 65.7786" fill="#455A64"/>
<path d="M581.658 69.0511C581.521 68.4264 581.568 67.7602 581.792 67.1765C582.079 66.1727 582.587 65.5559 582.644 65.6405C582.497 66.2161 582.317 66.7779 582.108 67.3217C581.988 67.9101 581.838 68.4879 581.658 69.0511Z" fill="#263238"/>
<path d="M582.884 68.2186C582.798 68.2186 582.558 67.7106 582.52 66.9366C582.482 66.1625 582.654 65.582 582.74 65.6062C582.827 65.6304 582.807 66.2109 582.855 66.9124C582.903 67.6139 582.97 68.1823 582.884 68.2186Z" fill="#263238"/>
<g opacity="0.3">
<path d="M579.049 18.0749C579.954 16.3063 581.166 14.8214 582.593 13.7331C584.027 12.639 585.185 11.0538 585.935 9.16142C586.548 7.21423 586.279 3.47708 583.723 3.73106C577.546 5.90804 573.332 12.3543 571.79 20.2156C571.396 21.8034 571.353 23.4973 571.666 25.1138C571.839 25.9085 572.201 26.6172 572.703 27.1447C573.204 27.6722 573.822 27.9933 574.472 28.0648C576.119 28.0648 577.345 26.0209 577.776 24.0253C578.207 22.0298 578.274 19.9012 579.049 18.0749Z" fill="white"/>
</g>
<path d="M477.952 185.219L482.013 194.314C483.573 194.019 485.147 193.849 486.724 193.806C488.726 193.806 497.584 187.19 497.584 187.19L497.861 176.656L490.746 177.394L477.952 185.219Z" fill="#B57F76"/>
<path d="M477.952 185.225L490.737 173.578L503.033 171.703C503.033 171.703 503.263 175.053 499.777 176.251C498.008 176.812 496.286 177.586 494.634 178.561C494.634 178.561 493.399 183.628 488.055 185.466C484.733 186.547 481.24 186.463 477.952 185.225Z" fill="#B57F76"/>
<path d="M556.166 122.652C556.142 122.765 556.11 122.874 556.07 122.979L555.735 123.898C555.438 124.696 554.978 125.882 554.366 127.381C552.645 131.639 550.694 135.741 548.524 139.657C545.316 145.507 541.343 150.623 536.774 154.787C531.574 159.431 525.215 163.253 518.425 166.555C515.035 168.284 511.597 169.59 508.351 170.969C505.201 172.185 502.188 173.908 499.387 176.097C496.911 178.169 494.838 180.923 493.326 184.152C492.031 186.991 490.969 189.99 490.156 193.102C489.371 195.944 488.729 198.556 488.106 200.83C487.484 203.104 486.919 205.039 486.364 206.587C485.827 208.199 485.186 209.752 484.448 211.231C484.473 211.121 484.509 211.016 484.554 210.917L484.918 210.01C485.393 208.865 485.822 207.691 486.201 206.49C486.727 204.942 487.264 202.995 487.867 200.721C488.47 198.447 489.074 195.883 489.84 192.957C490.639 189.804 491.695 186.764 492.99 183.886C494.522 180.573 496.631 177.743 499.158 175.613C501.985 173.388 505.026 171.628 508.207 170.377C511.482 168.998 514.911 167.692 518.263 165.962C524.69 162.997 530.82 159.088 536.525 154.315C541.069 150.204 545.034 145.159 548.256 139.391C550.442 135.523 552.431 131.483 554.212 127.297L555.658 123.862C555.821 123.499 555.946 123.209 556.041 122.967C556.073 122.856 556.115 122.751 556.166 122.652Z" fill="#263238"/>
<path d="M494.787 178.035C494.722 178.981 494.493 179.898 494.117 180.72C493.31 182.788 492.067 184.534 490.524 185.766C488.981 186.997 487.199 187.666 485.373 187.699C484.625 187.78 483.871 187.643 483.171 187.299C483.171 187.203 484.014 187.384 485.354 187.299C487.095 187.149 488.779 186.455 490.255 185.279C491.731 184.103 492.953 182.482 493.81 180.563C494.471 179.027 494.701 178.035 494.787 178.035Z" fill="#875453"/>
<path d="M500.392 175.934C500.704 175.848 501.029 175.88 501.326 176.026C501.624 176.171 501.881 176.424 502.066 176.753C502.25 177.081 502.354 177.471 502.365 177.874C502.376 178.276 502.293 178.674 502.126 179.018C501.455 180.167 500.9 180.227 500.9 180.227C500.9 180.227 501.752 182.416 498.774 184.327C498.774 184.327 499.253 186.806 496.351 187.786C493.45 188.766 490.787 188.04 490.893 186.988C490.998 185.936 492.655 185.234 492.655 185.234C492.655 185.234 491.017 184.109 492.023 182.936C493.026 182.032 494.153 181.368 495.346 180.977C495.346 180.977 492.952 179.453 494.177 178.207C494.915 177.494 498.104 176.55 500.392 175.934Z" fill="#B57F76"/>
<path d="M500.39 175.93C500.185 176.06 499.966 176.15 499.739 176.196L497.824 176.825C496.85 177.135 495.891 177.514 494.951 177.961C494.688 178.083 494.44 178.249 494.213 178.457C494.11 178.539 494.03 178.661 493.987 178.805C493.943 178.949 493.939 179.108 493.974 179.255C494.299 179.938 494.784 180.475 495.363 180.791L495.832 181.106L495.324 181.299C494.419 181.622 493.545 182.072 492.719 182.642C492.327 182.956 491.858 183.368 491.867 183.791C491.877 184.214 492.289 184.722 492.691 185L493.15 185.339L492.652 185.569C492.185 185.765 491.75 186.068 491.369 186.464C491.211 186.619 491.105 186.843 491.072 187.093C491.072 187.201 491.226 187.407 491.446 187.528C492.166 187.874 492.936 188.026 493.706 187.975C494.464 187.961 495.219 187.839 495.956 187.613C496.659 187.46 497.319 187.081 497.872 186.512C498.108 186.264 498.291 185.944 498.403 185.582C498.516 185.221 498.553 184.829 498.513 184.444V184.214L498.657 184.129C499.31 183.75 499.892 183.197 500.361 182.509C500.559 182.221 500.695 181.875 500.757 181.503C500.819 181.13 500.805 180.744 500.716 180.38L500.639 180.126L500.85 180.054C501.195 179.91 501.5 179.646 501.731 179.292C501.971 179.001 502.143 178.633 502.229 178.227C502.272 177.897 502.246 177.558 502.154 177.244C502.061 176.93 501.906 176.652 501.702 176.437C501.324 176.081 500.862 175.898 500.39 175.917C500.511 175.852 500.642 175.819 500.773 175.821C501.153 175.812 501.524 175.965 501.827 176.256C502.074 176.489 502.266 176.802 502.384 177.162C502.502 177.521 502.541 177.915 502.497 178.3C502.409 178.755 502.227 179.172 501.97 179.509C501.696 179.953 501.322 180.282 500.898 180.453L501.032 180.126C501.159 180.565 501.194 181.038 501.132 181.498C501.07 181.959 500.913 182.391 500.677 182.751C500.185 183.521 499.564 184.145 498.858 184.577L498.973 184.263C499.034 184.747 498.997 185.243 498.865 185.704C498.732 186.166 498.509 186.577 498.216 186.899C497.613 187.519 496.894 187.935 496.129 188.109C495.357 188.347 494.567 188.481 493.773 188.508C492.924 188.562 492.075 188.389 491.283 188C491.109 187.927 490.955 187.792 490.839 187.612C490.724 187.432 490.652 187.214 490.632 186.984C490.648 186.772 490.697 186.566 490.778 186.379C490.859 186.192 490.969 186.027 491.101 185.895C491.532 185.444 492.025 185.1 492.557 184.879V185.448C492.298 185.267 492.063 185.039 491.858 184.77C491.624 184.479 491.487 184.085 491.475 183.67C491.489 183.466 491.536 183.269 491.612 183.088C491.687 182.908 491.79 182.748 491.915 182.618C492.122 182.398 492.343 182.199 492.576 182.025C493.439 181.432 494.355 180.973 495.305 180.658V181.166C494.623 180.794 494.067 180.13 493.735 179.292C493.658 179.047 493.658 178.775 493.735 178.53C493.821 178.319 493.941 178.133 494.089 177.986C494.345 177.748 494.629 177.564 494.932 177.441C495.886 177.015 496.862 176.667 497.852 176.401C498.676 176.171 499.318 176.014 499.768 175.93C499.975 175.902 500.183 175.902 500.39 175.93Z" fill="#875453"/>
<path d="M501.041 180.099C500.214 180.9 499.21 181.356 498.168 181.405C497.162 181.672 496.114 181.537 495.171 181.018C495.171 180.837 496.512 181.018 498.101 180.788C499.691 180.558 500.974 179.93 501.041 180.099Z" fill="#875453"/>
<path d="M498.714 184.396C497.864 185.095 496.898 185.541 495.892 185.7C494.885 185.859 493.862 185.727 492.901 185.315C492.901 185.134 494.242 185.315 495.832 185.085C497.421 184.855 498.657 184.226 498.714 184.396Z" fill="#875453"/>
<path d="M608.922 90.3044C610.436 84.0579 610.416 77.3788 608.865 71.147C607.576 65.1514 604.759 59.8592 600.849 56.0895C598.711 54.2001 603.412 56.7147 600.849 56.0895C598.287 55.4644 603.391 55.3419 600.849 56.0895C597.704 57.0101 564.962 34.3994 562.486 37.017C562.246 33.4377 563.935 40.1083 562.486 37.017C560.352 35.1724 565.035 37.5756 562.486 37.017C557.505 36.155 552.435 37.284 547.988 40.246C543.233 43.1129 539.24 47.6635 536.496 53.3441C533.086 60.5754 531.524 68.9586 532.024 77.3514C532.713 85.8174 535.797 94.0052 539.512 100.851C545.766 112.364 554.164 127.071 554.164 127.071C554.164 127.071 567.255 122.584 578.421 120.238C585.058 118.835 592.058 115.944 597.574 110.744C602.907 105.537 606.864 98.4104 608.922 90.3044Z" fill="#455A64"/>
<path d="M556.173 133.624C556.173 129.996 556.451 128.448 556.403 124.783L553.137 123.84C552.18 125.545 549.929 128.266 548.55 130.407C548.259 130.801 548.049 131.278 547.937 131.798C547.884 132.059 547.897 132.335 547.975 132.587C548.052 132.838 548.189 133.053 548.368 133.201C548.677 133.346 549.017 133.346 549.326 133.201C550.455 132.864 551.503 132.188 552.381 131.229C552.002 132.971 552.135 134.827 552.754 136.454C552.946 137.084 553.324 137.595 553.808 137.881C554.203 138.009 554.622 137.957 554.99 137.737C555.359 137.516 555.656 137.139 555.828 136.672C556.135 135.706 556.253 134.66 556.173 133.624Z" fill="#455A64"/>
<g opacity="0.3">
<path d="M606.936 77.0986C606.304 69.3945 604.417 63.6255 599.275 59.4167C598.903 59.0562 598.478 58.7938 598.024 58.6452C597.57 58.4966 597.097 58.4648 596.634 58.5517C596.17 58.6386 595.725 58.8424 595.325 59.151C594.925 59.4596 594.578 59.8666 594.305 60.3479C593.948 61.0596 593.715 61.8588 593.621 62.6928C593.526 63.5268 593.574 64.3765 593.759 65.1857C594.14 66.7988 594.62 68.3719 595.195 69.8904C596.275 73.3179 596.761 76.998 596.618 80.6825C596.476 84.367 595.71 87.9702 594.372 91.2489C593.299 93.825 591.863 96.8728 593.041 99.3642C593.489 100.148 594.112 100.744 594.831 101.076C595.549 101.408 596.33 101.46 597.072 101.227C598.548 100.705 599.877 99.6651 600.903 98.2274C603.08 95.4853 604.75 92.1691 605.793 88.5162C606.836 84.8634 607.226 80.9644 606.936 77.0986Z" fill="white"/>
</g>
<g opacity="0.3">
<path d="M552.527 47.7885C552.46 46.446 551.254 45.672 550.2 45.539C549.397 45.3137 548.563 45.3264 547.763 45.5761C546.964 45.8257 546.222 46.3056 545.594 46.9782L546.781 46.0832C544.648 47.5011 542.782 49.4857 541.313 51.9006C540.213 53.4698 539.633 55.5142 539.695 57.6091C539.896 59.6651 541.505 61.5639 543.085 61.0076C544.665 60.4512 545.192 58.3106 545.958 56.569C546.919 54.2204 548.399 52.275 550.219 50.9693C550.764 50.6329 551.281 50.2277 551.761 49.7599C551.998 49.5252 552.19 49.2261 552.323 48.8847C552.455 48.5434 552.525 48.1687 552.527 47.7885Z" fill="white"/>
</g>
<path d="M550.877 129.012C550.791 128.855 551.528 128.093 552.342 127.077C553.156 126.061 553.779 125.142 553.903 125.251C554.028 125.36 553.558 126.46 552.696 127.525C551.835 128.589 550.944 129.157 550.877 129.012Z" fill="#263238"/>
<path d="M554.057 134.777C553.521 132.134 553.717 129.339 554.612 126.855C554.571 128.181 554.465 129.501 554.296 130.81C554.281 132.138 554.202 133.463 554.057 134.777Z" fill="#263238"/>
<path d="M557.487 126.034C557.487 126.107 557.2 126.337 556.644 126.457C555.907 126.596 555.154 126.505 554.451 126.191C553.746 125.887 553.114 125.363 552.613 124.668C552.239 124.135 552.105 123.712 552.153 123.676C552.901 124.453 553.729 125.1 554.614 125.599C555.55 125.915 556.518 126.062 557.487 126.034Z" fill="#263238"/>
<path d="M536.879 60.9141C536.984 60.9141 536.275 63.3329 535.768 67.2394C535.623 68.3123 535.524 69.3943 535.471 70.4807C535.366 71.6901 535.385 72.8995 535.366 74.2178C535.407 77.0636 535.66 79.8981 536.122 82.6838C536.623 85.4721 537.325 88.1966 538.219 90.8233C538.616 91.9631 539.057 93.0772 539.541 94.1614C539.972 95.2015 540.441 96.1206 540.872 96.9551C542.625 100.281 544.032 102.035 543.956 102.132C543.602 101.774 543.281 101.369 542.998 100.922C542.612 100.443 542.254 99.9296 541.926 99.3861C541.462 98.6932 541.028 97.9706 540.623 97.2212C540.112 96.3249 539.642 95.3921 539.215 94.4274C538.717 93.4236 538.306 92.2625 537.836 91.0652C536.903 88.4162 536.178 85.6575 535.672 82.829C535.203 79.9882 534.959 77.0955 534.944 74.1936C534.945 72.9293 534.996 71.6659 535.098 70.4081C535.171 69.3119 535.292 68.2217 535.461 67.1426C535.584 66.2457 535.744 65.3576 535.94 64.4819C536.065 63.8175 536.222 63.1632 536.409 62.5226C536.524 61.9685 536.682 61.4298 536.879 60.9141Z" fill="white"/>
<path d="M499.136 176.894C499.294 176.59 499.466 176.3 499.653 176.023L500.314 175.007L501.271 173.725C503.517 171.145 506.054 169.001 508.798 167.363C512.198 165.126 516.459 163.07 520.769 159.768C523.018 158.057 525.047 155.919 526.783 153.431C528.593 150.708 530.06 147.648 531.13 144.36C533.147 137.942 534.017 131.042 533.678 124.15C533.398 118.52 532.667 112.94 531.494 107.497C530.537 102.828 529.579 99.1031 528.966 96.527C528.66 95.3176 528.42 94.2896 528.238 93.5639C528.057 92.8383 528.009 92.5117 528.018 92.5117C528.147 92.834 528.252 93.1699 528.334 93.5155C528.535 94.2412 528.813 95.2208 529.148 96.4545C529.838 99.0064 530.824 102.719 531.839 107.339C533.062 112.799 533.832 118.405 534.137 124.066C534.502 131.049 533.632 138.048 531.59 144.554C530.503 147.906 529.003 151.02 527.147 153.782C525.379 156.31 523.312 158.477 521.018 160.204C516.651 163.53 512.399 165.537 508.961 167.714C506.224 169.297 503.679 171.366 501.405 173.858L500.371 175.068L499.682 176.047L499.251 176.652C499.203 176.821 499.145 176.906 499.136 176.894Z" fill="#263238"/>
<path d="M495.124 175.994C495.369 175.964 495.616 175.964 495.861 175.994L497.997 176.066C498.955 176.066 500.046 176.175 501.368 176.163C502.689 176.151 504.174 176.236 505.83 176.163C507.487 176.091 509.288 176.091 511.232 175.933C513.176 175.776 515.244 175.595 517.418 175.365C521.766 174.809 526.525 173.998 531.476 172.789C536.427 171.579 541.052 170.031 545.276 168.471C547.354 167.649 549.346 166.887 551.175 166.052C553.004 165.218 554.708 164.456 556.25 163.694C557.792 162.932 559.171 162.206 560.387 161.577C561.603 160.948 562.638 160.368 563.471 159.884L565.386 158.796C565.609 158.653 565.844 158.539 566.085 158.457C565.877 158.629 565.659 158.782 565.434 158.917C564.946 159.207 564.314 159.606 563.519 160.126C562.724 160.646 561.671 161.263 560.454 161.916C559.238 162.569 557.888 163.379 556.336 164.129C554.785 164.879 553.119 165.75 551.271 166.548C549.422 167.346 547.44 168.181 545.371 169.027C541.167 170.624 536.504 172.16 531.534 173.406C526.563 174.651 521.785 175.425 517.418 175.945C515.235 176.151 513.156 176.381 511.212 176.453C509.268 176.526 507.449 176.611 505.792 176.611C504.135 176.611 502.632 176.611 501.32 176.526C500.008 176.441 498.868 176.417 497.949 176.332L495.823 176.127C495.587 176.112 495.353 176.067 495.124 175.994Z" fill="#263238"/>
<path d="M359.932 343.727C359.932 343.727 342.273 371.132 339.822 373.817C337.37 376.502 317.901 420.985 317.901 420.985L326.309 433.575L375.772 356.45L359.932 343.727Z" fill="#B57F76"/>
<path d="M319.741 413.426L308.249 435.389L295.215 449.455C294.994 449.696 294.814 449.993 294.686 450.325C294.558 450.658 294.486 451.02 294.474 451.39C294.461 451.759 294.509 452.128 294.613 452.473C294.717 452.818 294.877 453.133 295.081 453.398C295.319 453.702 295.61 453.931 295.931 454.066C296.253 454.201 296.595 454.237 296.93 454.172C301.287 453.289 317.27 449.951 317.998 448.294C318.888 446.359 331.309 426.137 331.309 426.137L319.741 413.426Z" fill="#455A64"/>
<path d="M295.102 453.399L318.861 446.832L318.353 447.751C317.922 448.537 317.309 449.892 316.572 450.17C314.599 450.823 308.911 452.323 296.816 454.838C296.117 454.984 295.58 454.077 295.102 453.423V453.399Z" fill="#263238"/>
<path d="M318.592 438.482C318.275 438.49 317.972 438.647 317.741 438.922C317.511 439.197 317.371 439.571 317.347 439.97C317.344 440.371 317.462 440.758 317.677 441.053C317.892 441.347 318.189 441.527 318.505 441.554C318.842 441.538 319.162 441.367 319.406 441.073C319.649 440.779 319.799 440.382 319.827 439.958C319.793 439.539 319.633 439.152 319.38 438.878C319.127 438.603 318.8 438.462 318.467 438.482" fill="#EBEBEB"/>
<path d="M304.2 447.364C304.155 446.331 303.957 445.317 303.616 444.377C302.965 442.853 301.854 442.32 301.911 442.175C301.969 442.03 302.227 442.175 302.668 442.405C303.237 442.795 303.705 443.383 304.018 444.098C304.335 444.808 304.481 445.619 304.44 446.433C304.401 447.049 304.248 447.388 304.2 447.364Z" fill="#263238"/>
<path d="M308.498 445.646C307.872 443.062 306.656 440.769 305.003 439.055C306.023 439.618 306.894 440.537 307.513 441.705C308.133 442.873 308.474 444.241 308.498 445.646Z" fill="#263238"/>
<path d="M312.426 439.333C312.311 439.43 311.641 438.124 310.444 436.915C309.247 435.705 308.059 435.306 308.098 435.137C309.067 435.177 309.995 435.643 310.722 436.455C311.544 437.126 312.149 438.147 312.426 439.333Z" fill="#263238"/>
<path d="M315.92 432.995C315.4 431.975 314.713 431.108 313.906 430.453C313.098 429.798 312.188 429.37 311.237 429.197C311.237 429.125 311.572 429.016 312.128 429.076C312.85 429.172 313.543 429.48 314.154 429.976C314.764 430.472 315.274 431.141 315.642 431.93C315.911 432.535 315.987 432.971 315.92 432.995Z" fill="#263238"/>
<path d="M314.598 429.278C314.686 428.96 314.831 428.67 315.02 428.432C315.494 427.735 316.069 427.161 316.715 426.739C317.168 426.388 317.699 426.231 318.228 426.291C318.402 426.331 318.562 426.439 318.686 426.599C318.809 426.76 318.89 426.965 318.917 427.186C318.947 427.617 318.852 428.047 318.649 428.396C318.211 429.088 317.596 429.566 316.909 429.747C316.222 429.928 315.506 429.801 314.886 429.387C314.279 428.965 313.785 428.325 313.468 427.547C313.151 426.77 313.024 425.89 313.104 425.021C313.123 424.802 313.18 424.59 313.271 424.402C313.362 424.214 313.485 424.054 313.631 423.933C313.785 423.833 313.96 423.796 314.131 423.827C314.302 423.857 314.462 423.953 314.589 424.102C314.947 424.588 315.198 425.184 315.317 425.832C315.524 426.705 315.605 427.619 315.556 428.529C315.567 428.865 315.518 429.2 315.412 429.508C315.428 428.309 315.299 427.114 315.029 425.965C314.909 425.411 314.685 424.901 314.378 424.477C314.308 424.391 314.219 424.336 314.123 424.318C314.026 424.301 313.928 424.323 313.842 424.38C313.751 424.471 313.676 424.584 313.621 424.713C313.567 424.842 313.534 424.984 313.526 425.13C313.479 425.882 313.603 426.635 313.882 427.301C314.162 427.967 314.587 428.519 315.106 428.891C315.632 429.238 316.236 429.349 316.819 429.206C317.401 429.063 317.929 428.675 318.314 428.105C318.459 427.866 318.533 427.571 318.525 427.271C318.511 427.148 318.468 427.033 318.401 426.943C318.335 426.852 318.247 426.789 318.151 426.763C317.704 426.714 317.256 426.841 316.868 427.126C316.016 427.666 315.247 428.395 314.598 429.278Z" fill="#263238"/>
<path d="M395.472 347.008C394.946 348.06 396.219 389.507 396.219 389.507L356.956 404.661L358.46 420.469L408.027 411.87C410.275 411.483 412.374 410.231 414.038 408.283C415.702 406.335 416.85 403.787 417.326 400.985L425.379 352.426L395.472 347.008Z" fill="#B57F76"/>
<path d="M402.739 399.247C401.096 398.37 399.656 396.98 398.554 395.208C397.334 393.568 396.458 391.568 396.007 389.391C396.899 391.264 397.877 393.069 398.937 394.797C400.135 396.372 401.404 397.858 402.739 399.247Z" fill="#875453"/>
<path d="M367.817 419.185L351.7 422.56C351.7 422.56 349.957 444.124 347.276 445.249L339.672 409.232L366.869 400.766L367.817 419.185Z" fill="#455A64"/>
<path d="M350.369 412.095C350.213 411.776 349.97 411.541 349.685 411.436C349.4 411.331 349.094 411.363 348.827 411.526C348.569 411.71 348.377 412.013 348.291 412.371C348.206 412.73 348.233 413.116 348.367 413.449C348.534 413.786 348.794 414.033 349.096 414.142C349.398 414.252 349.722 414.216 350.005 414.042C350.257 413.813 350.429 413.471 350.486 413.085C350.543 412.7 350.481 412.302 350.311 411.974" fill="#E0E0E0"/>
<path d="M339.672 409.232L341.999 408.555L348.425 443.338C348.425 443.338 348.204 445.128 347.276 445.249L339.672 409.232Z" fill="#263238"/>
<path d="M351.755 424.181C351.612 424.181 351.363 423.371 350.731 422.657C350.099 421.944 349.419 421.678 349.438 421.448C349.457 421.218 350.319 421.254 351.075 422.137C351.832 423.02 351.889 424.181 351.755 424.181Z" fill="#263238"/>
<path d="M351.316 428.387C351.191 428.472 350.789 427.795 350.08 427.396C349.372 426.996 348.701 427.033 348.673 426.851C348.644 426.67 349.4 426.295 350.281 426.851C351.163 427.408 351.421 428.387 351.316 428.387Z" fill="#263238"/>
<path d="M348.192 431.727C348.125 431.581 348.767 431.098 349.629 431.291C350.491 431.485 350.96 432.21 350.864 432.319C350.768 432.428 350.242 432.065 349.543 431.92C348.844 431.775 348.24 431.896 348.192 431.727Z" fill="#263238"/>
<path d="M353.432 418.387C353.509 418.242 354.227 418.883 354.39 420.141C354.553 421.399 354.151 422.342 354.045 422.258C353.94 422.173 354.093 421.314 353.902 420.274C353.71 419.234 353.337 418.508 353.432 418.387Z" fill="#263238"/>
<path d="M359.809 417.503C359.915 417.394 360.422 418.108 360.441 419.221C360.461 420.333 359.991 421.083 359.886 420.986C359.781 420.89 359.972 420.164 359.943 419.245C359.915 418.326 359.694 417.564 359.809 417.503Z" fill="#263238"/>
<path d="M360.519 419.708C360.48 418.892 360.555 418.073 360.74 417.289C360.875 416.427 361.098 415.59 361.4 414.798C361.58 414.303 361.819 413.846 362.109 413.443C362.289 413.182 362.535 413.008 362.806 412.948C363.076 412.889 363.354 412.948 363.593 413.117C363.715 413.229 363.815 413.377 363.883 413.547C363.951 413.717 363.986 413.906 363.986 414.096C363.974 414.41 363.906 414.717 363.785 414.991C363.591 415.452 363.373 415.897 363.134 416.322C362.734 417.037 362.296 417.716 361.822 418.354C361.417 418.976 360.923 419.497 360.366 419.89C360.721 419.237 361.119 418.622 361.554 418.051C361.985 417.397 362.385 416.71 362.751 415.995C362.969 415.609 363.168 415.205 363.344 414.786C363.517 414.35 363.555 413.879 363.344 413.709C363.199 413.62 363.034 413.595 362.875 413.639C362.717 413.683 362.575 413.793 362.473 413.951C362.219 414.315 362.006 414.722 361.841 415.161C361.537 415.912 361.29 416.697 361.104 417.507C360.962 418.262 360.766 418.998 360.519 419.708Z" fill="#263238"/>
<path d="M359.878 419.221C360.59 419.063 361.322 419.138 362.004 419.439C363.704 420.045 365.183 421.379 366.189 423.212C366.283 423.388 366.34 423.593 366.352 423.805C366.352 423.955 366.311 424.101 366.236 424.218C366.161 424.335 366.056 424.415 365.94 424.446C365.663 424.452 365.387 424.395 365.126 424.277C364.681 424.127 364.248 423.924 363.833 423.672C363.121 423.266 362.457 422.737 361.86 422.1C361.28 421.56 360.814 420.85 360.5 420.031C360.567 420.031 361.056 420.781 362.081 421.749C362.677 422.303 363.319 422.773 363.996 423.152C364.397 423.365 364.81 423.543 365.231 423.684C365.424 423.76 365.623 423.809 365.825 423.829C365.827 423.734 365.814 423.639 365.787 423.551C364.844 421.849 363.505 420.56 361.956 419.862C360.692 419.342 359.878 419.33 359.878 419.221Z" fill="#263238"/>
<path d="M378.952 192.297C379.076 193.76 387.188 218.759 387.188 218.759L370.86 248.535C369.688 250.682 368.185 252.507 366.44 253.902C364.696 255.297 362.746 256.232 360.709 256.651L321.781 259.432L318.094 250.011L356.533 237.239L378.952 192.297Z" fill="#B57F76"/>
<path d="M430.397 250.738L433.05 219.499L449.1 202.651C449.1 202.651 439.945 182.575 434.429 180.64C428.913 178.705 414.625 175.887 414.625 175.887C414.625 175.887 384.555 181.257 381.28 185.84C378.005 190.424 367.394 211.311 367.394 211.311L383.329 222.909L388.768 250.605C388.768 250.605 375.113 267.767 371.033 281.821C366.953 295.874 358.287 319.918 355.644 325.07C350.463 335.266 339.239 352.198 332.909 361.535C332.126 362.689 331.54 364.037 331.19 365.492C330.841 366.947 330.734 368.478 330.877 369.988C331.02 371.498 331.41 372.953 332.022 374.263C332.634 375.573 333.455 376.708 334.432 377.596C337.86 380.619 343.051 383.123 350.875 382.796C369.482 381.998 392.858 373.363 399.896 377.656C404.541 380.486 412.748 385.348 417.804 388.336C418.582 388.813 419.428 389.089 420.292 389.145C421.156 389.202 422.02 389.039 422.833 388.665C423.646 388.292 424.391 387.716 425.024 386.971C425.657 386.227 426.166 385.33 426.519 384.332C426.586 384.115 426.643 383.897 426.701 383.691C427.476 380.293 435.272 318.757 434.362 299.829C433.452 280.902 430.397 250.738 430.397 250.738Z" fill="#FF725E"/>
<path d="M430.704 248.713C430.575 248.802 430.436 248.863 430.292 248.894L429.104 249.306C428.07 249.656 426.557 250.08 424.68 250.515C414.867 252.895 404.822 253.356 394.897 251.882C392.982 251.591 391.469 251.301 390.416 251.047L389.209 250.745C389.056 250.731 388.907 250.682 388.769 250.6C388.912 250.578 389.056 250.578 389.2 250.6L390.416 250.781C391.479 250.962 393.011 251.192 394.907 251.434C404.806 252.666 414.792 252.206 424.594 250.067C426.509 249.656 427.994 249.293 429.037 249.015L430.244 248.713C430.396 248.679 430.552 248.679 430.704 248.713Z" fill="#263238"/>
<path d="M380.282 207.062C380.426 207.062 380.713 210.691 381.556 215.057C382.398 219.423 383.471 222.846 383.308 222.918C382.95 222.246 382.67 221.513 382.475 220.741C381.345 217.129 380.62 213.335 380.32 209.469C380.219 208.673 380.206 207.863 380.282 207.062Z" fill="#263238"/>
<path d="M388.479 277.482C388.538 277.088 388.638 276.705 388.776 276.345C388.997 275.643 389.341 274.627 389.801 273.394C390.989 270.172 392.348 267.057 393.871 264.069C395.388 261.072 397.072 258.215 398.908 255.518C399.617 254.49 400.201 253.668 400.632 253.099C400.834 252.793 401.065 252.521 401.321 252.289C400.652 253.493 399.932 254.651 399.167 255.76C397.421 258.52 395.788 261.39 394.273 264.359C392.502 267.842 391.084 271.132 390.098 273.539C389.613 274.888 389.073 276.204 388.479 277.482Z" fill="#263238"/>
<path d="M393.558 296.82C393.566 296.219 393.614 295.621 393.701 295.03C393.816 293.821 394.017 292.224 394.285 290.192C394.831 286.117 395.693 280.517 396.842 274.361C397.991 268.205 399.236 262.714 400.204 258.759C400.682 256.788 401.094 255.191 401.391 254.103C401.527 253.526 401.7 252.963 401.908 252.422C401.838 253.018 401.726 253.605 401.573 254.176L400.529 258.88C399.639 262.859 398.47 268.374 397.312 274.506C396.153 280.638 395.253 286.226 394.621 290.229C394.324 292.176 394.075 293.784 393.883 295.066C393.81 295.661 393.702 296.247 393.558 296.82Z" fill="#263238"/>
<path d="M427.342 287.754C427.396 288.048 427.428 288.347 427.437 288.649C427.485 289.302 427.543 290.173 427.619 291.249C427.696 292.326 427.773 293.753 427.83 295.361C427.887 296.97 427.974 298.796 427.993 300.816C428.089 304.855 428.06 309.681 427.878 315.027C427.696 320.372 427.313 326.238 426.71 332.37C426.106 338.502 425.273 344.295 424.411 349.532C423.549 354.769 422.592 359.437 421.701 363.319C421.289 365.279 420.83 367.02 420.456 368.556C420.083 370.092 419.738 371.398 419.441 372.463L418.752 374.881C418.685 375.175 418.596 375.458 418.483 375.728C418.52 375.427 418.581 375.131 418.665 374.845C418.809 374.228 419.01 373.394 419.259 372.354C419.508 371.314 419.862 369.935 420.217 368.423C420.571 366.911 420.992 365.133 421.385 363.174C422.228 359.28 423.118 354.599 423.98 349.375C424.842 344.15 425.618 338.369 426.24 332.249C426.863 326.129 427.198 320.288 427.447 314.966C427.696 309.645 427.715 304.819 427.667 300.792C427.667 298.772 427.6 296.946 427.571 295.337C427.543 293.728 427.485 292.35 427.437 291.225C427.389 290.1 427.37 289.278 427.351 288.625C427.336 288.335 427.333 288.044 427.342 287.754Z" fill="#263238"/>
<g opacity="0.3">
<path d="M401.323 252.332C398.302 255.953 395.895 260.312 394.249 265.143C392.603 269.975 391.751 275.179 391.746 280.439C391.696 281.231 391.805 282.025 392.063 282.749C392.196 283.11 392.418 283.407 392.696 283.594C392.974 283.782 393.293 283.85 393.604 283.789C394.246 283.572 394.562 282.701 394.811 281.915C397.789 272.3 399.216 262.431 401.917 252.405" fill="black"/>
</g>
<g opacity="0.3">
<path d="M431.48 200.18C432.919 202.069 434.188 204.154 435.263 206.396C436.351 208.65 436.825 211.292 436.613 213.919C436.326 216.507 434.889 218.067 432.964 219.277C432.792 212.709 432.964 206.275 431.25 200.204" fill="#FF725E"/>
</g>
<path d="M430.722 198.051C430.856 198.343 430.959 198.656 431.028 198.982C431.201 199.599 431.411 200.482 431.641 201.607C432.843 207.441 433.318 213.475 433.049 219.494C432.991 220.643 432.924 221.574 432.857 222.215C432.844 222.549 432.792 222.879 432.704 223.195C432.641 221.954 432.641 220.71 432.704 219.47C432.776 213.5 432.307 207.539 431.306 201.703C431.05 200.503 430.854 199.283 430.722 198.051Z" fill="#263238"/>
<path d="M391.545 215.682C390.883 214.577 390.353 213.354 389.975 212.053C389.456 210.843 389.078 209.543 388.854 208.195C389.511 209.303 390.036 210.525 390.415 211.824C390.943 213.031 391.324 214.331 391.545 215.682Z" fill="white"/>
<path d="M413.206 218.926C412.667 220.397 411.982 221.775 411.166 223.026C410.481 224.394 409.664 225.649 408.733 226.763C409.285 225.295 409.976 223.918 410.792 222.663C411.471 221.296 412.282 220.041 413.206 218.926Z" fill="white"/>
<path d="M422.477 199.685C421.583 199.082 420.771 198.302 420.073 197.375C419.273 196.596 418.572 195.666 417.995 194.617C418.883 195.225 419.691 196.005 420.389 196.927C421.196 197.701 421.901 198.632 422.477 199.685Z" fill="white"/>
<path d="M435.798 188.654C434.958 188.186 434.19 187.535 433.528 186.731C432.766 186.069 432.096 185.251 431.546 184.312C432.389 184.779 433.161 185.43 433.825 186.235C435.003 187.457 435.884 188.521 435.798 188.654Z" fill="white"/>
<path d="M440.827 208.725C440.872 207.638 441.07 206.569 441.411 205.569C441.612 204.508 441.966 203.504 442.455 202.605C442.416 203.694 442.218 204.764 441.871 205.762C441.672 206.823 441.318 207.828 440.827 208.725Z" fill="white"/>
<path d="M421.128 243.968C421.258 242.792 421.542 241.652 421.971 240.594C422.26 239.459 422.697 238.392 423.263 237.438C423.129 238.616 422.845 239.76 422.421 240.824C422.136 241.958 421.698 243.021 421.128 243.968Z" fill="white"/>
<path d="M395.633 244.724C394.766 243.664 394.012 242.465 393.392 241.156C392.639 239.968 392.02 238.653 391.554 237.25C392.417 238.312 393.167 239.511 393.785 240.818C394.535 242.011 395.156 243.325 395.633 244.724Z" fill="white"/>
<path d="M399.896 198.199C398.762 197.254 397.717 196.146 396.784 194.898C395.74 193.797 394.807 192.537 394.007 191.148C395.137 192.096 396.179 193.204 397.11 194.45C398.152 195.557 399.087 196.816 399.896 198.199Z" fill="white"/>
<path d="M381.204 198.27C380.434 199.17 379.601 199.979 378.714 200.688C377.925 201.569 377.072 202.355 376.167 203.035C376.758 201.904 377.527 200.941 378.427 200.205C379.236 199.322 380.182 198.663 381.204 198.27Z" fill="white"/>
<path d="M413.811 269.697C413.067 268.383 412.456 266.957 411.991 265.452C411.385 264.035 410.921 262.528 410.612 260.965C411.351 262.278 411.962 263.7 412.432 265.198C413.036 266.62 413.499 268.131 413.811 269.697Z" fill="white"/>
<path d="M395.54 282.053C395.435 282.15 394.726 281.085 393.96 279.634C393.431 278.826 393.028 277.898 392.772 276.901C392.887 276.804 393.596 277.88 394.353 279.319C394.888 280.122 395.292 281.051 395.54 282.053Z" fill="white"/>
<path d="M385.712 267.071C384.784 267.928 383.77 268.624 382.695 269.14C381.686 269.829 380.606 270.342 379.487 270.663C381.414 269.085 383.511 267.863 385.712 267.035V267.071Z" fill="white"/>
<path d="M378.8 305.902C378.444 304.432 378.188 302.927 378.033 301.403C377.724 299.915 377.513 298.398 377.401 296.867C378.396 299.709 378.874 302.796 378.8 305.902Z" fill="white"/>
<path d="M401.609 320.489C399.665 319.007 398.05 316.926 396.917 314.441C397.779 315.347 398.577 316.347 399.302 317.429C400.135 318.368 400.907 319.391 401.609 320.489Z" fill="white"/>
<path d="M418.005 299.553C417.42 298.384 416.974 297.113 416.683 295.78C416.237 294.516 415.943 293.175 415.812 291.801C416.396 292.97 416.842 294.241 417.133 295.574C417.574 296.841 417.867 298.181 418.005 299.553Z" fill="white"/>
<path d="M430.971 270.59C430.316 271.781 429.537 272.855 428.654 273.783C427.882 274.85 426.992 275.771 426.011 276.516C426.667 275.33 427.447 274.26 428.328 273.335C429.105 272.271 429.994 271.347 430.971 270.59Z" fill="white"/>
<path d="M424.439 334.976C424.314 335.048 423.615 333.392 422.524 331.541C421.805 330.473 421.13 329.359 420.503 328.203C421.477 328.948 422.303 329.966 422.916 331.178C423.656 332.273 424.178 333.575 424.439 334.976Z" fill="white"/>
<path d="M430.09 353.845C429.472 353.016 428.973 352.059 428.615 351.014C428.12 350.066 427.764 349.013 427.562 347.906C428.179 348.735 428.678 349.692 429.036 350.736C429.536 351.682 429.893 352.736 430.09 353.845Z" fill="white"/>
<path d="M432.819 307.5C432.895 307.633 432.426 308.298 431.746 308.975C431.066 309.653 430.463 310.112 430.386 309.979C430.31 309.846 430.779 309.193 431.449 308.504C432.119 307.814 432.751 307.367 432.819 307.5Z" fill="white"/>
<path d="M422.287 385.295C421.728 384.464 421.358 383.456 421.215 382.38C420.916 381.36 420.846 380.255 421.014 379.188C421.319 380.171 421.54 381.193 421.674 382.235C421.962 383.226 422.167 384.251 422.287 385.295Z" fill="white"/>
<path d="M414.184 360.16C413.337 361.063 412.388 361.801 411.369 362.349C410.425 363.089 409.398 363.644 408.323 363.994C409.179 363.104 410.13 362.371 411.148 361.817C412.092 361.084 413.115 360.526 414.184 360.16Z" fill="white"/>
<path d="M395.214 348.984C394.795 347.766 394.474 346.498 394.257 345.199C393.925 343.936 393.691 342.636 393.558 341.316C394.635 343.627 395.216 346.254 395.243 348.936L395.214 348.984Z" fill="white"/>
<path d="M376.615 361.59C375.607 362.408 374.491 362.99 373.32 363.307C372.197 363.816 371.008 364.05 369.815 363.997C370.911 363.447 372.042 363.018 373.196 362.715C374.309 362.22 375.452 361.844 376.615 361.59Z" fill="white"/>
<path d="M373.272 331.018C373.209 329.144 373.302 327.267 373.55 325.418C373.644 323.542 373.901 321.684 374.316 319.879C374.374 321.757 374.277 323.638 374.029 325.491C373.936 327.362 373.682 329.215 373.272 331.018Z" fill="white"/>
<path d="M355.394 347.95C354.353 347.315 353.386 346.501 352.521 345.532C351.563 344.715 350.697 343.738 349.945 342.629C350.989 343.26 351.956 344.074 352.818 345.048C353.783 345.853 354.651 346.831 355.394 347.95Z" fill="white"/>
<path d="M345.425 365.607C344.746 364.477 344.271 363.173 344.036 361.785C343.651 360.456 343.51 359.033 343.624 357.625C343.98 358.935 344.271 360.272 344.496 361.628C344.871 362.929 345.181 364.258 345.425 365.607Z" fill="white"/>
<path d="M360.242 377.657C357.154 377.46 354.089 376.864 351.097 375.879C354.185 376.073 357.25 376.669 360.242 377.657Z" fill="white"/>
<path d="M381.388 119.522C379.291 118.071 376.887 117.551 374.684 116.511C372.482 115.47 370.202 113.644 369.484 110.766C368.843 108.238 369.484 105.299 368.45 102.989C367.128 100.038 363.786 99.7237 361.229 100.764C359.43 101.384 357.864 102.795 356.815 104.743C356.316 105.732 356.087 106.899 356.163 108.068C356.24 109.236 356.616 110.341 357.236 111.213C355.966 110.484 354.519 110.421 353.212 111.039C351.906 111.657 350.847 112.905 350.269 114.509C349.691 116.113 349.642 117.941 350.131 119.591C350.621 121.241 351.609 122.578 352.879 123.308C351.059 124.94 350.858 128.472 351.921 130.939C353.146 133.328 354.95 135.152 357.064 136.14C361.209 138.396 365.731 139.33 370.23 138.859C374.729 138.389 379.067 136.529 382.863 133.443L384.941 126.754C385.257 123.779 383.475 120.985 381.388 119.522Z" fill="#263238"/>
<path d="M383.223 137.362C382.976 137.848 382.607 138.216 382.175 138.407C381.742 138.598 381.272 138.6 380.839 138.414C380.413 138.209 380.03 137.885 379.718 137.466C379.406 137.047 379.174 136.544 379.038 135.995C378.774 134.89 378.718 133.722 378.876 132.585C379.075 130.799 379.529 129.074 380.216 127.493C380.724 126.171 381.562 125.096 382.601 124.433C383.122 124.118 383.712 124.033 384.276 124.191C384.84 124.348 385.346 124.74 385.713 125.304C386.47 126.683 385.981 128.557 385.474 130.142C384.65 132.669 383.827 135.209 382.993 137.737" fill="#FF725E"/>
<path d="M426.02 153.389C425.464 150.97 423.654 149.253 422.993 146.858C421.758 142.407 424.909 137.485 423.855 132.949C423.271 130.385 421.499 128.595 419.9 126.902C418.488 125.569 417.394 123.77 416.74 121.702C416.7 121.364 416.645 121.029 416.577 120.698C416.577 120.601 416.577 120.504 416.577 120.395C416.481 119.914 416.359 119.442 416.213 118.98C415.436 116.536 414.157 114.396 412.509 112.781C410.861 111.166 408.902 110.134 406.834 109.791C404.765 109.447 402.662 109.805 400.739 110.827C398.817 111.849 397.144 113.498 395.892 115.606C395.433 116.392 395.03 117.227 394.609 118.025C393.128 120.038 391.421 121.765 389.543 123.153C388.978 123.48 388.413 123.806 387.877 124.181C387.313 124.58 386.795 125.072 386.335 125.644C384.343 127.386 382.61 129.793 382.284 132.78C381.959 135.767 383.242 139.057 382.725 142.141C382.399 144.282 381.288 146.072 380.666 148.104C379.382 152.216 380.235 157.005 382.131 160.718C383.352 163.108 384.967 165.137 386.865 166.667C388.764 168.197 390.902 169.192 393.133 169.583C395.363 169.975 397.635 169.754 399.792 168.936C401.949 168.118 403.941 166.721 405.631 164.842L409.855 168.047C410.688 168.253 411.444 168.422 412.134 168.567C414.578 169.044 417.078 168.556 419.295 167.171C421.511 165.786 423.334 163.57 424.516 160.827C424.602 160.645 424.679 160.464 424.765 160.295C425.79 158.263 426.556 155.735 426.02 153.389Z" fill="#263238"/>
<path d="M399.563 187.529C398.331 186.421 397.489 184.751 397.217 182.873L390.054 133.649C389.929 132.652 390.105 131.632 390.546 130.79C390.988 129.948 391.663 129.346 392.438 129.101L408.641 120.805C413.937 119.136 418.428 126.852 419.52 133.625C420.727 141.135 421.972 150.351 421.886 156.132C421.704 167.743 414.971 170.391 414.971 170.391C414.971 170.391 415.23 172.605 416.216 182.752C416.216 182.752 415.259 190.504 409.35 191.52C405.548 192.173 401.766 189.5 399.563 187.529Z" fill="#B57F76"/>
<path d="M416.54 142.782C416.587 143.164 416.513 143.553 416.333 143.866C416.154 144.179 415.884 144.389 415.582 144.451C415.437 144.492 415.288 144.496 415.142 144.462C414.996 144.428 414.857 144.358 414.733 144.256C414.609 144.153 414.502 144.02 414.42 143.865C414.337 143.709 414.279 143.535 414.251 143.351C414.204 142.969 414.278 142.58 414.458 142.267C414.637 141.955 414.907 141.744 415.209 141.682C415.353 141.641 415.503 141.638 415.649 141.671C415.795 141.705 415.934 141.775 416.058 141.878C416.182 141.98 416.289 142.113 416.371 142.268C416.454 142.424 416.511 142.599 416.54 142.782Z" fill="#263238"/>
<path d="M418.071 137.75C417.947 137.968 416.98 137.302 415.744 137.532C414.509 137.762 413.676 138.742 413.522 138.524C413.369 138.306 413.522 138.076 413.915 137.653C414.399 137.083 415.012 136.72 415.668 136.613C416.325 136.489 416.997 136.637 417.583 137.036C417.966 137.339 418.129 137.653 418.071 137.75Z" fill="#263238"/>
<path d="M404.618 145.247C404.665 145.627 404.59 146.015 404.411 146.326C404.231 146.637 403.961 146.845 403.66 146.904C403.516 146.945 403.366 146.948 403.22 146.915C403.074 146.881 402.935 146.811 402.811 146.708C402.687 146.606 402.58 146.473 402.498 146.317C402.415 146.162 402.358 145.987 402.329 145.803C402.282 145.422 402.357 145.033 402.536 144.72C402.715 144.407 402.985 144.197 403.287 144.134C403.432 144.094 403.583 144.091 403.729 144.125C403.875 144.16 404.015 144.231 404.139 144.335C404.263 144.438 404.37 144.573 404.452 144.729C404.534 144.886 404.591 145.062 404.618 145.247Z" fill="#263238"/>
<path d="M406.282 140.861C406.158 141.078 405.2 140.413 403.955 140.643C402.71 140.873 401.896 141.852 401.734 141.635C401.571 141.417 401.734 141.199 402.126 140.764C402.611 140.197 403.223 139.834 403.879 139.724C404.537 139.597 405.209 139.746 405.794 140.147C406.177 140.45 406.349 140.764 406.282 140.861Z" fill="#263238"/>
<path d="M412.067 151.994C412.689 151.612 413.349 151.339 414.03 151.184C414.346 151.087 414.633 150.954 414.662 150.664C414.653 150.224 414.532 149.8 414.317 149.455C413.915 148.535 413.494 147.58 413.044 146.576C411.893 144.144 410.897 141.6 410.065 138.969C411.368 141.268 412.524 143.695 413.523 146.225L414.758 149.14C415.01 149.586 415.129 150.13 415.093 150.676C415.065 150.826 415.01 150.965 414.932 151.082C414.854 151.2 414.755 151.293 414.643 151.353C414.473 151.451 414.292 151.516 414.107 151.547C413.444 151.801 412.759 151.951 412.067 151.994Z" fill="#263238"/>
<path d="M414.969 170.396C410.741 171.224 406.414 170.55 402.472 168.449C402.472 168.449 406.369 175.706 415.256 173.093L414.969 170.396Z" fill="#875453"/>
<path d="M406.274 135.93C406.197 136.378 404.933 136.39 403.496 136.862C402.06 137.333 400.949 138.071 400.71 137.696C400.604 137.539 400.767 137.104 401.198 136.596C401.775 135.977 402.457 135.534 403.191 135.301C403.925 135.068 404.691 135.052 405.431 135.253C406.005 135.422 406.302 135.701 406.274 135.93Z" fill="#263238"/>
<path d="M417.497 134.265C417.325 134.664 416.424 134.447 415.39 134.604C414.356 134.761 413.523 135.172 413.283 134.846C413.044 134.519 413.283 134.289 413.619 133.89C414.077 133.384 414.65 133.075 415.256 133.007C415.864 132.915 416.48 133.063 417.018 133.431C417.42 133.733 417.574 134.072 417.497 134.265Z" fill="#263238"/>
<path d="M410.113 118.031C403.502 120.202 397.12 123.365 391.104 127.453C389.639 128.236 388.404 129.576 387.57 131.287C386.842 133.198 387.13 135.435 387.427 137.515C388.901 147.566 390.367 157.628 391.803 167.461C392.937 167.273 394.026 166.781 394.997 166.018C395.968 165.255 396.799 164.239 397.433 163.038C398.068 161.836 398.492 160.477 398.677 159.052C398.862 157.627 398.804 156.168 398.506 154.774C397.922 152.028 396.419 149.392 396.907 146.622C397.539 142.994 401.303 141.204 401.954 137.551C402.327 135.423 401.533 133.137 402.002 131.033C402.471 128.928 403.869 127.719 405.315 126.763C406.816 125.99 408.212 124.924 409.452 123.607C410.582 122.119 411.119 119.628 410.113 118.031Z" fill="#263238"/>
<path d="M413.178 156.775C413.064 157.487 412.871 158.175 412.603 158.819C412.471 159.14 412.285 159.422 412.058 159.645C411.832 159.868 411.571 160.028 411.291 160.113C410.987 160.168 410.676 160.126 410.388 159.988C410.099 159.851 409.844 159.623 409.644 159.327C409.254 158.721 409.023 157.977 408.984 157.198C408.936 156.509 409.098 155.638 409.635 155.469C409.857 155.391 410.092 155.391 410.315 155.469L413.331 156.448" fill="#875453"/>
<path d="M412.356 159.892C411.843 160.013 411.317 160.013 410.804 159.892C410.277 159.729 409.814 159.33 409.502 158.768C409.326 158.422 409.209 158.033 409.159 157.627C409.11 157.221 409.129 156.806 409.215 156.409C409.257 156.205 409.321 156.01 409.406 155.829C409.502 155.659 409.483 155.659 409.607 155.671C409.769 155.709 409.929 155.758 410.086 155.817L410.584 155.974L412.308 156.506C412.831 156.718 413.377 156.824 413.926 156.82C413.454 156.466 412.94 156.209 412.404 156.059L410.709 155.393L410.22 155.212C410.038 155.137 409.853 155.076 409.665 155.03C409.52 155 409.371 155.034 409.243 155.127C409.125 155.213 409.029 155.338 408.966 155.49C408.857 155.721 408.773 155.969 408.717 156.228C408.611 156.715 408.592 157.226 408.661 157.724C408.731 158.222 408.887 158.694 409.119 159.106C409.309 159.434 409.55 159.709 409.826 159.917C410.103 160.125 410.409 160.26 410.728 160.316C411.146 160.41 411.577 160.355 411.973 160.158C412.25 160.122 412.365 159.977 412.356 159.892Z" fill="#263238"/>
<path d="M297.916 270.126C297.916 270.126 297.466 263.619 298.979 261.369C300.492 259.12 309.963 245.574 309.963 245.574C309.963 245.574 312.022 246.191 310.691 249.626C310.118 251.216 309.479 252.766 308.776 254.27L307.062 259.652L315.518 265.348C315.518 265.348 311.457 275.411 309.121 276.451C307.475 277.109 305.762 277.46 304.036 277.491L301.23 282.559L294.469 275.096L297.916 270.126Z" fill="#FFBE9D"/>
<path d="M318.095 249.945L308.797 254.227L305.32 262.233L308.71 270.699C308.71 270.699 310.262 270.893 310.425 269.417C310.37 266.908 310.181 264.407 309.86 261.931L317.023 258.363C317.023 258.363 316.62 265.112 317.549 267.071C318.478 269.03 320.422 267.954 320.422 267.954C320.183 266.323 320.183 264.65 320.422 263.019C320.805 260.225 324.531 254.638 324.531 254.638L318.095 249.945Z" fill="#B57F76"/>
<path d="M318.533 263.579C318.533 263.579 319.079 260.737 318.533 259.854C318.131 259.201 314.435 256.564 312.558 255.258C312.192 255 311.772 254.893 311.356 254.954C310.939 255.015 310.549 255.24 310.24 255.597C309.809 256.117 309.675 256.286 309.953 256.867C310.575 258.076 315.201 262.297 315.201 262.297L315.296 265.925C315.296 265.925 318.294 266.046 318.533 263.579Z" fill="#FFBE9D"/>
<path d="M316.342 266.326C316.342 266.326 316.888 263.472 316.342 262.589C315.797 261.706 308.978 257.594 308.978 257.594C308.978 257.594 306.958 258.803 307.58 260.013C308.202 261.222 313.01 265.008 313.01 265.008L313.106 268.636C313.106 268.636 316.103 268.817 316.342 266.326Z" fill="#FFBE9D"/>
<path d="M313.975 269.114C313.975 269.114 314.521 266.272 313.975 265.389C313.554 264.699 309.312 262.051 307.463 260.914C307.155 260.717 306.806 260.644 306.464 260.704C306.121 260.765 305.802 260.956 305.548 261.252C305.175 261.688 304.897 262.256 305.184 262.849C305.807 264.119 310.614 267.832 310.614 267.832L310.71 271.46C310.71 271.46 313.736 271.581 313.975 269.114Z" fill="#FFBE9D"/>
<path d="M310.393 267.659C309.702 267.282 309.045 266.816 308.43 266.268C307.836 265.796 307.128 265.216 306.352 264.502C305.926 264.143 305.526 263.739 305.155 263.293C305.044 263.128 304.963 262.934 304.918 262.725C304.873 262.516 304.866 262.297 304.896 262.083C304.967 261.658 305.162 261.283 305.442 261.031C305.622 260.833 305.832 260.684 306.06 260.593C306.287 260.501 306.526 260.469 306.764 260.499C307.222 260.553 307.667 260.717 308.076 260.983C309.397 261.841 310.489 262.809 311.609 263.498C312.669 264.091 313.541 265.112 314.09 266.401C314.412 267.306 314.443 268.334 314.176 269.267C313.975 269.92 313.707 270.15 313.697 270.126C313.687 270.102 313.86 269.812 313.994 269.195C314.166 268.317 314.084 267.391 313.764 266.582C313.209 265.435 312.381 264.538 311.399 264.018C310.269 263.353 309.1 262.349 307.865 261.6C307.558 261.333 307.196 261.185 306.824 261.174C306.451 261.164 306.084 261.29 305.768 261.539C305.679 261.606 305.603 261.696 305.544 261.803C305.485 261.909 305.444 262.031 305.425 262.159C305.406 262.287 305.409 262.419 305.433 262.546C305.458 262.672 305.503 262.791 305.567 262.894C305.903 263.335 306.268 263.739 306.658 264.103C307.405 264.841 308.095 265.458 308.66 265.966C309.277 266.462 309.857 267.029 310.393 267.659Z" fill="#EB996E"/>
<path d="M312.772 264.654C312.077 264.291 311.419 263.829 310.809 263.275C310.205 262.791 309.497 262.223 308.721 261.509C308.297 261.153 307.899 260.748 307.533 260.3C307.417 260.138 307.333 259.945 307.286 259.735C307.24 259.525 307.233 259.304 307.265 259.09C307.334 258.661 307.534 258.283 307.821 258.038C307.998 257.839 308.206 257.687 308.432 257.594C308.658 257.5 308.896 257.466 309.133 257.494C309.594 257.553 310.042 257.721 310.454 257.99C311.766 258.836 312.868 259.804 313.988 260.505C315.04 261.101 315.908 262.117 316.459 263.396C316.783 264.304 316.817 265.335 316.554 266.274C316.344 266.927 316.076 267.157 316.066 267.133C316.056 267.109 316.229 266.818 316.363 266.19C316.539 265.313 316.461 264.387 316.143 263.577C315.581 262.432 314.751 261.536 313.768 261.013C312.647 260.348 311.479 259.356 310.234 258.594C309.929 258.328 309.569 258.18 309.199 258.167C308.828 258.154 308.463 258.277 308.146 258.522C308.056 258.586 307.977 258.674 307.916 258.781C307.855 258.887 307.814 259.009 307.794 259.138C307.773 259.266 307.776 259.399 307.8 259.527C307.825 259.654 307.871 259.773 307.936 259.876C308.274 260.315 308.639 260.719 309.027 261.086C309.774 261.811 310.464 262.428 311.038 262.948C311.65 263.46 312.229 264.03 312.772 264.654Z" fill="#EB996E"/>
<path d="M315.136 261.666C314.445 261.29 313.788 260.824 313.173 260.275C312.579 259.804 311.871 259.223 311.085 258.51C310.662 258.151 310.265 257.746 309.898 257.3C309.784 257.137 309.701 256.943 309.655 256.734C309.608 256.525 309.6 256.305 309.63 256.091C309.7 255.663 309.899 255.286 310.185 255.039C310.364 254.838 310.574 254.686 310.801 254.593C311.028 254.499 311.269 254.466 311.507 254.494C311.964 254.55 312.409 254.714 312.819 254.978C314.14 255.837 315.232 256.804 316.352 257.506C317.408 258.094 318.278 259.112 318.823 260.396C319.147 261.304 319.181 262.335 318.919 263.275C318.833 263.619 318.662 263.92 318.43 264.133C318.43 264.133 318.603 263.807 318.737 263.19C318.909 262.313 318.827 261.386 318.507 260.578C317.95 259.427 317.119 258.53 316.132 258.014C315.012 257.349 313.843 256.357 312.608 255.595C312.296 255.337 311.932 255.2 311.559 255.2C311.187 255.2 310.822 255.337 310.511 255.595C310.421 255.662 310.344 255.752 310.284 255.86C310.224 255.967 310.182 256.089 310.162 256.218C310.142 256.348 310.144 256.481 310.168 256.609C310.192 256.737 310.237 256.857 310.3 256.962C310.642 257.4 311.01 257.804 311.401 258.171C312.148 258.897 312.838 259.513 313.403 260.033C314.012 260.522 314.592 261.068 315.136 261.666Z" fill="#EB996E"/>
<path d="M307.841 254.805C307.668 255.688 307.417 256.544 307.094 257.357L306.136 260.054C305.954 260.574 305.762 261.094 305.561 261.638C305.338 262.134 305.231 262.701 305.255 263.271C305.337 263.861 305.472 264.437 305.657 264.988C305.807 265.552 305.919 266.13 305.992 266.718C306.117 267.715 306.117 268.731 305.992 269.729C305.928 270.656 305.678 271.547 305.264 272.317C305.188 272.317 305.513 271.313 305.638 269.681C305.708 268.724 305.676 267.76 305.542 266.814C305.46 266.264 305.344 265.722 305.197 265.194C304.989 264.6 304.844 263.973 304.766 263.331C304.723 262.651 304.846 261.971 305.121 261.384L305.715 259.812C306.088 258.88 306.433 257.998 306.749 257.175C307.035 256.332 307.402 255.536 307.841 254.805Z" fill="#EB996E"/>
<path d="M181.45 524.248L178.96 546.61C178.96 546.61 197.156 555.621 197.318 559.914L161.886 559.092L164.845 523.184L181.45 524.248Z" fill="#FF725E"/>
<path d="M168.033 544.416C167.69 544.54 167.395 544.82 167.204 545.201C167.014 545.583 166.941 546.039 166.999 546.484C167.086 546.919 167.3 547.296 167.599 547.539C167.898 547.782 168.259 547.871 168.608 547.79C168.972 547.662 169.286 547.366 169.486 546.961C169.686 546.556 169.759 546.071 169.69 545.601C169.566 545.156 169.31 544.789 168.976 544.577C168.642 544.365 168.256 544.325 167.899 544.464" fill="#E0E0E0"/>
<path d="M161.875 559.078L162.028 555.449L195.948 557.59C195.948 557.59 197.518 558.497 197.317 559.888L161.875 559.078Z" fill="#263238"/>
<path d="M179.543 546.401C179.543 546.619 178.662 546.691 177.8 547.381C176.939 548.07 176.469 548.965 176.316 548.88C176.163 548.796 176.431 547.526 177.494 546.728C178.557 545.929 179.582 546.195 179.543 546.401Z" fill="#263238"/>
<path d="M183.23 548.426C183.23 548.644 182.512 548.995 181.909 549.914C181.306 550.833 181.124 551.789 180.951 551.777C180.779 551.764 180.683 550.567 181.449 549.418C182.215 548.269 183.23 548.221 183.23 548.426Z" fill="#263238"/>
<path d="M185.261 554.095C185.098 554.095 184.878 553.042 185.337 551.857C185.797 550.672 186.62 550.212 186.687 550.394C186.755 550.575 186.247 551.204 185.883 552.184C185.519 553.163 185.433 554.083 185.261 554.095Z" fill="#263238"/>
<path d="M84.239 441.234L66.5801 444.863C66.5801 444.863 65.1149 469.487 61.9259 470.926L52.1484 427.858L80.1882 420.855L84.239 441.234Z" fill="#FF725E"/>
<path d="M65.0874 430.961C64.8897 430.571 64.5825 430.289 64.2274 430.172C63.8723 430.056 63.4954 430.113 63.1721 430.332C62.8653 430.56 62.6401 430.929 62.5437 431.362C62.4473 431.795 62.4872 432.258 62.655 432.654C62.8602 433.054 63.1755 433.344 63.54 433.466C63.9045 433.589 64.2921 433.537 64.6277 433.32C64.9283 433.037 65.1302 432.618 65.1909 432.151C65.2517 431.684 65.1665 431.205 64.9533 430.816" fill="#E0E0E0"/>
<path d="M52.1484 427.852L54.9352 426.969L63.2954 468.537C63.2954 468.537 63.0655 470.702 61.9547 470.871L52.1484 427.852Z" fill="#263238"/>
<path d="M66.9434 445.437C66.771 445.437 66.455 444.47 65.6889 443.635C64.9228 442.801 64.1279 442.498 64.1279 442.281C64.1279 442.063 65.1813 442.027 66.1007 443.055C67.02 444.083 67.1062 445.425 66.9434 445.437Z" fill="#263238"/>
<path d="M66.4934 450.493C66.3402 450.589 65.8518 449.791 64.9804 449.283C64.1089 448.775 63.3237 448.884 63.2853 448.678C63.247 448.473 64.1568 447.989 65.2006 448.582C66.2445 449.174 66.6467 450.42 66.4934 450.493Z" fill="#263238"/>
<path d="M62.7973 454.607C62.7207 454.426 63.4868 453.833 64.521 454.039C65.5553 454.244 66.1394 455.103 66.0245 455.248C65.9096 455.393 65.2776 454.958 64.4253 454.801C63.573 454.644 62.8643 454.813 62.7973 454.607Z" fill="#263238"/>
<path d="M161.807 326.797L121.586 392.771L65.1719 420.758L70.8315 448.829C70.8315 448.829 129.535 430.034 141.142 423.189C150.316 417.77 186.562 363.08 186.562 363.08L175.837 327.498L161.807 326.797Z" fill="#263238"/>
<path d="M214.179 362.353L183.343 344.309L176.314 356.052L170.807 452.976L161.394 542.474H186.704L201.298 461.333C201.298 461.333 209.553 401.14 210.779 389.916C211.816 380.86 213.371 371.911 215.433 363.139L214.179 362.353Z" fill="#263238"/>
<path d="M167.792 337.301C167.486 337.961 167.076 338.533 166.585 338.982C165.459 340.175 164.157 341.075 162.755 341.631C161.357 342.189 159.887 342.399 158.426 342.247C157.817 342.24 157.216 342.067 156.664 341.739C158.66 342.035 160.684 341.792 162.6 341.027C164.517 340.261 166.283 338.992 167.782 337.301H167.792Z" fill="#455A64"/>
<path d="M184.465 364.152C184.465 364.152 184.379 364.382 184.178 364.769C183.977 365.156 183.67 365.712 183.22 366.426C182.416 367.865 181.228 369.921 179.715 372.473C176.699 377.48 172.361 384.217 167.333 391.401C162.305 398.585 157.546 404.862 154.012 409.288C152.26 411.526 150.795 413.255 149.779 414.465L148.611 415.843C148.333 416.158 148.19 416.315 148.18 416.291C148.171 416.267 148.286 416.097 148.535 415.759L149.645 414.295C150.603 413.025 152.04 411.248 153.763 408.974C157.23 404.475 161.951 398.174 166.96 390.99C171.968 383.806 176.354 377.13 179.409 372.207L183.038 366.341L183.996 364.745C184.131 364.522 184.289 364.323 184.465 364.152Z" fill="#455A64"/>
<path d="M209.69 380.178C209.047 380.226 208.405 380.068 207.823 379.719C206.357 378.985 205.095 377.723 204.193 376.091C203.301 374.465 202.811 372.541 202.786 370.563C202.725 369.739 202.827 368.908 203.082 368.145C203.169 368.145 203.082 369.064 203.14 370.503C203.25 372.364 203.752 374.153 204.594 375.687C205.436 377.22 206.587 378.441 207.928 379.223C208.962 379.912 209.69 380.082 209.69 380.178Z" fill="#455A64"/>
<path d="M251.883 296.978C251.883 296.978 258.146 319.365 267.09 323.912C269.184 324.878 271.42 325.255 273.641 325.017C275.863 324.779 278.016 323.931 279.951 322.534C282.824 319.933 304.055 276.902 304.055 276.902L294.852 274.652L273.947 300.292L269.475 286.71L251.883 296.978Z" fill="#FFBE9D"/>
<path d="M178.702 259.066C178.702 259.066 164.701 270.314 160.631 274.789C157.547 278.2 143.393 294.503 136.69 302.219L133.156 306.295L138.758 318.183C138.758 318.183 164.682 300.187 170.811 292.483C176.94 284.779 189.647 270.616 189.647 270.616L178.702 259.066Z" fill="#FFBE9D"/>
<path d="M129.802 311.405C128.653 314.331 119.756 331.687 119.756 331.687L117.219 344.519L120.685 356.045C121.337 355.283 121.746 354.246 121.835 353.13L122.649 355.307C123.148 355.035 123.576 354.589 123.883 354.022C124.19 353.454 124.363 352.789 124.382 352.102C124.382 349.768 123.51 341.749 123.51 341.749L126.805 334.601L129.802 333.731C129.802 333.731 125.972 343.213 128.768 345.245C128.927 345.385 129.111 345.475 129.303 345.506C129.496 345.537 129.691 345.509 129.873 345.423C130.055 345.337 130.218 345.197 130.347 345.014C130.477 344.831 130.569 344.612 130.616 344.374C131.191 342.475 131.995 338.242 132.349 337.371C132.704 336.5 135.95 329.933 135.95 329.933L136.755 319.871L138.756 318.19L133.154 306.301L129.802 311.405Z" fill="#FFBE9D"/>
<path d="M206.471 227.627C206.471 227.627 198.58 226.986 192.729 233.408C186.877 239.83 171.383 258.419 171.383 258.419L191.991 277.069L204.718 254.888L206.471 227.627Z" fill="#FF725E"/>
<path d="M252.075 248.181L247.641 243.525L228.153 231.249L206.472 227.621L192.826 266.601L186.879 283.872L159.644 325.984C159.644 325.984 173.807 349.907 187.932 360.199C202.057 370.491 217.169 363.585 217.169 363.585L249.729 293.729L252.42 305.823C256.518 307.359 274.216 294.079 274.216 294.079C274.216 294.079 269.753 281.453 266.104 271.1C262.985 262.124 258.168 254.254 252.075 248.181Z" fill="#FF725E"/>
<g opacity="0.3">
<path d="M256.996 277.355L252.428 305.717L249.756 293.78L256.996 277.355Z" fill="black"/>
</g>
<path d="M259.335 271.438C259.306 271.641 259.251 271.837 259.173 272.018L258.598 273.614C258.1 275.005 257.334 276.989 256.357 279.408C254.394 284.245 251.569 290.873 248.188 298.045C244.808 305.217 241.715 311.615 239.455 316.259C238.353 318.509 237.444 320.371 236.764 321.738L236.017 323.213C235.939 323.394 235.842 323.561 235.729 323.709C235.776 323.513 235.844 323.326 235.931 323.153L236.601 321.617C237.185 320.286 238.066 318.376 239.158 316.029C241.389 311.264 244.415 304.83 247.777 297.718C251.138 290.607 254.03 284.003 256.06 279.202C257.018 276.868 257.841 274.933 258.445 273.506C258.703 272.889 258.924 272.381 259.096 271.958C259.163 271.775 259.243 271.601 259.335 271.438Z" fill="#263238"/>
<path d="M196.601 259.221C195.893 258.597 195.224 257.905 194.599 257.153C193.392 255.847 191.726 254.069 189.811 252.218C187.896 250.368 186.057 248.808 184.726 247.695C183.98 247.146 183.272 246.519 182.609 245.82C183.421 246.205 184.195 246.704 184.917 247.308C186.708 248.658 188.441 250.127 190.108 251.71C191.778 253.301 193.377 255.009 194.896 256.826C195.535 257.539 196.107 258.342 196.601 259.221Z" fill="white"/>
<path d="M204.412 238.509C204.537 238.593 200.716 248.801 195.87 261.319C191.025 273.836 187.002 283.923 186.878 283.85C186.753 283.778 190.536 273.582 195.42 261.004C200.304 248.426 204.288 238.4 204.412 238.509Z" fill="#263238"/>
<path d="M242.145 310.574C241.953 310.515 241.767 310.43 241.59 310.32L240.01 309.462C238.65 308.7 236.687 307.587 234.264 306.172C231.841 304.757 228.987 303.052 225.875 300.983C222.53 298.651 219.297 296.07 216.193 293.255L198.956 278.536L193.775 274.013L192.386 272.804C192.215 272.672 192.057 272.513 191.917 272.332C192.101 272.432 192.278 272.553 192.444 272.695L193.89 273.904L199.157 278.258L216.394 292.771C219.474 295.567 222.671 298.151 225.971 300.512C229.064 302.592 231.918 304.346 234.302 305.809L239.971 309.268L241.504 310.236C241.729 310.311 241.944 310.425 242.145 310.574Z" fill="white"/>
<path d="M253.902 281.853C253.707 281.783 253.52 281.681 253.346 281.551L251.795 280.571L246.135 276.943L227.547 264.522L209.027 251.956L203.444 248.074L201.94 246.997C201.761 246.882 201.591 246.744 201.433 246.586C201.627 246.656 201.814 246.758 201.988 246.888L203.539 247.856L209.199 251.557L227.787 263.905L246.298 276.471L251.891 280.341L253.394 281.43C253.574 281.549 253.744 281.691 253.902 281.853Z" fill="white"/>
<path d="M261.632 259.42C261.575 259.577 250.409 252.744 236.734 244.169C223.059 235.594 211.969 228.519 212.027 228.362C212.084 228.205 223.25 235.026 236.925 243.613C250.6 252.2 261.69 259.263 261.632 259.42Z" fill="white"/>
<path d="M269.063 282.691C268.185 283.334 267.276 283.907 266.343 284.409C264.657 285.425 262.349 286.9 259.888 288.726C257.427 290.553 255.273 292.355 253.74 293.709C252.939 294.495 252.097 295.214 251.222 295.862C251.925 294.932 252.698 294.09 253.53 293.347C255.476 291.461 257.517 289.736 259.639 288.182C261.755 286.615 263.945 285.218 266.199 283.998C267.118 283.445 268.077 283.008 269.063 282.691Z" fill="white"/>
<path d="M229.983 334.347C229.782 334.321 229.585 334.26 229.398 334.165C229.025 334.02 228.441 333.803 227.78 333.464C225.818 332.52 223.917 331.388 222.092 330.078C217.428 326.824 211.653 321.055 205.323 314.742L189.101 298.487L184.217 293.504L182.876 292.126C182.713 291.98 182.568 291.805 182.445 291.605C182.621 291.727 182.788 291.869 182.943 292.029L184.313 293.311L189.292 298.149L205.572 314.258C211.912 320.583 217.619 326.352 222.216 329.703C224.014 331.039 225.879 332.227 227.799 333.258C229.216 333.972 229.992 334.286 229.983 334.347Z" fill="white"/>
<path d="M219.734 357.03C219.529 356.974 219.328 356.901 219.131 356.812L217.416 356.098C216.67 355.796 215.769 355.397 214.735 354.889C213.701 354.381 212.504 353.825 211.221 353.111C208.635 351.744 205.609 349.942 202.334 347.765C199.058 345.588 195.554 342.928 192.001 339.904C188.448 336.881 185.24 333.688 182.424 330.688C179.609 327.689 177.167 324.762 175.204 322.222C174.246 321.013 173.365 319.803 172.599 318.763C171.833 317.723 171.21 316.828 170.684 316.066L169.525 314.325C169.381 314.13 169.256 313.915 169.151 313.684C169.313 313.854 169.463 314.04 169.601 314.24L170.827 315.909C171.354 316.635 172.005 317.53 172.743 318.521C173.48 319.513 174.38 320.698 175.395 321.908C177.378 324.399 179.839 327.229 182.664 330.241C185.489 333.252 188.735 336.288 192.24 339.384C195.745 342.48 199.269 345.008 202.506 347.245C205.743 349.483 208.759 351.297 211.326 352.7C212.59 353.438 213.768 354.018 214.793 354.562C215.817 355.107 216.708 355.542 217.445 355.881L219.121 356.703C219.335 356.782 219.54 356.891 219.734 357.03Z" fill="white"/>
<path d="M273.852 207.334C272.895 204.758 271.678 202.145 271.88 199.327C272.062 196.739 273.469 194.284 273.038 191.744C272.512 188.612 269.495 187.064 268.652 184.04C268.25 182.577 268.413 180.932 268.02 179.468C267.35 176.965 265.214 175.55 263.165 175.042C261.116 174.534 258.971 174.703 256.94 174.111C254.144 173.288 251.587 171.075 248.714 171.051C245.554 171.051 242.968 173.578 240.344 175.985L237.002 178.67C236.349 179.108 235.663 179.461 234.953 179.722C233.684 180.006 232.44 180.444 231.237 181.029C230.643 181.452 230.122 182.023 229.707 182.707C229.292 183.39 228.99 184.173 228.82 185.008C228.65 185.843 228.615 186.712 228.718 187.564C228.821 188.416 229.059 189.233 229.418 189.966C228.257 190.017 227.139 190.536 226.229 191.448C225.318 192.36 224.664 193.617 224.361 195.034C224.162 196.634 224.117 198.258 224.227 199.872C224.348 201.483 224.008 203.096 223.27 204.419C223.075 204.731 222.833 204.991 222.558 205.184C222.283 205.377 221.98 205.499 221.667 205.543C221.354 205.587 221.038 205.552 220.736 205.44C220.434 205.328 220.153 205.141 219.908 204.891C219.858 205.961 219.999 207.032 220.321 208.024C220.643 209.016 221.136 209.904 221.766 210.623C221.005 211.146 220.115 211.285 219.276 211.01C219.899 218.461 225.108 224.254 230.768 226.467C236.428 228.68 242.518 228.076 248.417 227.422L264.898 228.293C266.335 228.414 267.388 226.576 267.771 224.834C268.154 223.093 268.26 221.145 269.141 219.718C270.347 217.747 272.684 217.36 273.929 215.413C275.298 213.187 274.752 209.922 273.852 207.334Z" fill="#263238"/>
<path d="M233.466 211.03C233.309 206.247 233.479 201.456 233.973 196.71C234.482 191.944 235.916 187.411 238.149 183.515C238.493 182.947 241.194 179.222 241.721 179.512C242.247 179.802 240.102 183.382 240.198 183.89C240.951 188.778 240.51 193.839 238.934 198.404C237.489 202.856 235.655 207.091 233.466 211.03Z" fill="#263238"/>
<path d="M257.227 177.958L256.403 177.571C247.315 174.088 239.894 181.888 237.375 193.463L227.214 232.721C226.347 236.06 226.509 239.69 227.669 242.885C228.828 246.08 230.899 248.605 233.468 249.955C234.857 250.687 236.349 251.053 237.854 251.031C239.359 251.009 240.845 250.6 242.22 249.827C243.595 249.055 244.831 247.937 245.852 246.541C246.873 245.144 247.658 243.5 248.158 241.707C248.685 239.82 249.049 238.538 249.049 238.538C249.049 238.538 258.098 240.848 261.354 230.072C262.934 224.884 265.491 213.842 267.713 203.828C268.854 198.64 268.409 193.101 266.466 188.309C264.524 183.517 261.226 179.822 257.227 177.958Z" fill="#FFBE9D"/>
<path d="M249.049 238.505C245.104 236.654 241.661 233.413 239.128 229.168C239.128 229.168 239.339 238.662 248.159 241.673L249.049 238.505Z" fill="#EB996E"/>
<path d="M263.06 210.86C262.945 211.261 262.711 211.591 262.407 211.778C262.103 211.965 261.754 211.996 261.432 211.864C261.272 211.808 261.123 211.713 260.992 211.583C260.862 211.453 260.754 211.291 260.675 211.107C260.595 210.923 260.546 210.72 260.529 210.512C260.513 210.303 260.53 210.092 260.58 209.892C260.693 209.489 260.927 209.157 261.231 208.967C261.535 208.777 261.885 208.745 262.208 208.877C262.368 208.933 262.518 209.03 262.649 209.161C262.779 209.293 262.887 209.456 262.966 209.641C263.046 209.826 263.095 210.029 263.111 210.238C263.127 210.448 263.11 210.659 263.06 210.86Z" fill="#263238"/>
<path d="M264.572 207.489C264.361 207.622 263.691 206.28 262.369 205.723C261.048 205.167 259.851 205.493 259.764 205.227C259.678 204.961 259.985 204.804 260.511 204.623C261.227 204.387 261.984 204.438 262.676 204.768C263.357 205.086 263.943 205.665 264.352 206.425C264.639 207.066 264.668 207.441 264.572 207.489Z" fill="#263238"/>
<path d="M250.794 205.982C250.681 206.389 250.446 206.723 250.14 206.913C249.834 207.103 249.481 207.134 249.157 206.998C248.997 206.94 248.848 206.842 248.718 206.711C248.589 206.579 248.481 206.416 248.402 206.232C248.323 206.047 248.273 205.845 248.256 205.636C248.24 205.427 248.256 205.216 248.304 205.015C248.421 204.613 248.657 204.283 248.963 204.096C249.268 203.909 249.619 203.878 249.942 204.011C250.101 204.068 250.25 204.164 250.38 204.295C250.509 204.425 250.617 204.587 250.696 204.771C250.775 204.954 250.825 205.156 250.842 205.364C250.859 205.572 250.842 205.782 250.794 205.982Z" fill="#263238"/>
<path d="M251.501 202.231C251.291 202.364 250.62 201.021 249.299 200.453C247.977 199.884 246.78 200.223 246.694 199.957C246.608 199.691 246.914 199.546 247.451 199.352C248.164 199.123 248.915 199.174 249.605 199.497C250.291 199.812 250.879 200.397 251.281 201.166C251.568 201.687 251.597 202.11 251.501 202.231Z" fill="#263238"/>
<path d="M252.487 217.114C253.261 217.166 254.026 217.336 254.766 217.622C255.111 217.731 255.456 217.791 255.6 217.537C255.751 217.109 255.801 216.634 255.743 216.171C255.743 214.961 255.743 213.752 255.743 212.482C255.743 207.245 255.81 203 255.973 203C256.136 203 256.308 207.245 256.347 212.482V216.171C256.408 216.784 256.296 217.405 256.031 217.924C255.936 218.046 255.823 218.141 255.697 218.204C255.572 218.267 255.437 218.295 255.303 218.287C255.098 218.257 254.895 218.201 254.699 218.118C253.931 217.903 253.188 217.566 252.487 217.114Z" fill="#263238"/>
<path d="M248.283 216.46C248.503 216.545 247.977 218.347 248.829 220.197C249.681 222.048 251.252 222.543 251.194 222.809C251.137 223.076 250.754 223.003 250.103 222.725C249.264 222.346 248.557 221.611 248.101 220.645C247.664 219.712 247.534 218.601 247.737 217.548C247.9 216.738 248.187 216.399 248.283 216.46Z" fill="#263238"/>
<path d="M253.397 195.395C253.138 195.782 251.883 194.96 250.275 194.476C248.666 193.992 247.258 193.944 247.172 193.448C247.172 193.206 247.478 192.879 248.13 192.686C248.957 192.459 249.815 192.476 250.637 192.734C251.458 192.992 252.222 193.484 252.87 194.174C253.329 194.718 253.511 195.214 253.397 195.395Z" fill="#263238"/>
<path d="M265.633 201.72C265.298 201.986 264.503 201.176 263.421 200.656C262.339 200.136 261.333 199.967 261.237 199.447C261.237 199.217 261.458 198.902 261.965 198.733C262.632 198.549 263.328 198.63 263.957 198.963C264.593 199.272 265.136 199.826 265.508 200.547C265.777 201.14 265.796 201.587 265.633 201.72Z" fill="#263238"/>
<path d="M235.738 201.773C235.623 201.628 230.509 196.839 228.536 204.313C226.563 211.787 232.913 212.779 232.98 212.525C233.047 212.271 235.738 201.773 235.738 201.773Z" fill="#FFBE9D"/>
<path d="M231.919 208.943C231.919 208.943 231.794 208.943 231.593 209.016C231.454 209.034 231.314 209.017 231.181 208.965C231.047 208.913 230.924 208.828 230.817 208.714C230.516 208.247 230.318 207.688 230.244 207.093C230.17 206.497 230.222 205.888 230.396 205.327C230.552 204.68 230.82 204.085 231.181 203.586C231.297 203.376 231.452 203.206 231.633 203.09C231.813 202.974 232.013 202.916 232.216 202.921C232.344 202.93 232.465 202.996 232.56 203.106C232.654 203.216 232.715 203.364 232.733 203.525C232.733 203.767 232.675 203.9 232.733 203.936C232.79 203.973 232.895 203.864 232.924 203.525C232.947 203.33 232.909 203.131 232.819 202.969C232.697 202.745 232.512 202.589 232.302 202.533C232.042 202.494 231.779 202.538 231.537 202.661C231.294 202.783 231.08 202.981 230.913 203.235C230.494 203.779 230.186 204.443 230.013 205.17C229.807 205.822 229.758 206.537 229.874 207.224C229.99 207.911 230.265 208.539 230.664 209.028C230.803 209.146 230.96 209.226 231.125 209.261C231.291 209.297 231.46 209.287 231.622 209.234C231.861 209.125 231.938 208.968 231.919 208.943Z" fill="#EB996E"/>
<path d="M267.043 189.874C268.173 189.596 266.305 184.492 264.285 182.182C261.249 178.675 256.126 175.204 252.534 175.035C248.206 174.829 244.289 175.978 241.129 179.715C238.022 183.584 235.79 188.432 234.665 193.757C234.203 195.329 234.087 197.03 234.33 198.679C234.732 200.675 236.053 202.307 235.402 204.617C235.27 205.02 235.201 205.451 235.201 205.887C235.201 206.323 235.27 206.755 235.402 207.157C236.111 209.056 237.787 208.234 238.754 207.157C240.813 204.738 241.847 201.303 242.824 197.99C243.622 195.689 244.11 193.236 244.27 190.733C244.27 189.366 244.136 188 244.27 186.633C244.282 185.948 244.411 185.274 244.65 184.658C244.888 184.042 245.229 183.499 245.649 183.065C245.85 182.906 246.061 182.768 246.281 182.654C247.343 182.08 248.506 181.872 249.652 182.053C250.798 182.233 251.885 182.796 252.803 183.682C255.762 186.536 260.895 191.096 262.753 190.273C264.043 189.819 265.243 189.028 266.277 187.951L267.043 189.874Z" fill="#263238"/>
<path d="M253.099 174.142C254.912 174.085 256.716 174.483 258.406 175.313C260.096 176.144 261.639 177.39 262.944 178.98C263.653 179.799 264.224 180.792 264.62 181.898C265.017 183.004 265.232 184.2 265.252 185.414C265.238 186.629 264.885 187.799 264.257 188.718C263.628 189.638 262.763 190.25 261.814 190.445H261.68C258.864 190.445 257.332 189.393 255.091 187.252C253.176 185.462 251.74 183.032 249.853 181.205C247.823 179.301 245.389 178.206 242.862 178.061C245.944 175.644 249.474 174.292 253.099 174.142Z" fill="#263238"/>
<path d="M220.729 215.611C220.729 215.611 220.94 215.732 221.342 215.841C221.934 215.975 222.543 215.904 223.104 215.635C223.992 215.208 224.732 214.399 225.192 213.349C225.774 211.935 226.064 210.359 226.035 208.766C226.035 207 225.853 205.041 225.92 202.9C225.949 201.783 226.124 200.68 226.437 199.634C226.772 198.496 227.357 197.502 228.122 196.768C228.962 196.072 229.927 195.656 230.928 195.559C231.917 195.482 232.899 195.288 233.859 194.978C235.793 194.049 237.407 192.289 238.417 190.007C239.576 187.734 240.332 185.17 241.376 182.968C242.283 180.697 243.659 178.779 245.36 177.417C246.981 176.304 248.871 175.99 250.665 176.534C252.208 176.987 253.643 177.899 254.85 179.195C256.548 181.118 257.86 183.522 258.681 186.21C258.912 186.926 259.113 187.656 259.284 188.399C259.364 188.651 259.415 188.915 259.437 189.185C259.344 188.942 259.264 188.692 259.198 188.435C259.054 187.939 258.834 187.226 258.518 186.294C257.662 183.698 256.352 181.378 254.687 179.509C253.514 178.272 252.121 177.413 250.627 177.006C248.925 176.498 247.134 176.803 245.599 177.865C243.969 179.2 242.647 181.057 241.769 183.247C240.811 185.472 239.988 187.975 238.8 190.322C237.745 192.728 236.048 194.583 234.012 195.559C233.026 195.874 232.02 196.073 231.005 196.151C230.074 196.216 229.171 196.578 228.381 197.203C227.676 197.868 227.138 198.775 226.83 199.816C226.523 200.809 226.348 201.859 226.313 202.924C226.226 205.004 226.427 206.964 226.37 208.778C226.375 210.435 226.046 212.067 225.412 213.519C224.903 214.605 224.106 215.427 223.162 215.841C222.571 216.106 221.931 216.144 221.323 215.95C221.111 215.88 220.911 215.766 220.729 215.611Z" fill="#455A64"/>
<path d="M259.487 176.082C260.124 176.211 260.725 176.535 261.24 177.025C262.563 178.101 263.572 179.694 264.113 181.561C264.643 183.43 264.687 185.464 264.237 187.366C264.096 188.165 263.796 188.906 263.366 189.519C263.299 189.519 263.663 188.672 263.931 187.269C264.267 185.44 264.184 183.527 263.691 181.754C263.17 179.995 262.255 178.465 261.058 177.352C260.119 176.493 259.487 176.179 259.487 176.082Z" fill="#455A64"/>
<path d="M270.079 187.621C270.249 188.59 270.213 189.598 269.974 190.544C269.735 191.489 269.302 192.338 268.719 193.003C268.613 192.906 269.188 191.794 269.552 190.379C269.916 188.964 269.945 187.633 270.079 187.621Z" fill="#455A64"/>
<path d="M620.048 559.393C620.048 559.574 490.336 559.707 330.362 559.707C170.388 559.707 40.6562 559.574 40.6562 559.393C40.6562 559.211 170.34 559.078 330.362 559.078C490.384 559.078 620.048 559.223 620.048 559.393Z" fill="#263238"/>
</svg>
