<svg width="640" height="560" viewBox="0 0 640 560" fill="none" xmlns="http://www.w3.org/2000/svg">
<path d="M109.265 328.175L16.7695 344.609L30.6085 414.815L123.104 398.381L109.265 328.175Z" fill="#F5F5F5"/>
<path d="M109.287 328.199L108.839 328.302L107.479 328.548L102.463 329.477L83.526 332.923L16.8452 344.926L17.1035 344.565C21.1818 365.46 25.9671 389.415 30.9834 414.763L30.562 414.479L123.004 398.114L122.773 398.449C118.695 377.308 115.269 359.794 112.89 347.52C111.721 341.39 110.796 336.576 110.171 333.323C109.858 331.684 109.627 330.432 109.464 329.554C109.301 328.677 109.233 328.264 109.233 328.264C109.233 328.264 109.342 328.677 109.505 329.554L110.28 333.259C110.946 336.55 111.911 341.338 113.148 347.456C115.609 359.756 119.116 377.321 123.358 398.514L123.426 398.785L123.127 398.849L30.63 415.241L30.2765 415.305L30.2085 414.957C25.233 389.608 20.5157 365.654 16.4102 344.745V344.448L16.7364 344.384L83.6755 332.639L102.558 329.361L107.547 328.509L108.812 328.302L109.287 328.199Z" fill="#E0E0E0"/>
<path d="M106.823 333.181L20.8223 348.461L32.9182 409.824L118.919 394.544L106.823 333.181Z" fill="#EBEBEB"/>
<path d="M32.8867 409.845L55.4127 366.363L78.7136 386.923L88.8279 371.926L118.885 394.577L32.8867 409.845Z" fill="#E0E0E0"/>
<path d="M80.9972 356.992C81.248 358.264 81.0959 359.578 80.5602 360.768C80.0245 361.958 79.1293 362.97 77.9876 363.677C76.846 364.384 75.5093 364.753 74.1464 364.739C72.7835 364.725 71.4557 364.327 70.3308 363.597C69.2059 362.866 68.3344 361.835 67.8265 360.634C67.3186 359.434 67.1971 358.117 67.4774 356.85C67.7576 355.584 68.427 354.425 69.401 353.52C70.375 352.615 71.6098 352.004 72.9493 351.765C73.8393 351.606 74.7535 351.615 75.6397 351.792C76.5259 351.969 77.3668 352.31 78.1142 352.795C78.8616 353.281 79.5009 353.901 79.9956 354.621C80.4902 355.341 80.8306 356.147 80.9972 356.992Z" fill="#E0E0E0"/>
<path d="M247.847 34.0417L200.492 282.418L394.192 315.705L441.547 67.329L247.847 34.0417Z" fill="#FAFAFA"/>
<path d="M394.186 315.722C394.186 315.722 394.254 315.309 394.39 314.535L395.043 311.037C395.614 307.965 396.47 303.422 397.571 297.524C399.814 285.702 403.077 268.433 407.21 246.569L441.196 67.2979L441.468 67.6593L247.815 34.3992L248.236 34.1153C230.563 126.771 214.155 212.599 200.805 282.475L200.574 282.152L341.317 306.494L380.374 313.283L390.652 315.09C392.976 315.49 394.186 315.722 394.186 315.722L390.706 315.154L380.469 313.425L341.412 306.83L200.438 282.746H200.152V282.475C213.461 212.573 229.815 126.745 247.461 34.0895V33.7539H247.828L441.604 67.0398L441.93 67.1043V67.4011C427.832 140.968 415.924 203.087 407.549 246.801L397.761 297.653C396.62 303.526 395.749 307.978 395.151 311.102C394.852 312.612 394.635 313.76 394.485 314.548L394.186 315.722Z" fill="#E0E0E0"/>
<path d="M346.451 74.4224L264.209 60.2891L251.24 128.311L333.482 142.444L346.451 74.4224Z" fill="#E0E0E0"/>
<path d="M412.047 85.6967L359.395 76.6484L357.702 85.5258L410.354 94.5741L412.047 85.6967Z" fill="#E0E0E0"/>
<path d="M399.905 168.181L249.627 142.355L247.934 151.233L398.212 177.058L399.905 168.181Z" fill="#E0E0E0"/>
<path d="M396.94 183.802L246.662 157.977L244.97 166.854L395.248 192.679L396.94 183.802Z" fill="#E0E0E0"/>
<path d="M393.962 199.427L243.684 173.602L241.991 182.479L392.269 208.304L393.962 199.427Z" fill="#E0E0E0"/>
<path d="M390.968 215.052L240.689 189.227L238.997 198.104L389.275 223.929L390.968 215.052Z" fill="#E0E0E0"/>
<path d="M387.991 230.665L237.713 204.84L236.02 213.717L386.298 239.542L387.991 230.665Z" fill="#E0E0E0"/>
<path d="M377.778 284.235L227.5 258.41L225.807 267.288L376.086 293.113L377.778 284.235Z" fill="#E0E0E0"/>
<path d="M317.243 234.646L234.746 220.469L233.054 229.346L315.55 243.523L317.243 234.646Z" fill="#E0E0E0"/>
<path d="M409.312 100.068L356.66 91.0195L354.968 99.8969L407.62 108.945L409.312 100.068Z" fill="#E0E0E0"/>
<path d="M404.578 114.621L352.141 105.477L350.43 114.318L402.868 123.462L404.578 114.621Z" fill="#E0E0E0"/>
<path d="M383.646 125.314L351.18 119.734L349.487 128.612L381.953 134.191L383.646 125.314Z" fill="#E0E0E0"/>
<path d="M481.777 32.8987L465.069 33.544L463.261 37.9838C462.745 39.1404 462.468 40.3805 462.446 41.6364C462.429 42.1917 462.575 42.7405 462.868 43.2214C463.161 43.7024 463.589 44.0965 464.104 44.3596C465.614 44.8169 467.197 45.0221 468.781 44.9662V46.2569L453.229 46.799V45.5083C454.809 45.2485 456.248 44.4834 457.307 43.34C458.916 41.2237 460.185 38.8923 461.073 36.4221L476.339 0H477.005L495.616 36.1382C497.429 39.5799 498.861 41.731 499.912 42.5914C500.885 43.3026 502.083 43.6801 503.311 43.6627V44.8759L480.431 45.7535V44.5274H481.383C482.722 44.5868 484.052 44.2823 485.216 43.6498C485.464 43.4705 485.659 43.234 485.782 42.9628C485.906 42.6917 485.955 42.395 485.923 42.101C485.902 41.6866 485.814 41.2776 485.665 40.8878C485.665 40.6942 485.216 39.8682 484.509 38.4485L481.777 32.8987ZM480.485 30.4981L472.791 15.2942L466.184 31.0401L480.485 30.4981Z" fill="#E0E0E0"/>
<path d="M513.413 126.679L437.002 150.91L457.408 208.911L533.819 184.681L513.413 126.679Z" fill="#F5F5F5"/>
<path d="M511.94 131.197L440.906 153.723L458.741 204.415L529.775 181.89L511.94 131.197Z" fill="#EBEBEB"/>
<path d="M458.746 204.436L472.477 165.059L494.771 179.901L501.487 166.052L529.777 181.914L458.746 204.436Z" fill="#E0E0E0"/>
<path d="M493.005 154.258C493.375 155.308 493.409 156.44 493.102 157.509C492.795 158.578 492.16 159.536 491.279 160.263C490.398 160.99 489.31 161.452 488.152 161.591C486.995 161.731 485.819 161.541 484.775 161.046C483.731 160.552 482.865 159.774 482.286 158.812C481.707 157.849 481.442 156.746 481.524 155.641C481.606 154.535 482.032 153.478 482.747 152.602C483.462 151.727 484.435 151.072 485.542 150.721C486.276 150.487 487.052 150.392 487.826 150.443C488.599 150.494 489.354 150.689 490.047 151.018C490.74 151.346 491.359 151.802 491.866 152.358C492.374 152.914 492.761 153.559 493.005 154.258Z" fill="#E0E0E0"/>
<path d="M515.534 59.227L496.83 149.902L616.286 172.112L634.989 81.4362L515.534 59.227Z" fill="#F5F5F5"/>
<path d="M635.011 81.4434L634.427 81.353L632.741 81.0691L626.243 79.8946L601.773 75.4289L515.489 59.541L515.869 59.2958C510.309 86.2833 503.947 117.22 497.204 149.964L496.919 149.551L616.36 171.84L616.006 172.06C621.702 144.776 626.42 122.15 629.723 106.34C631.395 98.4283 632.7 92.2203 633.597 87.9741C634.046 85.8574 634.386 84.2441 634.631 83.1212C634.875 81.9983 635.011 81.4434 635.011 81.4434C635.011 81.4434 634.916 81.9983 634.699 83.0825C634.481 84.1666 634.168 85.7929 633.747 87.8837C632.891 92.117 631.64 98.3122 630.049 106.211C626.814 122.086 622.178 144.788 616.604 172.176L616.536 172.46H616.251L496.728 150.248L496.375 150.183L496.443 149.848C503.24 117.117 509.616 86.18 515.19 59.1926L515.258 58.8828L515.57 58.9473L602.045 75.1579L626.406 79.7784L632.836 81.0691L634.468 81.3917L635.011 81.4434Z" fill="#E0E0E0"/>
<path d="M518.488 65.7025L502.141 144.953L613.205 165.602L629.552 86.3515L518.488 65.7025Z" fill="#EBEBEB"/>
<path d="M502.139 144.967L551.092 102.918L568.765 138.204L588.463 124.756L613.205 165.618L502.139 144.967Z" fill="#E0E0E0"/>
<path d="M586.574 103.239C586.238 104.883 585.395 106.395 584.152 107.585C582.91 108.774 581.324 109.587 579.595 109.92C577.866 110.254 576.072 110.093 574.44 109.458C572.807 108.823 571.409 107.742 570.424 106.353C569.438 104.964 568.909 103.328 568.902 101.653C568.896 99.9784 569.413 98.3393 570.388 96.9434C571.363 95.5475 572.753 94.4576 574.38 93.8115C576.008 93.1654 577.801 92.9922 579.532 93.3137C580.682 93.5255 581.776 93.9503 582.752 94.5639C583.728 95.1776 584.567 95.9679 585.221 96.8898C585.875 97.8117 586.332 98.847 586.564 99.9364C586.796 101.026 586.8 102.148 586.574 103.239Z" fill="#E0E0E0"/>
<path d="M55.916 8.95673L62.0879 77.3354L90.0245 84.5243L144.212 78.5486L136.586 1.57422L55.916 8.95673Z" fill="#F5F5F5"/>
<path d="M70.6117 71.1914L62.1016 77.3349C65.3363 79.9975 69.1184 81.9928 73.2082 83.1945C78.6757 84.6386 84.3837 85.0767 90.0246 84.4851C90.0246 84.4851 77.1234 82.4072 70.6117 71.1914Z" fill="#EBEBEB"/>
<path d="M130.059 26.7537C130.059 26.8827 116.356 28.2379 99.4307 29.7996C82.5056 31.3613 68.748 32.5229 68.7344 32.3809C68.7208 32.2389 82.4376 30.8579 99.3763 29.335C116.315 27.812 130.045 26.5859 130.059 26.7537Z" fill="#E0E0E0"/>
<path d="M130.862 37.2364C130.862 37.3654 117.159 38.7335 100.233 40.2952C83.3083 41.8569 69.5507 43.0056 69.5371 42.8765C69.5235 42.7475 83.2403 41.3794 100.179 39.8177C117.118 38.256 130.848 37.0815 130.862 37.2364Z" fill="#E0E0E0"/>
<path d="M132.153 46.5138C132.153 46.6429 118.45 48.0109 101.525 49.5597C84.5994 51.1085 70.8554 52.283 70.8418 52.141C70.8282 51.9991 84.5314 50.6568 101.47 49.0951C118.409 47.5334 132.139 46.3847 132.153 46.5138Z" fill="#E0E0E0"/>
<path d="M133.008 55.4864C133.008 55.6025 119.305 56.9706 102.366 58.5323C85.4276 60.094 71.6972 61.2556 71.6836 61.1136C71.67 60.9716 85.3868 59.6164 102.326 58.0677C119.264 56.5189 132.995 55.3573 133.008 55.4864Z" fill="#E0E0E0"/>
<path d="M640 559.665C640 559.846 496.714 560 320.014 560C143.313 560 0 559.846 0 559.665C0 559.484 143.245 559.316 320.014 559.316C496.782 559.316 640 559.471 640 559.665Z" fill="#263238"/>
<path d="M38.5156 127.871L95.8299 439.459L337.512 403.437L348.714 377.741L283.325 89.6289L56.7866 102.458L38.5156 127.871Z" fill="#E0E0E0"/>
<path opacity="0.3" d="M95.8299 439.462L113 414.488L55.6854 102.887L38.5156 127.874L95.8299 439.462Z" fill="black"/>
<path d="M55.6855 102.885L113 414.487L348.714 377.742L289.157 71.2773L55.6855 102.885Z" fill="#FAFAFA"/>
<path d="M55.6855 102.899L289.116 71.0195H289.402V71.2777C306.109 156.861 326.8 262.939 349.068 377.678L349.136 378.026L348.768 378.091L344.88 378.698L113.054 414.836H112.728V414.526C79.0136 230.492 56.1885 105.635 55.6855 102.899C56.1885 105.648 79.2855 230.454 113.326 414.436L112.945 414.19L344.758 378.052L348.646 377.446L348.347 377.846C326.079 263.094 305.497 157.016 288.871 71.368L289.198 71.5874L55.6855 102.899Z" fill="#263238"/>
<path d="M244.673 250.453C247.596 229.573 232.137 210.397 210.144 207.623C188.151 204.848 167.953 219.525 165.03 240.405C162.108 261.284 177.567 280.46 199.56 283.235C221.553 286.01 241.751 271.333 244.673 250.453Z" fill="#FF725E"/>
<path d="M186.421 255.425L184.6 244.441L224.662 238.414L226.375 248.739C226.375 248.739 223.928 257.619 207.724 260.045C191.519 262.472 186.421 255.425 186.421 255.425Z" fill="white"/>
<path d="M178.279 244.51L206.868 249.337L231.665 236.095L203.035 231.797L178.279 244.51Z" fill="white"/>
<path d="M258.269 137.968L116.216 159.28C114.473 159.542 113.284 161.095 113.559 162.75L114.039 165.631C114.314 167.285 115.95 168.415 117.693 168.153L259.746 146.841C261.489 146.58 262.678 145.026 262.403 143.372L261.923 140.491C261.648 138.836 260.012 137.707 258.269 137.968Z" fill="#E0E0E0"/>
<path d="M235.794 160.401L145.706 173.917C143.964 174.179 142.774 175.732 143.049 177.386L143.529 180.268C143.804 181.922 145.44 183.051 147.183 182.79L237.271 169.274C239.013 169.013 240.203 167.46 239.927 165.805L239.448 162.924C239.172 161.269 237.536 160.14 235.794 160.401Z" fill="#E0E0E0"/>
<path d="M268.245 351.589L178.158 365.105C176.415 365.366 175.225 366.919 175.501 368.574L175.98 371.455C176.256 373.11 177.892 374.239 179.634 373.978L269.722 360.462C271.464 360.2 272.654 358.647 272.379 356.992L271.899 354.111C271.624 352.457 269.988 351.327 268.245 351.589Z" fill="#E0E0E0"/>
<path d="M336.572 386.4L335.431 386.607L332.059 387.162L319.022 389.227L270.612 396.764L107.071 421.997L106.717 422.061V421.726C104.434 409.4 102.027 396.493 99.5803 383.342C86.4208 312.679 74.5665 248.74 65.9884 202.418C61.7333 179.264 58.2939 160.537 55.9013 147.579C54.7322 141.125 53.8213 136.079 53.1824 132.659C52.8833 130.955 52.6522 129.664 52.4891 128.787C52.3259 127.909 52.2852 127.496 52.2852 127.496C52.2852 127.496 52.3939 127.948 52.5706 128.787C52.7474 129.626 52.9921 130.968 53.3183 132.659C53.9709 136.079 54.9225 141.1 56.1596 147.553C58.593 160.459 62.114 179.225 66.4642 202.354C75.0967 248.662 87.0326 312.601 100.206 383.251C102.653 396.39 105.045 409.309 107.343 421.635L106.921 421.351L270.517 396.338L318.954 389.008L332.005 387.059L335.39 386.568L336.572 386.4Z" fill="#263238"/>
<path d="M318.643 398.122L317.569 398.328L314.388 398.858L302.071 400.845L256.285 408.099L100.901 432.518H100.547V432.195L91.6155 386.158C78.3066 316.463 66.2619 253.414 57.5342 207.751C53.2112 184.932 49.7038 166.45 47.284 153.673C46.1013 147.297 45.1633 142.341 44.5651 138.959C44.266 137.295 44.0213 136.017 43.8718 135.088C43.7223 134.158 43.6543 133.797 43.6543 133.797C43.6543 133.797 43.7631 134.223 43.9398 135.088L44.7147 138.959C45.3672 142.328 46.346 147.271 47.5967 153.634L58.0644 207.674C66.8464 253.337 78.9727 316.385 92.3632 386.041C95.3812 401.826 98.3448 417.275 101.186 432.131L100.778 431.859L256.176 407.673L301.99 400.613L314.32 398.741L317.515 398.277L318.643 398.122Z" fill="#263238"/>
<path d="M61.3818 234.844L56.0664 241.968L68.9675 315.393L76.6484 317.871L61.3818 234.844Z" fill="#263238"/>
<path d="M98.1928 228.728L61.3926 234.832L76.6703 317.854L113.47 311.75L98.1928 228.728Z" fill="#263238"/>
<path d="M99.3649 225.509L96.9678 225.906C95.5995 226.133 94.6838 227.37 94.9226 228.669L110.381 312.761C110.62 314.06 111.923 314.929 113.291 314.703L115.689 314.305C117.057 314.079 117.972 312.842 117.734 311.543L102.275 227.45C102.036 226.151 100.733 225.282 99.3649 225.509Z" fill="#263238"/>
<path d="M55.0185 294.907C50.9407 294.891 47.0066 293.475 43.943 290.92C40.8795 288.365 38.8934 284.844 38.3517 281.007C37.8841 277.728 38.4981 274.393 40.1092 271.46C41.7202 268.527 44.2491 266.139 47.3479 264.627C50.4467 263.114 53.9632 262.55 57.4134 263.013C60.8636 263.475 64.0781 264.941 66.6145 267.21L89.5892 254.819C90.0289 254.583 90.5221 254.45 91.0273 254.432C91.5325 254.414 92.0348 254.512 92.4919 254.716C92.949 254.921 93.3475 255.228 93.6538 255.609C93.9601 255.991 94.1653 256.437 94.2521 256.91L99.6899 286.453C99.7794 286.923 99.7486 287.407 99.6001 287.863C99.4517 288.32 99.1898 288.736 98.8367 289.076C98.4836 289.416 98.0496 289.671 97.5711 289.819C97.0926 289.966 96.5837 290.003 96.0873 289.925L70.1491 286.053C68.7448 288.721 66.5854 290.966 63.9128 292.534C61.2403 294.103 58.1604 294.933 55.0185 294.933V294.907ZM55.0185 265.467C54.3358 265.463 53.654 265.511 52.9793 265.609C49.3221 266.174 46.0354 268.056 43.8041 270.864C41.5729 273.673 40.5693 277.19 41.0026 280.684C41.4144 283.606 42.8277 286.317 45.0243 288.4C47.221 290.483 50.0788 291.822 53.1566 292.21C56.2343 292.597 59.361 292.012 62.0537 290.545C64.7465 289.078 66.8556 286.81 68.0555 284.091L68.4634 283.162L96.5223 287.46C96.5889 287.473 96.658 287.47 96.7226 287.449C96.7871 287.429 96.8447 287.392 96.8894 287.344C96.9376 287.299 96.9739 287.244 96.9952 287.184C97.0165 287.123 97.0221 287.058 97.0117 286.995L91.574 257.439C91.5609 257.375 91.5319 257.315 91.4894 257.263C91.4468 257.211 91.3919 257.17 91.3293 257.142C91.2682 257.113 91.2006 257.098 91.1321 257.098C91.0636 257.098 90.9961 257.113 90.935 257.142L66.1251 270.462L65.391 269.726C64.062 268.393 62.4599 267.332 60.6831 266.609C58.9064 265.885 56.9925 265.514 55.0592 265.519L55.0185 265.467Z" fill="#455A64"/>
<path d="M110.211 311.665C110.121 311.396 110.057 311.119 110.021 310.839C109.898 310.219 109.749 309.432 109.545 308.464C109.137 306.309 108.566 303.301 107.859 299.688C106.5 292.215 104.542 282.019 102.421 270.751C100.301 259.484 98.4925 249.262 97.1331 241.763C96.4942 238.124 95.9776 235.142 95.6105 232.974C95.4474 231.993 95.325 231.193 95.2299 230.573C95.1662 230.298 95.1388 230.016 95.1483 229.734C95.2408 230 95.3135 230.272 95.3658 230.547C95.5018 231.167 95.6785 231.954 95.8824 232.922C96.3174 235.078 96.9156 238.085 97.6361 241.686C99.0907 249.081 101.035 259.316 103.074 270.622C105.113 281.928 107.016 292.189 108.294 299.61C108.947 303.327 109.436 306.334 109.762 308.412C109.912 309.458 110.048 310.258 110.102 310.826C110.175 311.1 110.211 311.382 110.211 311.665Z" fill="#455A64"/>
<path d="M75.9122 318.154C75.8315 317.878 75.768 317.598 75.7219 317.315C75.5995 316.709 75.45 315.921 75.2597 314.941C74.8382 312.785 74.2673 309.778 73.5604 306.177C72.2009 298.691 70.2433 288.495 68.1226 277.228C66.0018 265.96 64.2074 255.738 62.8343 248.253C62.1954 244.6 61.6788 241.619 61.3117 239.463C61.1486 238.47 61.0263 237.682 60.9311 237.063C60.8673 236.783 60.8399 236.497 60.8495 236.211C60.9526 236.479 61.0299 236.756 61.0806 237.037C61.203 237.656 61.3797 238.444 61.5836 239.412C62.0187 241.567 62.6168 244.574 63.3373 248.162C64.7919 255.571 66.7359 265.793 68.7751 277.112C70.8143 288.431 72.7175 298.665 74.009 306.087C74.6479 309.804 75.1509 312.811 75.4636 314.902C75.6131 315.947 75.7491 316.747 75.8034 317.302C75.876 317.581 75.9125 317.867 75.9122 318.154Z" fill="#455A64"/>
<path d="M231.639 236.094C231.047 236.524 230.42 236.908 229.763 237.242L224.516 240.172C220.057 242.624 213.871 245.967 207.02 249.633L206.897 249.697H206.775H206.49C198.673 248.407 191.536 247.116 186.506 246.225L180.456 245.102C179.707 244.993 178.97 244.82 178.254 244.586C179.011 244.619 179.765 244.7 180.511 244.831L186.587 245.748C191.726 246.548 198.822 247.71 206.626 249.026H206.897H206.653C213.518 245.374 219.744 242.095 224.326 239.746L229.695 237.01C230.312 236.648 230.963 236.342 231.639 236.094Z" fill="#263238"/>
<path d="M154.594 127.998L152.33 128.346C152.239 128.06 152.11 127.813 151.944 127.606C151.778 127.395 151.58 127.225 151.353 127.094C151.126 126.963 150.874 126.875 150.597 126.829C150.324 126.783 150.036 126.783 149.733 126.829C149.185 126.913 148.731 127.122 148.37 127.456C148.009 127.787 147.761 128.227 147.625 128.777C147.488 129.323 147.482 129.962 147.606 130.695C147.734 131.447 147.954 132.062 148.265 132.54C148.58 133.017 148.963 133.355 149.414 133.554C149.865 133.753 150.357 133.811 150.892 133.729C151.191 133.683 151.462 133.601 151.704 133.483C151.949 133.364 152.158 133.214 152.332 133.032C152.506 132.847 152.639 132.634 152.733 132.394C152.83 132.154 152.88 131.888 152.884 131.599L155.15 131.262C155.173 131.755 155.107 132.245 154.949 132.731C154.794 133.213 154.55 133.662 154.218 134.076C153.888 134.486 153.47 134.836 152.964 135.125C152.461 135.411 151.87 135.605 151.191 135.709C150.247 135.854 149.367 135.771 148.55 135.459C147.736 135.146 147.046 134.619 146.477 133.878C145.913 133.136 145.533 132.191 145.337 131.043C145.141 129.891 145.191 128.879 145.488 128.004C145.785 127.13 146.269 126.424 146.942 125.887C147.614 125.347 148.415 125.006 149.345 124.863C149.958 124.769 150.542 124.767 151.095 124.859C151.651 124.95 152.161 125.129 152.624 125.397C153.086 125.661 153.485 126.01 153.82 126.445C154.16 126.88 154.417 127.398 154.594 127.998ZM157.367 134.614L155.57 124.056L157.808 123.712L159.292 132.43L163.83 131.734L164.143 133.574L157.367 134.614ZM167.72 133.025L165.322 133.393L167.179 122.274L170.063 121.832L175.51 131.83L173.111 132.198L169.073 124.459L168.991 124.472L167.72 133.025ZM166.864 128.898L172.529 128.029L172.826 129.771L167.161 130.641L166.864 128.898ZM181.005 123.269C180.892 122.859 180.66 122.564 180.307 122.381C179.954 122.199 179.509 122.149 178.972 122.232C178.606 122.288 178.307 122.387 178.073 122.528C177.838 122.667 177.669 122.836 177.565 123.035C177.464 123.234 177.433 123.447 177.472 123.673C177.497 123.863 177.565 124.022 177.675 124.15C177.789 124.277 177.932 124.38 178.105 124.46C178.277 124.536 178.471 124.596 178.687 124.64C178.902 124.681 179.13 124.71 179.37 124.726L180.359 124.807C180.839 124.839 181.286 124.911 181.701 125.024C182.116 125.137 182.487 125.297 182.812 125.504C183.137 125.712 183.406 125.974 183.619 126.29C183.836 126.606 183.983 126.984 184.061 127.423C184.168 128.07 184.098 128.655 183.851 129.18C183.608 129.7 183.201 130.138 182.632 130.494C182.066 130.845 181.352 131.087 180.491 131.219C179.636 131.35 178.87 131.334 178.191 131.17C177.516 131.005 176.958 130.694 176.516 130.237C176.076 129.775 175.783 129.166 175.637 128.409L177.803 128.077C177.887 128.427 178.039 128.707 178.259 128.917C178.481 129.122 178.754 129.262 179.078 129.336C179.404 129.406 179.761 129.411 180.147 129.352C180.526 129.293 180.845 129.188 181.106 129.035C181.37 128.882 181.562 128.695 181.684 128.476C181.806 128.256 181.845 128.019 181.802 127.765C181.761 127.527 181.657 127.339 181.488 127.199C181.323 127.059 181.096 126.952 180.808 126.88C180.523 126.808 180.18 126.754 179.778 126.721L178.576 126.609C177.647 126.529 176.885 126.299 176.29 125.918C175.694 125.537 175.332 124.956 175.203 124.175C175.09 123.536 175.166 122.952 175.429 122.421C175.696 121.89 176.11 121.444 176.67 121.083C177.231 120.722 177.898 120.482 178.67 120.363C179.455 120.243 180.164 120.272 180.795 120.45C181.43 120.627 181.952 120.93 182.361 121.357C182.769 121.785 183.032 122.312 183.15 122.94L181.005 123.269ZM190.543 121.805C190.43 121.396 190.198 121.1 189.845 120.918C189.492 120.736 189.047 120.686 188.51 120.768C188.144 120.824 187.845 120.923 187.611 121.065C187.376 121.203 187.207 121.372 187.103 121.571C187.002 121.77 186.971 121.983 187.01 122.21C187.035 122.4 187.103 122.559 187.213 122.687C187.327 122.814 187.47 122.917 187.642 122.996C187.814 123.072 188.009 123.132 188.225 123.177C188.44 123.218 188.668 123.246 188.908 123.262L189.897 123.343C190.377 123.375 190.824 123.448 191.239 123.561C191.654 123.673 192.025 123.833 192.35 124.041C192.675 124.248 192.944 124.51 193.157 124.827C193.374 125.143 193.521 125.52 193.599 125.96C193.706 126.606 193.636 127.192 193.389 127.716C193.145 128.237 192.739 128.675 192.17 129.03C191.604 129.382 190.89 129.623 190.029 129.756C189.174 129.887 188.408 129.87 187.729 129.706C187.054 129.542 186.496 129.231 186.053 128.773C185.614 128.312 185.321 127.702 185.175 126.946L187.341 126.613C187.425 126.964 187.577 127.243 187.797 127.453C188.019 127.659 188.292 127.799 188.616 127.872C188.942 127.942 189.299 127.947 189.685 127.888C190.064 127.83 190.383 127.725 190.644 127.572C190.908 127.418 191.1 127.232 191.222 127.012C191.344 126.792 191.383 126.555 191.34 126.301C191.299 126.064 191.195 125.876 191.026 125.736C190.861 125.595 190.634 125.489 190.346 125.417C190.061 125.344 189.718 125.291 189.316 125.257L188.114 125.146C187.185 125.066 186.423 124.836 185.827 124.454C185.232 124.073 184.87 123.492 184.74 122.712C184.628 122.073 184.704 121.488 184.967 120.958C185.234 120.426 185.647 119.98 186.208 119.619C186.769 119.258 187.436 119.018 188.207 118.9C188.993 118.779 189.702 118.808 190.333 118.986C190.968 119.164 191.49 119.466 191.898 119.894C192.307 120.321 192.57 120.849 192.688 121.476L190.543 121.805ZM149.381 154.047L149.107 152.439L152.282 148.381C152.55 148.022 152.772 147.703 152.947 147.422C153.125 147.141 153.251 146.873 153.324 146.618C153.397 146.36 153.41 146.092 153.362 145.814C153.31 145.504 153.194 145.249 153.014 145.047C152.835 144.842 152.612 144.698 152.347 144.615C152.081 144.529 151.793 144.51 151.483 144.557C151.159 144.607 150.888 144.716 150.669 144.883C150.45 145.051 150.296 145.267 150.206 145.531C150.117 145.795 150.101 146.095 150.158 146.432L148.034 146.758C147.916 146.067 147.971 145.444 148.198 144.887C148.425 144.33 148.797 143.869 149.315 143.504C149.833 143.139 150.46 142.9 151.198 142.787C151.956 142.67 152.638 142.703 153.246 142.885C153.856 143.063 154.358 143.363 154.752 143.786C155.145 144.209 155.394 144.724 155.498 145.333C155.565 145.731 155.553 146.137 155.461 146.55C155.372 146.962 155.168 147.436 154.849 147.971C154.529 148.503 154.062 149.155 153.447 149.927L152.159 151.674L152.171 151.747L156.616 151.064L156.927 152.889L149.381 154.047ZM160.436 152.351L158.037 152.719L159.894 141.6L162.779 141.158L168.225 151.156L165.827 151.524L161.788 143.785L161.706 143.798L160.436 152.351ZM159.579 148.224L165.244 147.355L165.541 149.097L159.876 149.967L159.579 148.224Z" fill="#263238"/>
<path d="M252.272 386.575H368.178V444.319H252.272C245.908 444.319 239.805 441.919 235.305 437.647C230.805 433.375 228.277 427.581 228.277 421.539V409.342C228.277 403.301 230.805 397.507 235.305 393.235C239.805 388.963 245.908 386.562 252.272 386.562V386.575Z" fill="#FF725E"/>
<path d="M337.875 386.574H582.371C583.428 386.574 584.441 386.973 585.188 387.682C585.935 388.391 586.355 389.353 586.355 390.356V392.382C586.355 393.385 585.935 394.347 585.188 395.056C584.441 395.765 583.428 396.164 582.371 396.164H337.875V386.574Z" fill="#FF725E"/>
<path d="M337.875 434.742H582.371C582.894 434.742 583.412 434.84 583.896 435.03C584.379 435.22 584.818 435.499 585.188 435.85C585.558 436.201 585.851 436.618 586.051 437.077C586.252 437.535 586.355 438.027 586.355 438.524V440.55C586.355 441.553 585.935 442.515 585.188 443.224C584.441 443.933 583.428 444.332 582.371 444.332H337.875V434.742Z" fill="#FF725E"/>
<path d="M578.92 434.742H365.609C362.941 434.742 360.299 434.242 357.834 433.273C355.368 432.303 353.129 430.881 351.243 429.089C349.357 427.297 347.861 425.17 346.841 422.829C345.821 420.488 345.297 417.98 345.299 415.446C345.299 410.332 347.439 405.428 351.248 401.812C355.056 398.196 360.222 396.164 365.609 396.164H578.92C576.094 402.241 574.634 408.81 574.634 415.453C574.634 422.095 576.094 428.665 578.92 434.742Z" fill="#F5F5F5"/>
<path opacity="0.3" d="M345.298 444.331H252.747C246.258 444.331 240.033 441.883 235.444 437.526C230.855 433.17 228.277 427.261 228.277 421.099V409.625C228.277 403.512 230.835 397.649 235.389 393.326C239.942 389.003 246.118 386.574 252.557 386.574H347.596C325.586 399.248 327.231 429.579 345.298 444.331Z" fill="black"/>
<path d="M553.007 417.243C553.007 417.437 509.22 417.591 455.222 417.591C401.225 417.591 357.438 417.437 357.438 417.243C357.438 417.049 401.212 416.895 455.222 416.895C509.233 416.895 553.007 417.049 553.007 417.243Z" fill="#263238"/>
<path d="M573.127 425.812C573.127 426.006 529.339 426.161 475.342 426.161C421.344 426.161 377.557 426.006 377.557 425.812C377.557 425.619 421.331 425.477 475.342 425.477C529.352 425.477 573.127 425.631 573.127 425.812Z" fill="#263238"/>
<path d="M567.201 405.083C567.201 405.276 523.413 405.431 469.416 405.431C415.419 405.431 371.617 405.276 371.617 405.083C371.617 404.889 415.391 404.734 469.416 404.734C523.44 404.734 567.201 404.915 567.201 405.083Z" fill="#263238"/>
<path d="M334.584 440.278C334.584 440.472 314.084 440.627 288.812 440.627C263.54 440.627 243.039 440.472 243.039 440.278C243.039 440.085 263.526 439.93 288.812 439.93C314.097 439.93 334.584 440.085 334.584 440.278Z" fill="#263238"/>
<path d="M334.584 391.38C334.584 391.573 314.084 391.728 288.812 391.728C263.54 391.728 243.039 391.573 243.039 391.38C243.039 391.186 263.526 391.031 288.812 391.031C314.097 391.031 334.584 391.186 334.584 391.38Z" fill="#263238"/>
<path d="M201.102 484.859H357.288V559.227H201.102C194.738 559.227 188.635 556.827 184.135 552.555C179.635 548.282 177.107 542.488 177.107 536.447V507.639C177.107 501.598 179.635 495.804 184.135 491.531C188.635 487.259 194.738 484.859 201.102 484.859Z" fill="#FF725E"/>
<path d="M318.258 484.859H634.234C635.29 484.859 636.303 485.258 637.05 485.967C637.797 486.676 638.217 487.638 638.217 488.641V493.429C638.217 494.432 637.797 495.394 637.05 496.103C636.303 496.812 635.29 497.211 634.234 497.211H318.258V484.859Z" fill="#FF725E"/>
<path d="M318.258 546.887H634.234C635.29 546.887 636.303 547.285 637.05 547.994C637.797 548.704 638.217 549.665 638.217 550.668V555.457C638.217 556.46 637.797 557.421 637.05 558.131C636.303 558.84 635.29 559.238 634.234 559.238H318.258V546.887Z" fill="#FF725E"/>
<path d="M628.675 546.884H353.986C347.048 546.881 340.395 544.262 335.49 539.603C330.585 534.944 327.83 528.626 327.83 522.039C327.83 518.778 328.507 515.549 329.821 512.536C331.136 509.524 333.062 506.786 335.491 504.48C337.92 502.174 340.803 500.345 343.976 499.097C347.15 497.849 350.551 497.207 353.986 497.207H628.675C625.032 505.031 623.15 513.491 623.15 522.046C623.15 530.6 625.032 539.06 628.675 546.884Z" fill="#F5F5F5"/>
<path opacity="0.3" d="M327.802 559.223H200.789C197.68 559.223 194.601 558.642 191.729 557.512C188.856 556.382 186.246 554.725 184.048 552.637C181.851 550.55 180.107 548.071 178.919 545.343C177.73 542.616 177.119 539.692 177.121 536.74V508.165C177.121 502.004 179.699 496.095 184.288 491.738C188.877 487.381 195.101 484.934 201.591 484.934H330.738C302.421 501.17 304.542 540.238 327.802 559.223Z" fill="black"/>
<path d="M595.3 524.352C595.3 524.546 538.91 524.701 469.375 524.701C399.839 524.701 343.436 524.546 343.436 524.352C343.436 524.159 399.812 524.004 469.375 524.004C538.937 524.004 595.3 524.159 595.3 524.352Z" fill="#263238"/>
<path d="M621.226 535.386C621.226 535.58 564.836 535.735 495.287 535.735C425.737 535.735 369.348 535.58 369.348 535.386C369.348 535.193 425.724 535.051 495.287 535.051C564.85 535.051 621.226 535.27 621.226 535.386Z" fill="#263238"/>
<path d="M613.638 514.102C613.638 514.296 557.262 514.451 487.712 514.451C418.163 514.451 361.773 514.296 361.773 514.102C361.773 513.909 418.15 513.754 487.712 513.754C557.275 513.754 613.638 513.909 613.638 514.102Z" fill="#263238"/>
<path d="M314.004 554.011C314.004 554.205 287.618 554.36 255.059 554.36C222.5 554.36 196.113 554.205 196.113 554.011C196.113 553.818 222.5 553.676 255.059 553.676C287.618 553.676 314.004 553.831 314.004 554.011Z" fill="#263238"/>
<path d="M314.004 491.04C314.004 491.221 287.618 491.375 255.059 491.375C222.5 491.375 196.113 491.221 196.113 491.04C196.113 490.859 222.5 490.691 255.059 490.691C287.618 490.691 314.004 490.846 314.004 491.04Z" fill="#263238"/>
<path d="M275.382 442.551H404.067V485.142H275.382C270.695 485.142 266.2 483.374 262.885 480.228C259.571 477.081 257.709 472.814 257.709 468.364V459.329C257.709 454.879 259.571 450.612 262.885 447.465C266.2 444.319 270.695 442.551 275.382 442.551Z" fill="#455A64"/>
<path d="M372.365 442.551H628.159C629.265 442.551 630.327 442.968 631.11 443.711C631.892 444.454 632.332 445.462 632.332 446.513V448.63C632.332 449.681 631.892 450.688 631.11 451.432C630.327 452.175 629.265 452.592 628.159 452.592H372.365V442.564V442.551Z" fill="#455A64"/>
<path d="M372.365 475.102H628.159C629.265 475.102 630.327 475.519 631.11 476.262C631.892 477.005 632.332 478.013 632.332 479.064V481.181C632.332 482.231 631.892 483.239 631.11 483.982C630.327 484.725 629.265 485.143 628.159 485.143H372.365V475.114V475.102Z" fill="#455A64"/>
<path d="M624.515 475.104H392.05C388.904 475.104 385.888 473.919 383.663 471.808C381.437 469.698 380.185 466.835 380.182 463.849C380.182 460.861 381.432 457.995 383.658 455.882C385.883 453.769 388.902 452.582 392.05 452.582H624.515C618.57 460.094 618.57 467.601 624.515 475.104Z" fill="#F5F5F5"/>
<path opacity="0.3" d="M380.113 485.129H275.436C273.098 485.129 270.783 484.692 268.623 483.842C266.463 482.992 264.501 481.747 262.848 480.176C261.195 478.606 259.885 476.742 258.991 474.691C258.098 472.64 257.639 470.441 257.641 468.222V459.807C257.639 457.541 258.107 455.298 259.019 453.204C259.931 451.111 261.269 449.208 262.955 447.606C264.642 446.003 266.645 444.732 268.849 443.865C271.054 442.997 273.417 442.551 275.803 442.551H382.533C359.49 451.895 361.217 474.262 380.113 485.129Z" fill="black"/>
<path d="M597.448 462.066C597.448 462.26 551.635 462.415 495.136 462.415C438.638 462.415 392.824 462.26 392.824 462.066C392.824 461.872 438.624 461.73 495.136 461.73C551.648 461.73 597.448 461.885 597.448 462.066Z" fill="#263238"/>
<path d="M618.507 468.161C618.507 468.355 572.693 468.509 516.195 468.509C459.696 468.509 413.883 468.355 413.883 468.161C413.883 467.967 459.683 467.812 516.195 467.812C572.707 467.812 618.507 467.942 618.507 468.161Z" fill="#263238"/>
<path d="M368.939 480.895C368.939 481.089 347.5 481.244 321.046 481.244C294.591 481.244 273.152 481.089 273.152 480.895C273.152 480.702 294.591 480.547 321.046 480.547C347.5 480.547 368.939 480.702 368.939 480.895Z" fill="#263238"/>
<path d="M368.939 447.571C368.939 447.765 347.5 447.907 321.046 447.907C294.591 447.907 273.152 447.765 273.152 447.571C273.152 447.378 294.591 447.223 321.046 447.223C347.5 447.223 368.939 447.378 368.939 447.571Z" fill="#263238"/>
<path d="M629.272 442.552C629.272 442.745 550.601 442.9 453.591 442.9C356.581 442.9 277.855 442.745 277.855 442.552C277.855 442.358 356.499 442.203 453.55 442.203C550.601 442.203 629.272 442.345 629.272 442.552Z" fill="#263238"/>
<path d="M488.203 404.449V427.578L496.645 422.441L506.053 427.578V404.449H488.203Z" fill="#FF725E"/>
<path d="M573.997 174.883L531.487 208.504L466.832 329.774L507.14 347.068L570.028 228.135L573.997 174.883Z" fill="#FF725E"/>
<g opacity="0.7">
<path d="M570.027 228.092C569.535 228.208 569.021 228.214 568.525 228.109C568.03 228.005 567.567 227.793 567.172 227.491C566.777 227.189 566.461 226.804 566.249 226.366C566.037 225.928 565.934 225.45 565.949 224.969C564.608 226.451 562.811 227.496 560.812 227.959C558.812 228.421 556.711 228.276 554.802 227.546C552.893 226.815 551.274 225.534 550.172 223.885C549.07 222.235 548.54 220.298 548.657 218.348C546.865 219.263 544.85 219.71 542.816 219.643C540.783 219.575 538.805 218.995 537.086 217.963C535.366 216.931 533.967 215.483 533.031 213.768C532.094 212.053 531.656 210.132 531.759 208.203L573.902 174.84L570.027 228.092Z" fill="white"/>
</g>
<path d="M556.895 188.409C556.895 188.409 557.547 198.45 572.365 196.695L573.996 174.883L556.895 188.409Z" fill="#FF725E"/>
<path opacity="0.3" d="M548.711 218.389L486.381 337.503L466.832 329.759L531.487 208.438L531.814 208.18C531.717 209.797 532.014 211.413 532.684 212.903C533.576 214.86 535.026 216.54 536.871 217.756C539.135 219.225 541.884 219.862 544.606 219.55C546.038 219.404 547.429 219.01 548.711 218.389Z" fill="black"/>
<path opacity="0.3" d="M566.057 225.008L502.027 344.845L507.193 347.065L570.027 228.092C569.174 228.24 568.295 228.081 567.559 227.647C566.822 227.213 566.283 226.534 566.044 225.743C566.023 225.498 566.027 225.252 566.057 225.008Z" fill="black"/>
<path d="M548.385 206.825C548.252 206.974 548.175 207.16 548.168 207.355C548.17 207.637 548.282 207.908 548.483 208.115C548.684 208.323 548.959 208.452 549.255 208.477C550.219 208.518 551.172 208.265 551.974 207.755C552.481 207.472 552.884 207.049 553.129 206.541C553.265 206.267 553.324 205.964 553.303 205.662C553.282 205.359 553.18 205.067 553.007 204.812C552.783 204.548 552.502 204.332 552.183 204.179C551.865 204.025 551.515 203.937 551.158 203.921C550.372 203.856 549.58 203.9 548.806 204.051C547.076 204.324 545.423 204.935 543.953 205.845C543.56 206.074 543.224 206.38 542.966 206.743C542.708 207.106 542.535 207.517 542.458 207.948C542.437 208.4 542.535 208.849 542.741 209.257C542.947 209.664 543.256 210.017 543.641 210.284C544.534 210.772 545.521 211.085 546.544 211.204C547.566 211.324 548.604 211.248 549.595 210.981C551.562 210.589 553.377 209.69 554.842 208.383C556.307 207.076 557.366 205.412 557.901 203.573C557.993 203.166 557.984 202.745 557.875 202.342C557.767 201.939 557.562 201.565 557.276 201.25C556.699 200.664 555.981 200.221 555.182 199.959C553.746 199.46 552.238 199.172 550.71 199.107C548.482 198.996 546.253 199.312 544.157 200.037C543.423 200.295 542.798 200.54 542.485 200.708C542.172 200.876 541.914 200.966 541.914 200.966C542.609 200.547 543.347 200.197 544.116 199.92C546.218 199.157 548.462 198.81 550.71 198.901C552.268 198.951 553.809 199.229 555.277 199.727C556.117 200.001 556.873 200.466 557.48 201.082C557.8 201.431 558.03 201.846 558.153 202.294C558.275 202.742 558.287 203.21 558.187 203.663C557.484 206.059 555.931 208.15 553.791 209.583C551.65 211.015 549.053 211.701 546.441 211.523C545.371 211.471 544.338 211.131 543.464 210.542C543.027 210.256 542.673 209.869 542.435 209.418C542.197 208.966 542.084 208.465 542.104 207.961C542.188 207.49 542.377 207.041 542.659 206.645C542.94 206.249 543.307 205.914 543.736 205.664C545.243 204.736 546.938 204.116 548.711 203.844C549.513 203.701 550.333 203.666 551.145 203.741C551.531 203.763 551.908 203.863 552.25 204.034C552.592 204.206 552.892 204.444 553.129 204.735C553.318 205.02 553.427 205.345 553.449 205.681C553.47 206.017 553.402 206.353 553.252 206.658C552.989 207.198 552.557 207.649 552.015 207.948C551.187 208.455 550.21 208.695 549.228 208.632C548.909 208.603 548.615 208.46 548.403 208.233C548.191 208.005 548.078 207.71 548.086 207.406C548.154 206.929 548.385 206.813 548.385 206.825Z" fill="white"/>
<path d="M571.197 206.154C571.197 206.154 570.572 206.064 569.457 206.154C567.869 206.253 566.317 206.648 564.889 207.316C562.789 208.338 560.819 209.585 559.017 211.033C556.823 212.866 554.324 214.34 551.621 215.395C548.834 216.305 545.826 216.413 542.975 215.705C540.654 215.123 538.52 214.006 536.763 212.453C535.572 211.381 534.584 210.124 533.84 208.735C533.557 208.249 533.32 207.739 533.133 207.213C533.21 207.332 533.278 207.457 533.337 207.587C533.459 207.845 533.663 208.219 533.935 208.684C534.731 209.989 535.735 211.169 536.912 212.182C538.656 213.688 540.76 214.769 543.043 215.331C545.846 215.999 548.792 215.883 551.526 214.995C554.193 213.954 556.664 212.507 558.84 210.71C560.66 209.256 562.66 208.016 564.794 207.019C566.247 206.35 567.83 205.976 569.444 205.922C570.036 205.928 570.626 206.006 571.197 206.154Z" fill="white"/>
<path d="M570.952 218.248C570.174 217.498 569.136 217.04 568.03 216.958C565.343 216.935 562.669 217.31 560.104 218.068C557.504 218.733 554.974 219.623 552.545 220.726C551.607 221.152 550.873 221.527 550.357 221.772C550.103 221.925 549.835 222.055 549.555 222.159C549.792 221.983 550.042 221.824 550.302 221.682C550.792 221.398 551.526 220.985 552.45 220.546C554.865 219.374 557.403 218.449 560.022 217.784C561.462 217.41 562.924 217.116 564.4 216.906C565.606 216.697 566.837 216.649 568.057 216.764C568.889 216.849 569.681 217.153 570.341 217.642C570.574 217.815 570.78 218.019 570.952 218.248Z" fill="white"/>
<path d="M553.307 226.804C553.72 226.396 554.175 226.028 554.666 225.707C555.878 224.862 557.27 224.28 558.744 224.003C559.483 223.86 560.245 223.875 560.976 224.047C561.708 224.219 562.39 224.544 562.972 224.997C563.319 225.276 563.609 225.613 563.829 225.991C563.911 226.127 563.966 226.275 563.992 226.43C563.678 225.947 563.288 225.511 562.836 225.139C562.261 224.727 561.599 224.437 560.896 224.288C560.192 224.139 559.463 224.134 558.758 224.274C557.342 224.557 555.998 225.101 554.802 225.875C554.323 226.212 553.824 226.522 553.307 226.804Z" fill="white"/>
<path d="M572.31 198.864C572.249 198.927 572.181 198.983 572.106 199.031C571.97 199.122 571.766 199.264 571.481 199.431C571.15 199.654 570.775 199.812 570.38 199.896C569.845 199.986 569.295 199.955 568.776 199.806C567.62 199.561 566.329 199.006 564.874 198.515C563.297 198.007 561.678 197.622 560.034 197.366C557.023 196.952 553.982 196.757 550.94 196.786H548.221C547.882 196.818 547.54 196.818 547.201 196.786L548.221 196.708L550.94 196.618C553.995 196.526 557.052 196.695 560.075 197.121C561.742 197.371 563.38 197.769 564.969 198.309C566.437 198.799 567.688 199.367 568.83 199.599C569.256 199.745 569.711 199.797 570.161 199.75C570.611 199.703 571.044 199.559 571.427 199.328C571.713 199.16 572.008 199.005 572.31 198.864Z" fill="white"/>
<path d="M617.365 308.466V414.183C617.392 414.386 617.496 414.572 617.657 414.708C617.819 414.843 618.027 414.918 618.242 414.918C618.458 414.918 618.665 414.843 618.827 414.708C618.988 414.572 619.092 414.386 619.119 414.183V308.466C619.092 308.263 618.988 308.076 618.827 307.941C618.665 307.805 618.458 307.73 618.242 307.73C618.027 307.73 617.819 307.805 617.657 307.941C617.496 308.076 617.392 308.263 617.365 308.466Z" fill="#FF725E"/>
<path d="M624.514 390.885C624.514 392.064 624.146 393.217 623.456 394.197C622.766 395.178 621.785 395.942 620.637 396.394C619.49 396.845 618.227 396.963 617.008 396.733C615.79 396.503 614.671 395.935 613.793 395.101C612.914 394.267 612.316 393.205 612.074 392.048C611.831 390.891 611.956 389.692 612.431 388.603C612.907 387.513 613.712 386.582 614.744 385.927C615.777 385.272 616.992 384.922 618.234 384.922C619.899 384.922 621.497 385.55 622.675 386.668C623.853 387.787 624.514 389.303 624.514 390.885Z" fill="#FF725E"/>
<path d="M616.496 393.969C616.496 393.969 611.914 398.318 610.541 411.057C609.168 423.795 608.869 430.158 608.869 430.158L621.213 430.881V421.769C621.213 422.195 623.66 428.571 623.66 428.571L633.421 425.525C633.421 425.525 629.954 391.658 616.496 393.969Z" fill="#FF725E"/>
<path d="M552.289 317.113H342.662V388.86H552.289V317.113Z" fill="#263238"/>
<path d="M625.915 304.773H267.361V317.125H625.915V304.773Z" fill="#263238"/>
<path opacity="0.3" d="M342.662 368.507C342.662 368.507 406.339 346.824 447.475 338.822C488.612 330.82 552.289 333.479 552.289 333.479V317.152H342.662V368.507Z" fill="black"/>
<path opacity="0.3" d="M397.052 304.773H267.361V317.125H397.052V304.773Z" fill="black"/>
<path d="M623.319 317.152C623.319 317.346 543.588 317.5 445.232 317.5C346.876 317.5 267.145 317.346 267.145 317.152C267.145 316.958 346.849 316.816 445.232 316.816C543.615 316.816 623.319 316.933 623.319 317.152Z" fill="#455A64"/>
<path d="M396.849 317.217C396.36 313.048 396.36 308.841 396.849 304.672C397.321 308.842 397.321 313.047 396.849 317.217Z" fill="#455A64"/>
<path d="M426.742 388.872C426.552 388.872 426.389 374.868 426.389 357.599C426.389 340.33 426.552 326.34 426.742 326.34C426.932 326.34 427.109 340.33 427.109 357.599C427.109 374.868 426.946 388.872 426.742 388.872Z" fill="#455A64"/>
<path d="M123.495 476.985L147.598 467.744L166.004 422.094L190.542 434.097C190.542 434.097 188.177 438.601 183.106 449.765C181.135 454.063 174.65 466.079 172.013 471.926C169.572 477.331 165.552 481.96 160.428 485.265C155.304 488.57 149.29 490.413 143.098 490.576L120.477 491.131L123.495 476.985Z" fill="#FFBF9D"/>
<path d="M111.515 468.16L107.926 464.521C107.229 464.087 106.408 463.866 105.574 463.888L94.0463 464.224C92.9701 464.322 91.9311 464.65 91.0062 465.182C90.0814 465.713 89.2944 466.436 88.7037 467.296L84.503 474.071C84.503 474.071 81.689 478.705 82.0424 479.841C82.1998 480.312 82.5356 480.712 82.985 480.962C83.4344 481.212 83.9655 481.296 84.4758 481.196C84.4758 481.196 84.8837 483.338 85.6314 483.777C86.0642 483.984 86.5367 484.106 87.0203 484.134C87.5039 484.163 87.9887 484.099 88.4454 483.945C88.6438 484.352 88.9664 484.692 89.3712 484.922C89.7761 485.152 90.2446 485.262 90.7157 485.236C90.9179 485.218 91.118 485.183 91.3139 485.132C92.6733 484.732 93.2986 482.216 93.2986 482.216L99.1443 481.196C99.1443 481.196 107.546 486.526 110.509 490.011C113.473 493.496 121.222 490.837 121.222 490.837L124.117 477.672L111.515 468.16Z" fill="#FFBF9D"/>
<path d="M103.019 469.721C102.199 469.962 101.349 470.097 100.491 470.121C98.9001 470.289 96.657 470.353 94.1149 470.663L94.3868 470.47C93.9498 471.361 93.4502 472.223 92.8914 473.051C91.3562 475.363 89.4894 477.461 87.3448 479.285C86.5024 480.088 85.5235 480.751 84.4492 481.246C84.4492 481.156 85.4688 480.382 86.9914 478.923C88.9907 477.037 90.7642 474.946 92.2796 472.689C92.837 471.825 93.34 470.973 93.7614 470.108L93.843 469.94H94.0333C96.6298 469.669 98.8729 469.695 100.463 469.644C101.316 469.585 102.172 469.611 103.019 469.721Z" fill="#FF9A6C"/>
<path d="M103.278 474.947C102.597 475.262 101.858 475.447 101.102 475.489C99.2249 475.736 97.3166 475.675 95.4608 475.309L95.8822 475.089C95.6377 475.765 95.3563 476.429 95.0393 477.077C93.9882 479.136 92.5137 480.975 90.7027 482.485C89.9957 483.15 89.1541 483.673 88.2285 484.021C88.8994 483.353 89.6073 482.72 90.3492 482.123C92.0251 480.576 93.4051 478.763 94.4276 476.767C94.742 476.15 95.0188 475.517 95.2568 474.87L95.3656 474.586H95.6647C98.1736 475.031 100.734 475.153 103.278 474.947Z" fill="#FF9A6C"/>
<path d="M117.934 477.646L107.643 473.103C106.262 472.373 104.732 471.933 103.157 471.812C101.472 471.953 99.8456 472.47 98.4121 473.323L92.8655 476.033C92.5664 476.188 92.2402 476.369 92.145 476.665C92.0499 476.962 92.3081 477.478 92.6208 477.775C94.0525 479.061 95.9263 479.812 97.8955 479.887C99.8648 479.963 101.796 479.36 103.333 478.188C104.084 480.515 105.257 482.698 106.8 484.642C107.589 485.616 108.628 486.38 109.819 486.862C111.01 487.343 112.311 487.525 113.597 487.391" fill="#FFBF9D"/>
<path d="M113.569 487.518C113.484 487.558 113.392 487.585 113.297 487.596C113.021 487.661 112.739 487.695 112.455 487.699C111.375 487.703 110.31 487.455 109.355 486.976C107.875 486.242 106.621 485.157 105.712 483.827C104.583 482.119 103.671 480.291 102.993 478.381L103.509 478.497C102.684 479.155 101.729 479.651 100.7 479.957C99.6706 480.263 98.5879 480.372 97.5142 480.278C96.3469 480.202 95.2085 479.899 94.17 479.387C93.6382 479.12 93.141 478.795 92.6882 478.419C92.4429 478.227 92.2196 478.011 92.0221 477.774C91.8939 477.627 91.8018 477.454 91.7525 477.269C91.7031 477.084 91.6977 476.89 91.7366 476.703C91.7808 476.549 91.858 476.405 91.9632 476.281C92.0685 476.157 92.1996 476.054 92.3483 475.98C92.593 475.838 92.797 475.748 93.0145 475.631L94.2923 475.012L96.8073 473.721C98.3696 472.853 100.035 472.164 101.769 471.669C103.434 471.384 105.151 471.634 106.65 472.379C108.009 472.973 109.369 473.566 110.456 474.096L115.894 476.677C116.577 476.969 117.236 477.31 117.865 477.697C117.146 477.494 116.446 477.235 115.772 476.922L110.198 474.586L106.364 472.96C104.982 472.287 103.403 472.074 101.878 472.353C100.205 472.85 98.5995 473.53 97.0928 474.38L94.5914 475.67L93.3135 476.303C92.8785 476.509 92.4163 476.716 92.3891 476.922C92.3619 477.129 92.7018 477.632 93.1232 477.955C93.5383 478.297 93.9946 478.592 94.4827 478.832C95.4334 479.3 96.4737 479.581 97.5414 479.658C99.5276 479.842 101.51 479.276 103.061 478.084L103.414 477.8L103.564 478.213C104.197 480.091 105.05 481.896 106.106 483.595C106.938 484.883 108.097 485.952 109.477 486.705C110.732 487.342 112.152 487.624 113.569 487.518Z" fill="#FF9A6C"/>
<path d="M251.756 349.768C251.851 342.437 253.116 335.132 252.762 327.827C252.409 320.522 250.438 312.868 245.054 307.615C239.671 302.362 230.277 300.375 224.024 304.569L222.664 310.816C225.138 339.081 224.812 367.798 227.286 396.064C227.612 399.781 230.78 403.149 232.561 406.466C234.342 409.783 237.917 412.532 241.832 412.3C246.957 412.003 250.315 407.073 251.906 402.427C257.751 385.635 251.525 367.489 251.756 349.768Z" fill="#263238"/>
<path d="M233.187 311.761C232.156 309.899 230.831 308.197 229.258 306.715C228.465 305.978 227.506 305.421 226.454 305.085C225.401 304.75 224.283 304.645 223.182 304.779C222.663 304.84 222.17 305.027 221.748 305.32C221.327 305.614 220.992 306.005 220.775 306.457C220.436 307.386 221.17 308.638 222.203 308.548L222.42 308.728C224.731 310.673 227.083 312.57 229.476 314.42C230.047 314.926 230.716 315.32 231.447 315.582C231.814 315.709 232.212 315.735 232.594 315.657C232.977 315.58 233.328 315.402 233.609 315.143C234.465 314.239 233.84 312.807 233.187 311.761Z" fill="#FF725E"/>
<path d="M237.551 318.958C229.857 310.026 219.525 304.877 207.372 304.761C200.574 304.644 197.679 306.051 192.744 307.265C187.803 308.397 183.435 311.137 180.4 315.008C176.907 319.719 173.97 324.998 173.304 330.741C172.433 336.61 172.137 342.542 172.42 348.462C172.706 354.411 174.719 360.169 178.239 365.099L194.063 367.68C202.804 367.964 211.668 368.235 220.191 366.389C228.715 364.544 236.98 360.142 241.535 353.057C247.87 343.145 245.232 327.876 237.551 318.958Z" fill="#263238"/>
<path d="M223.48 318.858L202.382 310.895L196.862 311.501C184.464 311.501 175.9 324.537 175.818 334.062C175.736 344.671 176.063 357.603 177.83 365.412C181.405 381.119 195.503 382.422 195.503 382.422C195.503 382.422 195.217 390.799 195.109 396.065L227.423 393.857L229.04 324.24C228.991 322.845 228.393 321.518 227.363 320.522C226.334 319.525 224.948 318.931 223.48 318.858Z" fill="#FFBF9D"/>
<path d="M202.639 361.733C202.508 360.93 202.073 360.2 201.415 359.68C200.817 359.191 200.065 358.902 199.277 358.858C198.488 358.813 197.706 359.016 197.051 359.435C196.371 359.933 195.843 360.593 195.521 361.348C195.198 362.103 195.093 362.926 195.216 363.733C195.579 364.217 196.047 364.622 196.589 364.92C197.131 365.219 197.733 365.403 198.356 365.462C198.551 365.475 198.746 365.475 198.941 365.462C199.949 365.482 200.926 365.126 201.66 364.469C202.029 364.112 202.309 363.68 202.478 363.207C202.648 362.733 202.702 362.229 202.639 361.733Z" fill="#FF9A6C"/>
<path d="M181.406 347.469C181.428 347.999 181.667 348.501 182.074 348.865C182.481 349.23 183.022 349.428 183.581 349.418C183.855 349.423 184.127 349.376 184.382 349.281C184.636 349.185 184.868 349.043 185.064 348.861C185.26 348.68 185.416 348.464 185.523 348.225C185.631 347.986 185.687 347.729 185.688 347.469C185.66 346.938 185.417 346.438 185.008 346.075C184.6 345.712 184.059 345.513 183.5 345.52C183.227 345.515 182.955 345.561 182.702 345.657C182.448 345.753 182.217 345.895 182.022 346.077C181.827 346.258 181.672 346.475 181.566 346.714C181.461 346.953 181.406 347.21 181.406 347.469Z" fill="#263238"/>
<path d="M179.598 339.364C179.87 339.61 181.433 338.397 183.676 338.28C185.92 338.164 187.755 339.171 187.972 338.887C188.19 338.603 187.782 338.293 187.021 337.829C185.986 337.225 184.78 336.941 183.568 337.016C182.371 337.072 181.223 337.488 180.291 338.203C179.666 338.758 179.449 339.248 179.598 339.364Z" fill="#263238"/>
<path d="M194.388 356.519C193.154 356.211 191.884 356.059 190.609 356.067C190.024 356.067 189.453 355.964 189.331 355.576C189.257 355.006 189.361 354.427 189.63 353.912C190.106 352.531 190.609 351.085 191.125 349.562C193.191 343.393 194.66 338.321 194.388 338.243C194.116 338.166 192.24 343.109 190.174 349.291L188.814 353.653C188.479 354.345 188.417 355.128 188.637 355.86C188.731 356.053 188.871 356.222 189.046 356.354C189.22 356.486 189.425 356.578 189.643 356.622C189.974 356.689 190.312 356.715 190.649 356.699C191.899 356.779 193.153 356.718 194.388 356.519Z" fill="#263238"/>
<path d="M195.476 382.41C203.341 382.114 210.966 379.75 217.499 375.582C217.499 375.582 212.184 386.875 195.395 386.269L195.476 382.41Z" fill="#FF9A6C"/>
<path d="M201.253 357.664C200.886 357.664 201.008 360.039 198.969 361.833C196.93 363.627 194.252 363.511 194.252 363.846C194.252 364.182 194.877 364.272 195.992 364.247C197.462 364.191 198.864 363.643 199.948 362.698C200.985 361.795 201.614 360.546 201.702 359.213C201.729 358.219 201.43 357.651 201.253 357.664Z" fill="#263238"/>
<path d="M180.374 331.713C180.795 332.216 182.535 331.777 184.602 331.829C186.668 331.88 188.408 332.306 188.843 331.829C189.033 331.583 188.775 331.08 188.027 330.538C187.016 329.914 185.834 329.587 184.629 329.596C183.423 329.565 182.233 329.865 181.203 330.461C180.455 330.951 180.197 331.454 180.374 331.713Z" fill="#263238"/>
<path d="M206.541 346.929C206.552 347.459 206.345 347.973 205.965 348.36C205.584 348.748 205.059 348.98 204.501 349.007C204.229 349.032 203.955 349.005 203.694 348.928C203.434 348.85 203.192 348.725 202.983 348.557C202.774 348.39 202.602 348.185 202.478 347.955C202.353 347.724 202.279 347.472 202.258 347.213C202.247 346.684 202.451 346.171 202.828 345.781C203.206 345.391 203.727 345.155 204.284 345.122C204.558 345.097 204.834 345.125 205.096 345.203C205.359 345.28 205.602 345.407 205.812 345.575C206.022 345.744 206.195 345.95 206.32 346.183C206.445 346.415 206.52 346.669 206.541 346.929Z" fill="#263238"/>
<path d="M210.756 338.512C210.498 338.783 208.853 337.673 206.542 337.711C204.23 337.75 202.572 338.886 202.314 338.615C202.055 338.344 202.45 338.021 203.184 337.492C204.166 336.82 205.344 336.454 206.555 336.447C207.754 336.421 208.931 336.76 209.913 337.415C210.633 337.918 210.892 338.395 210.756 338.512Z" fill="#263238"/>
<path d="M209.369 331.52C208.934 332.023 207.139 331.52 205.005 331.52C202.87 331.52 201.049 331.92 200.627 331.404C200.437 331.159 200.722 330.655 201.497 330.113C202.572 329.516 203.801 329.216 205.046 329.248C206.282 329.235 207.495 329.562 208.539 330.191C209.314 330.759 209.572 331.275 209.369 331.52Z" fill="#263238"/>
<path d="M226.199 350.855C226.199 349.68 227.409 346.828 228.633 346.583C231.882 345.925 237.795 345.86 238.312 353.759C239.019 364.562 227.436 363 227.436 362.69C227.436 362.38 226.403 354.933 226.199 350.855Z" fill="#FFBF9D"/>
<path d="M230.277 358.559C230.277 358.559 230.481 358.688 230.821 358.805C231.301 358.99 231.837 358.99 232.317 358.805C233.486 358.314 234.383 356.443 234.315 354.494C234.282 353.567 234.031 352.658 233.581 351.835C233.453 351.503 233.241 351.205 232.964 350.969C232.687 350.732 232.352 350.564 231.99 350.48C231.76 350.437 231.522 350.471 231.316 350.577C231.11 350.683 230.949 350.854 230.862 351.061C230.726 351.37 230.862 351.59 230.753 351.603C230.644 351.616 230.495 351.435 230.563 350.983C230.608 350.712 230.752 350.466 230.971 350.286C231.116 350.164 231.286 350.071 231.471 350.013C231.656 349.956 231.851 349.934 232.045 349.951C232.518 350.005 232.969 350.177 233.351 350.448C233.733 350.72 234.032 351.083 234.22 351.499C234.763 352.407 235.066 353.425 235.103 354.468C235.171 356.649 234.125 358.753 232.52 359.295C232.221 359.398 231.9 359.437 231.583 359.408C231.265 359.379 230.959 359.283 230.685 359.127C230.277 358.83 230.277 358.585 230.277 358.559Z" fill="#FF9A6C"/>
<path d="M229.068 346.606L226.199 349.42C213.719 338.075 189.331 309.681 190.704 311.371C196.392 309.364 202.521 308.747 208.526 309.577C217.811 311.074 235.403 315.488 235.131 325.878C234.859 336.268 229.068 346.606 229.068 346.606Z" fill="#263238"/>
<path d="M245.597 344.254C245.561 344.043 245.501 343.835 245.421 343.635C245.214 343.047 244.954 342.477 244.646 341.931C243.468 339.932 241.844 338.201 239.888 336.859C237.004 334.893 233.785 333.412 230.372 332.484C226.565 331.309 222.283 330.393 218.069 328.612C214.094 327.04 210.326 325.034 206.84 322.636C203.988 320.675 201.331 318.472 198.9 316.054C197.27 314.418 195.741 312.694 194.319 310.891L193.177 309.394C193.05 309.213 192.904 309.045 192.742 308.891C192.838 309.089 192.951 309.279 193.082 309.459C193.313 309.82 193.653 310.349 194.129 311.007C195.49 312.875 196.984 314.651 198.601 316.325C203.967 321.864 210.535 326.232 217.851 329.128C221.901 330.585 226.025 331.847 230.209 332.91C233.607 333.789 236.824 335.207 239.725 337.104C241.66 338.395 243.294 340.052 244.523 341.97C245.23 343.377 245.529 344.254 245.597 344.254Z" fill="#455A64"/>
<path d="M242.281 345.922C242.318 345.114 242.169 344.308 241.846 343.56C240.987 341.496 239.495 339.724 237.563 338.475C234.672 336.707 231.436 335.508 228.047 334.951C223.992 334.18 220.039 332.985 216.261 331.389C212.498 329.759 208.964 327.691 205.739 325.233C203.115 323.216 200.702 320.964 198.534 318.509C197.056 316.843 195.694 315.088 194.455 313.256L193.49 311.746C193.39 311.564 193.267 311.395 193.123 311.242C193.199 311.433 193.29 311.619 193.395 311.797L194.265 313.372C195.422 315.253 196.721 317.051 198.153 318.754C200.296 321.274 202.706 323.58 205.344 325.633C208.588 328.14 212.156 330.244 215.962 331.893C219.774 333.508 223.77 334.699 227.87 335.442C231.198 335.968 234.385 337.108 237.251 338.798C239.146 339.982 240.638 341.663 241.547 343.637C241.865 344.376 242.11 345.141 242.281 345.922Z" fill="#455A64"/>
<path d="M228.688 364.906C228.688 364.829 229.653 364.713 231.338 364.287C233.702 363.639 235.878 362.487 237.701 360.918C240.371 358.546 242.399 355.597 243.614 352.322C245.167 348.331 246.003 344.121 246.088 339.868C246.14 337.67 245.953 335.473 245.531 333.311C244.39 327.874 241.701 322.839 237.755 318.753C235.435 316.414 232.876 314.3 230.115 312.441C230.115 312.441 230.346 312.519 230.754 312.751C231.162 312.983 231.746 313.293 232.467 313.784C234.532 315.129 236.437 316.682 238.149 318.417C240.713 320.988 242.788 323.962 244.28 327.206C245.146 329.131 245.806 331.133 246.252 333.182C246.689 335.39 246.885 337.635 246.836 339.881C246.754 344.214 245.885 348.502 244.267 352.555C242.98 355.906 240.847 358.906 238.054 361.293C236.148 362.867 233.873 363.986 231.42 364.558C230.752 364.702 230.076 364.805 229.394 364.868C229.16 364.898 228.924 364.911 228.688 364.906Z" fill="#455A64"/>
<path d="M243.165 497.727L175.9 507.006C150.627 513.795 124.009 515.783 96.1816 513.46L197.42 558.297L238.067 558.89C238.067 558.89 250.438 558.89 252.599 548.643C254.761 538.395 257.167 507.187 257.167 507.187C257.167 507.187 249.133 500.579 243.165 497.727Z" fill="#263238"/>
<g opacity="0.3">
<path d="M242.962 524.615C244.075 531.01 244.476 537.499 244.159 543.974C246.225 541.821 247.747 539.249 248.609 536.453C249.471 533.658 249.651 530.712 249.134 527.841C248.55 524.692 247.163 521.22 248.903 518.471C250.072 516.625 253.158 514.509 252.71 512.405C252.71 512.405 249.991 512.405 247.557 512.315C245.586 512.237 241.494 512.121 241.494 512.121C243.255 516.136 243.635 520.576 242.582 524.808" fill="black"/>
</g>
<path d="M195.216 393.43L227.897 390.074L233.879 395.237L210.551 408.272L200.26 413.332L190.091 410.402L186.869 404.646L195.216 393.43Z" fill="#FFBF9D"/>
<path d="M151.158 431.21C151.158 431.21 161.408 412.547 163.937 408.469C168.26 401.512 176.335 397.575 176.335 397.575L195.218 393.432C195.218 393.432 193.26 402.467 205.006 403.035C219.96 403.822 229.245 390.219 229.245 390.219C229.245 390.219 246.292 391.884 250.996 393.755C255.7 395.627 269.022 400.931 270.98 417.735L275.548 445.188L239.522 447.769L240.012 484.32L224.704 496.207C224.704 496.207 180.753 510.572 177.939 511.514C176.58 511.966 176.933 494.232 173.793 479.028L167.866 465.36C165.466 459.901 164.047 454.099 163.665 448.195C163.434 444.323 163.543 441.354 163.543 441.354C163.543 441.354 154.299 438.347 151.158 431.21Z" fill="#455A64"/>
<path d="M179.542 497.183L239.942 479.979L239.521 447.79L270.271 445.57C270.271 445.57 267.824 462.246 267.457 470.79C266.941 483.09 260.66 500.281 256.582 503.921C252.503 507.56 177.979 511.535 177.979 511.535L179.542 497.183Z" fill="#FFBF9D"/>
<path d="M145.284 507.302C145.575 507.775 146.038 508.132 146.586 508.305C147.134 508.478 147.729 508.457 148.261 508.244C149.621 507.728 149.254 505.121 149.254 505.121L155.684 503.623C155.684 503.623 164.561 508.192 167.919 511.367C171.277 514.542 178.659 511.225 178.659 511.225L180.195 497.841L167.375 488.432C167.375 488.432 168.164 489 167.171 487.142C166.179 485.283 162.481 486.29 162.481 486.29C161.829 485.374 159.341 485.219 159.341 485.219L148.914 487.142C147.856 487.337 146.857 487.755 145.992 488.365C145.126 488.975 144.415 489.761 143.911 490.665L140.009 497.674C140.009 497.674 138.052 502.655 138.528 503.752C138.733 504.206 139.106 504.573 139.578 504.783C140.049 504.992 140.585 505.03 141.083 504.888C141.083 504.888 141.858 508.012 142.742 508.05C143.635 507.945 144.498 507.678 145.284 507.263V507.302Z" fill="#FFBF9D"/>
<path d="M166.887 496.203C166.887 496.307 165.527 496.281 163.243 496.539C160.335 496.891 157.49 497.616 154.787 498.694C153.303 499.296 151.872 500.008 150.505 500.824C149.295 501.585 148.017 502.244 147.678 503.16C147.604 503.357 147.586 503.569 147.624 503.774C147.662 503.98 147.755 504.173 147.895 504.334C148.11 504.602 148.403 504.804 148.738 504.915C149.309 505.083 149.649 504.915 149.676 504.915C149.703 504.915 149.363 505.212 148.67 505.096C148.26 505.009 147.888 504.801 147.61 504.502C147.409 504.298 147.269 504.048 147.202 503.776C147.136 503.504 147.145 503.221 147.229 502.953C147.461 502.352 147.878 501.83 148.425 501.456C148.969 501.056 149.54 500.656 150.179 500.256C154.073 497.834 158.548 496.383 163.189 496.036C164.423 495.902 165.672 495.958 166.887 496.203Z" fill="#FF9A6C"/>
<path d="M168.149 502.515C168.149 502.696 163.854 502.851 158.633 503.522C153.413 504.193 149.226 505.123 149.117 504.942C149.98 504.548 150.894 504.266 151.836 504.103C154.039 503.577 156.272 503.172 158.525 502.89C160.778 502.599 163.048 502.431 165.322 502.386C166.266 502.307 167.218 502.35 168.149 502.515Z" fill="#FF9A6C"/>
<path d="M145.325 507.046C145.215 506.706 145.142 506.356 145.108 506.001C144.968 505.03 144.886 504.051 144.863 503.071C144.851 502.389 144.897 501.707 144.999 501.032C145.125 500.237 145.416 499.474 145.856 498.786C146.76 497.195 147.989 495.791 149.472 494.656C150.938 493.518 152.568 492.584 154.311 491.881C155.757 491.372 157.264 491.038 158.798 490.888C160.157 490.746 161.136 490.707 161.87 490.668C162.244 490.616 162.624 490.616 162.998 490.668C161.653 490.96 160.292 491.176 158.92 491.313C157.441 491.52 155.99 491.883 154.597 492.398C152.924 493.106 151.36 494.027 149.948 495.134C148.539 496.21 147.35 497.522 146.44 499.006C145.714 500.229 145.353 501.616 145.393 503.02C145.285 505.511 145.475 507.046 145.325 507.046Z" fill="#FF9A6C"/>
<path d="M159.041 487.829C159.041 487.933 157.478 488.087 154.963 488.539C152.448 488.991 148.71 489.52 146.806 492.85C144.864 495.375 143.295 498.142 142.143 501.071C141.785 502.317 141.552 503.592 141.45 504.879C141.323 504.54 141.272 504.179 141.301 503.82C141.276 502.848 141.404 501.878 141.681 500.942C142.716 497.91 144.258 495.055 146.249 492.489C146.778 491.711 147.413 491.004 148.139 490.385C148.838 489.815 149.646 489.377 150.518 489.094C151.947 488.624 153.423 488.291 154.922 488.1C156.278 487.847 157.662 487.756 159.041 487.829Z" fill="#FF9A6C"/>
<path d="M165.392 509.462C165.157 509.345 164.934 509.207 164.726 509.049L162.864 507.849C160.517 506.381 158.084 505.041 155.577 503.835H155.727L149.31 505.371L149.514 505.087C149.575 505.593 149.575 506.104 149.514 506.61C149.474 507.168 149.261 507.702 148.902 508.146C148.679 508.369 148.39 508.522 148.073 508.585C147.781 508.682 147.471 508.721 147.162 508.701C146.524 508.657 145.922 508.401 145.463 507.978C145.352 507.868 145.247 507.752 145.15 507.63V507.539L145.531 507.643L145.327 507.733C145.063 507.865 144.79 507.981 144.511 508.081C144.227 508.187 143.936 508.278 143.641 508.352C143.486 508.396 143.327 508.426 143.165 508.443C142.959 508.475 142.748 508.453 142.554 508.378C142.243 508.191 141.997 507.922 141.847 507.604C141.696 507.337 141.564 507.061 141.453 506.778C141.224 506.219 141.038 505.645 140.895 505.061L141.289 505.281C140.856 505.407 140.395 505.417 139.956 505.31C139.517 505.203 139.117 504.983 138.802 504.674C138.473 504.344 138.28 503.914 138.258 503.461C138.257 503.054 138.298 502.647 138.38 502.248C138.744 500.694 139.225 499.167 139.821 497.679L141.901 493.936L143.261 491.574C143.664 490.757 144.156 489.983 144.729 489.264C145.352 488.572 146.115 488.006 146.972 487.599C147.808 487.234 148.697 486.99 149.609 486.876L159.424 485.082H159.506C160.109 485.125 160.706 485.229 161.287 485.392C161.903 485.521 162.46 485.833 162.877 486.282L162.497 486.205C163.015 485.933 163.594 485.784 164.186 485.77C164.778 485.757 165.364 485.879 165.895 486.127C166.814 486.678 167.483 487.534 167.771 488.528L167.676 488.412L176.513 494.865L178.892 496.646C179.178 496.844 179.447 497.064 179.694 497.304C179.381 497.151 179.086 496.97 178.81 496.762L176.35 495.072L167.377 488.799H167.309V488.709C167.056 487.844 166.469 487.102 165.664 486.631C165.216 486.426 164.722 486.328 164.225 486.344C163.728 486.359 163.242 486.489 162.809 486.721L162.578 486.824L162.429 486.644C162.083 486.304 161.638 486.07 161.151 485.973C160.609 485.83 160.053 485.739 159.492 485.702H159.574L149.759 487.534C148.902 487.64 148.067 487.871 147.285 488.218C146.513 488.581 145.828 489.091 145.273 489.715C144.737 490.403 144.281 491.143 143.913 491.922L142.554 494.284C141.833 495.575 141.194 496.866 140.474 498.027C139.913 499.484 139.459 500.976 139.114 502.493C139.036 502.845 138.995 503.204 138.992 503.564C139.01 503.874 139.145 504.167 139.373 504.39C139.606 504.612 139.899 504.77 140.22 504.848C140.54 504.925 140.877 504.919 141.194 504.829L141.521 504.752V505.048C141.67 505.603 141.847 506.171 142.051 506.7C142.2 507.185 142.47 507.628 142.839 507.991C142.928 508.016 143.022 508.016 143.111 507.991L143.505 507.914C143.78 507.855 144.049 507.773 144.307 507.668C144.566 507.578 144.824 507.462 145.082 507.346L145.273 507.268L145.667 507.372V507.436C145.741 507.536 145.823 507.631 145.912 507.72C146.165 507.976 146.49 508.159 146.849 508.246C147.208 508.333 147.585 508.32 147.937 508.21C148.154 508.175 148.354 508.076 148.508 507.927C148.987 507.148 149.165 506.235 149.011 505.345V505.113H149.229L155.672 503.667H155.754C158.259 504.906 160.671 506.307 162.973 507.862C163.775 508.417 164.332 508.856 164.781 509.153C164.992 509.242 165.197 509.345 165.392 509.462Z" fill="#FF9A6C"/>
<path d="M133.988 517.748C133.988 517.748 91.3695 505.035 77.9926 500.969C54.882 493.871 39.8465 501.047 35.0885 508.868C28.9166 519.025 43.721 538.837 49.4306 543.393C66.3285 556.88 95.2983 558.7 95.2983 558.7L199.459 558.519L169.103 519.309L133.988 517.748Z" fill="#263238"/>
<path d="M140.377 536.099C123.02 538.017 105.434 535.744 89.2481 529.49C86.4867 528.305 83.6434 527.301 80.7379 526.483C77.8657 525.796 74.8882 525.595 71.9423 525.89C70.7732 525.918 69.622 526.169 68.5571 526.628C67.4922 527.087 66.5353 527.744 65.7433 528.561C63.6633 531.142 64.7237 534.86 65.8792 537.931C67.2386 541.545 68.5981 545.236 71.317 548.127C74.4029 551.496 78.8891 553.432 83.3889 554.774C92.1845 557.356 101.469 558.169 110.687 558.504L142.334 556.865L140.377 536.099Z" fill="#E0E0E0"/>
<path d="M79.2581 526.496C79.466 526.738 79.6271 527.014 79.7339 527.309C80.1015 528.08 80.3839 528.884 80.5768 529.71C81.2601 532.456 81.14 535.328 80.2296 538.014C79.3191 540.7 77.6529 543.1 75.4109 544.952C74.7434 545.508 74.0245 546.004 73.2629 546.437C72.7056 546.733 72.3929 546.863 72.3657 546.824C72.3385 546.785 73.5076 546.075 75.0846 544.617C77.1536 542.739 78.696 540.4 79.572 537.812C80.448 535.225 80.6298 532.471 80.1009 529.8C79.7203 527.735 79.1493 526.535 79.2581 526.496Z" fill="#263238"/>
<path d="M242.77 515.265C240.295 508.605 239.888 498.822 224.621 494.124C209.354 489.426 197.826 498.434 189.982 501.558C182.138 504.681 139.275 527.009 139.275 527.009C139.275 527.009 131.2 540.677 133.497 546.718C135.795 552.758 146.235 558.721 146.235 558.721H194.183C206.554 558.721 229.529 558.321 229.529 558.321C232.605 553.534 235.361 548.568 237.78 543.452L238.188 541.491C238.229 539.929 245.23 521.924 242.77 515.265Z" fill="#263238"/>
<path d="M216.207 549.844C216.145 550.075 216.023 550.288 215.853 550.464C215.389 550.975 214.859 551.431 214.277 551.819C212.136 553.22 209.86 554.426 207.479 555.42C205.853 556.14 204.183 556.765 202.477 557.291C200.502 557.881 198.478 558.313 196.427 558.582C191.748 559.024 187.044 559.197 182.343 559.098C172.378 559.253 163.311 559.614 156.786 559.537C153.509 559.537 150.858 559.395 149.037 559.214C148.334 559.156 147.635 559.061 146.943 558.93C146.698 558.902 146.457 558.851 146.223 558.776C146.223 558.711 147.229 558.879 149.05 558.969C150.872 559.059 153.523 559.124 156.786 559.098C163.324 559.098 172.351 558.621 182.343 558.466C187.021 558.562 191.7 558.407 196.359 558.001C198.373 557.767 200.365 557.378 202.313 556.84C204.009 556.343 205.67 555.748 207.289 555.058C209.653 554.114 211.927 552.979 214.086 551.664C214.673 551.291 215.216 550.858 215.704 550.373C216.085 550.064 216.166 549.831 216.207 549.844Z" fill="#263238"/>
<path d="M146.237 558.723L145.598 558.401C145.19 558.181 144.592 557.82 143.817 557.342C141.562 555.945 139.451 554.351 137.509 552.58C136.103 551.299 134.903 549.83 133.947 548.217C132.971 546.198 132.723 543.93 133.241 541.764C134.406 536.575 136.362 531.575 139.045 526.922V526.857C146.903 522.753 155.916 518.094 165.758 513.073C170.68 510.569 175.805 507.975 181.134 505.329C183.853 504.038 186.572 502.748 189.291 501.457C192.009 500.166 194.796 498.876 197.61 497.482C201.498 495.46 205.668 493.969 209.995 493.055C212.12 492.652 214.285 492.466 216.452 492.5C218.573 492.561 220.679 492.846 222.733 493.352C226.714 494.283 230.453 495.978 233.717 498.334C235.235 499.528 236.579 500.908 237.714 502.438C238.757 503.946 239.619 505.561 240.283 507.252C240.963 508.904 241.439 510.569 241.928 512.195C242.489 513.775 242.943 515.387 243.288 517.022C243.501 520.145 243.226 523.281 242.472 526.328C241.86 529.232 241.113 531.942 240.338 534.459C239.957 535.75 239.576 536.95 239.223 538.124C238.869 539.299 238.462 540.461 238.271 541.493C238.108 542.229 237.986 542.784 237.85 543.442C236.541 547.43 234.69 551.239 232.344 554.774C231.513 556.038 230.533 557.207 229.421 558.259L229.598 558.026C229.748 557.858 229.938 557.652 230.169 557.368C230.89 556.508 231.561 555.612 232.181 554.684C234.446 551.128 236.231 547.317 237.496 543.339C238.271 542.719 238.122 542.113 237.891 541.377C238.128 540.199 238.437 539.036 238.815 537.892L239.916 534.24C240.65 531.658 241.384 529 241.983 526.121C242.707 523.123 242.963 520.04 242.744 516.971C242.386 515.368 241.932 513.787 241.384 512.234C240.881 510.608 240.392 508.956 239.726 507.342C239.077 505.691 238.233 504.115 237.211 502.644C236.108 501.164 234.8 499.831 233.323 498.682C228.434 495.203 222.544 493.222 216.439 493.003C214.321 492.97 212.206 493.156 210.131 493.558C205.855 494.459 201.735 495.932 197.896 497.934C195.177 499.224 192.458 500.773 189.535 501.922C186.612 503.07 184.097 504.439 181.379 505.794C176.063 508.375 170.924 510.956 166.003 513.538L139.249 527.231L139.344 527.128C136.669 531.729 134.705 536.671 133.512 541.803C132.976 543.896 133.191 546.099 134.124 548.062C135.039 549.66 136.203 551.118 137.577 552.386C139.484 554.171 141.554 555.79 143.763 557.226L145.503 558.336C145.992 558.581 146.237 558.723 146.237 558.723Z" fill="#263238"/>
<path d="M224.268 541.828C224.268 541.828 238.556 543.454 237.292 550.088C236.028 556.722 231.351 558.955 231.351 558.955L192.525 559.033C192.525 559.033 215.704 557.51 224.268 541.828Z" fill="#E0E0E0"/>
<path d="M225.657 538.617C225.653 539.263 225.505 539.901 225.221 540.489C224.696 541.973 223.915 543.364 222.91 544.606C221.556 546.416 219.662 547.801 217.473 548.581C219.276 547.297 220.93 545.834 222.407 544.219C223.654 542.441 224.741 540.567 225.657 538.617Z" fill="#263238"/>
<path d="M220.761 541.211C220.784 542.876 220.313 544.513 219.401 545.935C218.704 547.443 217.636 548.77 216.288 549.807C216.139 549.691 217.539 547.974 218.803 545.612C220.068 543.25 220.516 541.185 220.761 541.211Z" fill="#263238"/>
<path d="M238.923 557.109C238.814 557.109 239.738 555.38 240.853 552.527C243.78 545.078 244.746 537.063 243.667 529.179C243.246 526.172 242.756 524.327 242.865 524.301C243.08 524.709 243.236 525.143 243.327 525.591C243.663 526.76 243.931 527.945 244.129 529.141C245.49 537.094 244.511 545.249 241.302 552.708C240.817 553.808 240.268 554.88 239.657 555.922C239.463 556.344 239.216 556.742 238.923 557.109Z" fill="#455A64"/>
<g opacity="0.3">
<path d="M230.85 538.257C230.741 537.366 230.374 536.308 229.491 536.127C228.349 535.908 227.574 537.147 227.125 538.153C222.123 548.956 205.959 557.384 193.574 558.507C199.581 558.494 205.577 558.028 211.505 557.113C216.561 556.394 221.301 554.336 225.181 551.176C227.111 549.583 228.626 547.588 229.609 545.347C230.593 543.106 231.017 540.679 230.85 538.257Z" fill="black"/>
</g>
<path d="M136.259 523.554C133.892 522.923 131.589 522.089 129.38 521.063C127.084 520.237 124.873 519.213 122.773 518.004C125.138 518.639 127.44 519.468 129.652 520.482C131.949 521.312 134.16 522.34 136.259 523.554Z" fill="#263238"/>
<g opacity="0.2">
<path d="M150.071 517.847C131.582 514.491 113.026 511.509 94.4015 508.902L80.5352 513.058C84.4232 519.924 92.104 524.3 100.084 526.107C108.064 527.914 116.397 527.488 124.554 526.778C133.554 525.991 142.798 524.79 150.628 520.505C151.226 520.183 151.906 519.692 151.825 519.034C151.743 518.376 150.873 517.989 150.071 517.847Z" fill="black"/>
</g>
<path d="M59.0677 465.577L82.3686 514.493C82.84 515.49 83.603 516.337 84.567 516.935C85.531 517.532 86.6554 517.854 87.8064 517.862L155.779 518.7L164.343 514.325L150.925 513.396L130.044 465.823C129.719 465.082 129.172 464.449 128.471 464.002C127.771 463.554 126.947 463.312 126.102 463.306L60.9981 462.841C60.6508 462.829 60.3061 462.902 59.9966 463.052C59.6871 463.202 59.4231 463.424 59.2297 463.698C59.0363 463.973 58.9199 464.289 58.8916 464.618C58.8632 464.947 58.9239 465.277 59.0677 465.577Z" fill="#E0E0E0"/>
<path d="M59.0693 465.577C58.9581 465.394 58.8886 465.192 58.8654 464.983C58.8224 464.673 58.8579 464.358 58.969 464.064C59.0802 463.77 59.2637 463.505 59.5043 463.292C59.8759 462.965 60.3574 462.773 60.8638 462.75H66.8317L94.0886 462.84L113.039 462.931L123.629 462.995H126.348C127.355 463.064 128.31 463.445 129.067 464.079C129.796 464.729 130.335 465.547 130.631 466.454L131.745 469.035C137.686 482.549 144.252 497.494 151.213 513.292L150.886 513.072L163.842 513.976H164.304L165.663 514.066L164.508 514.66L155.943 519.035H155.848H155.753L104.23 518.364L92.7292 518.209C90.8531 518.209 89.0587 518.209 87.1962 518.106C86.266 518.002 85.3712 517.705 84.5749 517.237C83.7787 516.768 83.1003 516.14 82.5877 515.396C79.5561 509.342 77.0276 503.78 74.567 498.617L63.1748 474.43C61.8154 471.604 60.8366 469.397 60.1297 467.861C59.7898 467.138 59.5451 466.57 59.3548 466.157C59.1645 465.744 59.1101 465.564 59.1101 465.564C59.2262 465.747 59.3306 465.936 59.4228 466.131L60.2656 467.809C60.9997 469.319 62.0601 471.514 63.4331 474.263L75.0428 498.372C77.5034 503.444 80.1407 509.149 83.1043 515.034C83.5656 515.706 84.178 516.271 84.8973 516.691C85.6166 517.11 86.425 517.373 87.2642 517.461C89.0043 517.538 90.8939 517.525 92.702 517.551L104.203 517.68L155.726 518.274H155.536L164.1 513.886L164.263 514.57H163.801L150.845 513.679H150.614L150.519 513.485C143.6 497.662 137.047 482.716 131.12 469.19L130.019 466.674C129.776 465.853 129.307 465.109 128.659 464.518C128.013 463.964 127.19 463.633 126.321 463.576H123.602L113.012 463.486L94.075 463.305L66.791 462.995H62.5223H60.8366C60.5673 463.005 60.3029 463.066 60.0594 463.176C59.816 463.285 59.5986 463.441 59.4205 463.633C59.2424 463.825 59.1074 464.049 59.0236 464.293C58.9399 464.536 58.9092 464.793 58.9333 465.047C58.9683 465.226 59.0137 465.403 59.0693 465.577Z" fill="#263238"/>
<path d="M148.874 518.611C148.747 518.443 148.642 518.261 148.561 518.069L147.786 516.495C147.107 515.023 146.182 513.036 145.067 510.635C142.797 505.666 139.711 498.8 136.394 491.159C133.077 483.519 130.141 476.588 128.115 471.541C127.096 468.96 126.294 466.96 125.777 465.527C125.532 464.869 125.342 464.327 125.179 463.875C125.103 463.683 125.048 463.484 125.016 463.281C125.14 463.449 125.241 463.631 125.315 463.823L126.022 465.437C126.661 466.934 127.517 468.934 128.55 471.374C130.752 476.459 133.73 483.325 137.006 490.927C140.282 498.529 143.3 505.369 145.502 510.454L148.045 516.391C148.303 517.05 148.52 517.579 148.697 518.018C148.791 518.205 148.851 518.405 148.874 518.611Z" fill="#263238"/>
<path d="M106.731 489.287C106.734 489.916 106.54 490.532 106.173 491.056C105.807 491.58 105.285 491.989 104.673 492.231C104.062 492.473 103.388 492.537 102.738 492.415C102.088 492.292 101.491 491.99 101.022 491.545C100.554 491.1 100.235 490.533 100.107 489.916C99.978 489.299 100.045 488.66 100.3 488.079C100.555 487.498 100.986 487.003 101.538 486.655C102.09 486.307 102.738 486.122 103.401 486.125C104.284 486.125 105.131 486.458 105.756 487.051C106.381 487.644 106.731 488.448 106.731 489.287Z" fill="white"/>
<path d="M172.868 410.598C172.976 410.598 171.998 412.392 170.625 415.283C167.031 422.829 164.683 430.857 163.664 439.082C163.256 442.244 163.148 444.245 163.025 444.245C162.953 443.783 162.953 443.313 163.025 442.851C163.025 441.96 163.025 440.67 163.216 439.069C163.984 430.74 166.372 422.618 170.258 415.115C171.005 413.682 171.617 412.534 172.147 411.785C172.336 411.363 172.578 410.964 172.868 410.598Z" fill="#263238"/>
<path d="M275.547 445.183C275.304 445.254 275.053 445.293 274.799 445.299L272.638 445.493L264.563 446.138L236.952 448.113H236.599V447.777C236.368 444.293 236.123 440.614 235.878 436.846C235.484 430.263 235.144 423.939 235.036 418.273C234.684 413.169 235.908 408.078 238.557 403.624C240.375 400.62 243.059 398.171 246.292 396.564C247.165 396.149 248.075 395.808 249.011 395.545C249.336 395.448 249.668 395.371 250.003 395.312C250.003 395.416 248.644 395.687 246.401 396.797C243.283 398.459 240.71 400.907 238.964 403.87C236.445 408.279 235.317 413.284 235.715 418.286C235.851 423.978 236.205 430.25 236.599 436.833C236.844 440.601 237.075 444.28 237.306 447.752L236.925 447.442L264.563 445.712L272.719 445.261L274.881 445.183H275.547Z" fill="#263238"/>
<path d="M207.806 467.54C207.387 467.463 206.983 467.324 206.609 467.127C206.142 466.941 205.687 466.725 205.25 466.482C204.664 466.182 204.096 465.851 203.551 465.488C202.104 464.562 200.769 463.489 199.567 462.287C198.114 460.799 196.837 459.163 195.761 457.409C194.722 455.635 193.897 453.756 193.3 451.807C192.827 450.215 192.535 448.58 192.43 446.929C192.39 446.297 192.39 445.663 192.43 445.031C192.432 444.552 192.469 444.073 192.539 443.599C192.552 443.189 192.634 442.783 192.784 442.398C192.92 442.398 192.689 444.141 192.974 446.89C193.145 448.495 193.477 450.081 193.966 451.627C194.592 453.516 195.416 455.341 196.427 457.073C197.468 458.781 198.694 460.382 200.084 461.848C201.24 463.037 202.51 464.122 203.877 465.088C206.188 466.727 207.874 467.424 207.806 467.54Z" fill="#263238"/>
</svg>
