<svg width="216" height="256" viewBox="0 0 216 256" fill="none" xmlns="http://www.w3.org/2000/svg">
<g clip-path="url(#clip0_64_818)">
<rect width="216" height="256" rx="12" fill="#FFF4B1"/>
<g opacity="0.3">
<path d="M212.885 156H138.152C135.859 156 134.001 157.859 134.001 160.152V259.788C134.001 262.081 135.859 263.94 138.152 263.94H212.885C215.178 263.94 217.037 262.081 217.037 259.788V160.152C217.037 157.859 215.178 156 212.885 156Z" fill="#F6F4E6"/>
<path d="M192.057 240.297L183.2 231.44C183.068 231.308 182.903 231.214 182.723 231.168C182.542 231.122 182.352 231.125 182.174 231.178C181.995 231.23 181.833 231.33 181.706 231.467C181.579 231.603 181.491 231.771 181.452 231.953L179.464 241.097L177.584 242.977C177.202 243.367 176.989 243.893 176.991 244.44C176.994 244.986 177.213 245.51 177.599 245.897C177.986 246.283 178.51 246.502 179.057 246.505C179.603 246.507 180.129 246.294 180.52 245.912L182.399 244.033L191.544 242.045C191.726 242.005 191.894 241.917 192.031 241.79C192.167 241.663 192.267 241.502 192.319 241.323C192.372 241.144 192.375 240.954 192.329 240.774C192.283 240.593 192.189 240.428 192.057 240.297Z" fill="#D2D2D2"/>
<path d="M217.037 198.657V216.882L191.981 241.958L181.539 231.516L215.729 197.349L217.037 198.657Z" fill="#D2D2D2"/>
<path d="M140.228 259.788V160.152C140.228 159.05 140.665 157.995 141.444 157.216C142.222 156.437 143.278 156 144.38 156H138.152C137.051 156 135.995 156.437 135.216 157.216C134.437 157.995 134 159.05 134 160.152V259.788C134 260.89 134.437 261.945 135.216 262.724C135.995 263.503 137.051 263.94 138.152 263.94H144.38C143.278 263.94 142.222 263.503 141.444 262.724C140.665 261.945 140.228 260.89 140.228 259.788Z" fill="#FCFCFC"/>
<path d="M212.885 156H206.657C207.758 156 208.814 156.437 209.593 157.216C210.372 157.995 210.809 159.05 210.809 160.152V259.788C210.809 260.89 210.372 261.945 209.593 262.724C208.814 263.503 207.758 263.94 206.657 263.94H212.885C213.986 263.94 215.042 263.503 215.821 262.724C216.599 261.945 217.037 260.89 217.037 259.788V160.152C217.037 159.05 216.599 157.995 215.821 157.216C215.042 156.437 213.986 156 212.885 156Z" fill="#D2D2D2"/>
<path d="M189.385 240.297L180.527 231.44C180.396 231.308 180.231 231.214 180.05 231.168C179.869 231.122 179.68 231.125 179.501 231.178C179.322 231.23 179.161 231.33 179.034 231.467C178.907 231.603 178.819 231.771 178.779 231.953L176.791 241.097L174.912 242.977C174.527 243.367 174.313 243.893 174.315 244.441C174.317 244.989 174.535 245.513 174.923 245.901C175.31 246.288 175.835 246.507 176.383 246.509C176.93 246.511 177.457 246.296 177.847 245.912L179.726 244.033L188.871 242.045C189.054 242.005 189.222 241.917 189.358 241.79C189.495 241.663 189.594 241.502 189.647 241.323C189.699 241.144 189.703 240.954 189.657 240.774C189.61 240.593 189.517 240.428 189.385 240.297Z" fill="#FD794B"/>
<path d="M189.385 240.297L188.378 239.289C188.354 239.497 188.266 239.693 188.127 239.848C187.987 240.004 187.802 240.112 187.598 240.157L179.049 242.016C178.66 242.1 178.303 242.295 178.022 242.576L176.574 244.024C176.292 244.335 175.916 244.546 175.504 244.626C175.092 244.705 174.665 244.648 174.287 244.464C174.295 244.873 174.423 245.27 174.655 245.607C174.886 245.944 175.212 246.206 175.59 246.36C175.969 246.514 176.385 246.554 176.786 246.474C177.187 246.394 177.556 246.199 177.847 245.912L179.726 244.033L188.871 242.045C189.054 242.005 189.222 241.917 189.358 241.79C189.495 241.663 189.594 241.502 189.647 241.323C189.699 241.144 189.703 240.954 189.657 240.774C189.61 240.593 189.517 240.428 189.385 240.297Z" fill="#FD5D26"/>
<path d="M235.139 205.943L214.338 226.742C213.949 227.128 213.423 227.345 212.875 227.345C212.326 227.345 211.8 227.128 211.411 226.742C211.022 226.355 210.802 225.831 210.798 225.283C210.794 224.735 211.007 224.207 211.39 223.815L227.831 207.375L226.856 206.4L224.884 204.407C224.691 204.215 224.538 203.987 224.434 203.736C224.33 203.485 224.276 203.215 224.276 202.944C224.276 202.672 224.33 202.402 224.434 202.151C224.538 201.9 224.691 201.672 224.884 201.48C225.073 201.283 225.3 201.127 225.552 201.02C225.803 200.913 226.074 200.857 226.347 200.857C226.62 200.857 226.891 200.913 227.142 201.02C227.394 201.127 227.621 201.283 227.811 201.48L229.804 203.473L230.779 204.428L232.191 203.016C232.58 202.632 233.106 202.416 233.653 202.417C234.201 202.418 234.726 202.634 235.114 203.02C235.502 203.406 235.723 203.929 235.728 204.477C235.732 205.024 235.521 205.551 235.139 205.943Z" fill="#FEBDA6"/>
<path d="M229.804 203.473L226.856 206.4L224.884 204.407C224.691 204.215 224.538 203.987 224.434 203.736C224.33 203.485 224.276 203.215 224.276 202.944C224.276 202.672 224.33 202.402 224.434 202.151C224.538 201.9 224.691 201.672 224.884 201.48C225.073 201.283 225.3 201.127 225.552 201.02C225.803 200.913 226.074 200.857 226.347 200.857C226.62 200.857 226.891 200.913 227.142 201.02C227.394 201.127 227.621 201.283 227.811 201.48L229.804 203.473Z" fill="#FEA181"/>
<path d="M213.053 197.326L223.482 207.755L189.304 241.93L178.875 231.502L213.053 197.326Z" fill="#FEBDA6"/>
<path d="M187.511 240.172L221.689 205.997L223.467 207.774L189.289 241.95L187.511 240.172Z" fill="#FEA181"/>
<path d="M233.045 195.15C233.041 197.11 232.26 198.989 230.874 200.375L223.12 208.129L222.905 208.367L212.479 197.918L220.448 189.949C221.479 188.921 222.793 188.221 224.222 187.937C225.651 187.653 227.132 187.798 228.479 188.354C229.826 188.91 230.978 189.852 231.79 191.061C232.603 192.271 233.039 193.693 233.045 195.15Z" fill="#FD794B"/>
<path d="M230.874 189.949C230.1 189.18 229.164 188.594 228.134 188.233C229.626 189.751 230.455 191.798 230.439 193.926C230.422 196.055 229.562 198.089 228.047 199.584L221.079 206.537L222.905 208.367L223.12 208.129L230.874 200.375C231.562 199.692 232.108 198.88 232.481 197.986C232.853 197.091 233.045 196.131 233.045 195.162C233.045 194.193 232.853 193.234 232.481 192.339C232.108 191.444 231.562 190.632 230.874 189.949Z" fill="#FD5D26"/>
<path d="M171.367 205.818H148.531C147.981 205.818 147.453 205.6 147.064 205.21C146.674 204.821 146.456 204.293 146.456 203.743C146.456 203.192 146.674 202.664 147.064 202.275C147.453 201.886 147.981 201.667 148.531 201.667H171.367C171.917 201.667 172.445 201.886 172.834 202.275C173.224 202.664 173.442 203.192 173.442 203.743C173.442 204.293 173.224 204.821 172.834 205.21C172.445 205.6 171.917 205.818 171.367 205.818Z" fill="#FEBDA6"/>
<path d="M148.531 191.288H202.505C203.056 191.288 203.584 191.507 203.973 191.896C204.362 192.285 204.581 192.813 204.581 193.364C204.581 193.914 204.362 194.442 203.973 194.832C203.584 195.221 203.056 195.44 202.505 195.44H148.531C147.981 195.44 147.453 195.221 147.064 194.832C146.674 194.442 146.456 193.914 146.456 193.364C146.456 192.813 146.674 192.285 147.064 191.896C147.453 191.507 147.981 191.288 148.531 191.288Z" fill="#FEBDA6"/>
<path d="M148.531 180.909H202.505C203.056 180.909 203.584 181.128 203.973 181.517C204.362 181.906 204.581 182.434 204.581 182.985C204.581 183.536 204.362 184.064 203.973 184.453C203.584 184.842 203.056 185.061 202.505 185.061H148.531C147.981 185.061 147.453 184.842 147.064 184.453C146.674 184.064 146.456 183.536 146.456 182.985C146.456 182.434 146.674 181.906 147.064 181.517C147.453 181.128 147.981 180.909 148.531 180.909Z" fill="#FEBDA6"/>
<path d="M148.531 170.53H202.505C203.056 170.53 203.584 170.749 203.973 171.138C204.362 171.528 204.581 172.056 204.581 172.606C204.581 173.157 204.362 173.685 203.973 174.074C203.584 174.463 203.056 174.682 202.505 174.682H148.531C147.981 174.682 147.453 174.463 147.064 174.074C146.674 173.685 146.456 173.157 146.456 172.606C146.456 172.056 146.674 171.528 147.064 171.138C147.453 170.749 147.981 170.53 148.531 170.53Z" fill="#FEBDA6"/>
</g>
</g>
<defs>
<clipPath id="clip0_64_818">
<rect width="216" height="256" rx="12" fill="white"/>
</clipPath>
</defs>
</svg>
