<svg width="216" height="256" viewBox="0 0 216 256" fill="none" xmlns="http://www.w3.org/2000/svg">
<g clip-path="url(#clip0_64_805)">
<rect width="216" height="256" rx="12" fill="#EAF9E8"/>
<g opacity="0.2">
<path d="M215.95 171.35H194.8C193.9 171.35 193 170.45 193 169.55C193 168.65 193.9 167.75 194.8 167.75H215.95C216.85 167.75 217.75 168.65 217.75 169.55C217.75 170.45 216.85 171.35 215.95 171.35Z" fill="#CCD0D2"/>
<path d="M223.6 178.325H195.025C194.125 178.325 193.225 177.425 193.225 176.525C193.225 175.625 194.125 174.725 195.025 174.725H223.6C224.5 174.725 225.4 175.625 225.4 176.525C225.4 177.425 224.5 178.325 223.6 178.325Z" fill="#CCD0D2"/>
<path d="M183.1 177.2C182.875 169.55 178.15 166.4 172.075 166.4C166 166.4 161.275 169.325 161.05 177.2C161.05 182.825 183.1 182.825 183.1 177.2Z" fill="#4ECB3E"/>
<path d="M172.075 161.45C174.685 161.45 176.8 159.335 176.8 156.725C176.8 154.115 174.685 152 172.075 152C169.465 152 167.35 154.115 167.35 156.725C167.35 159.335 169.465 161.45 172.075 161.45Z" fill="#4ECB3E"/>
<path d="M215.95 210.725H194.8C193.9 210.725 193 209.825 193 208.925C193 208.025 193.9 207.125 194.8 207.125H215.95C216.85 207.125 217.75 208.025 217.75 208.925C217.75 209.825 216.85 210.725 215.95 210.725Z" fill="#CCD0D2"/>
<path d="M223.6 217.7H195.025C194.125 217.7 193.225 216.8 193.225 215.9C193.225 215 194.125 214.1 195.025 214.1H223.6C224.5 214.1 225.4 215 225.4 215.9C225.4 216.8 224.5 217.7 223.6 217.7Z" fill="#CCD0D2"/>
<path d="M183.1 216.35C182.875 208.7 178.15 205.55 172.075 205.55C166 205.55 161.275 208.475 161.05 216.35C161.05 222.2 183.1 222.2 183.1 216.35Z" fill="#4ECB3E"/>
<path d="M172.075 200.6C174.685 200.6 176.8 198.485 176.8 195.875C176.8 193.265 174.685 191.15 172.075 191.15C169.465 191.15 167.35 193.265 167.35 195.875C167.35 198.485 169.465 200.6 172.075 200.6Z" fill="#4ECB3E"/>
<path d="M215.95 249.875H194.8C193.9 249.875 193 248.975 193 248.075C193 247.175 193.9 246.275 194.8 246.275H215.95C216.85 246.275 217.75 247.175 217.75 248.075C217.75 249.2 216.85 249.875 215.95 249.875Z" fill="#CCD0D2"/>
<path d="M223.6 256.85H195.025C194.125 256.85 193.225 255.95 193.225 255.05C193.225 254.15 194.125 253.25 195.025 253.25H223.6C224.5 253.25 225.4 254.15 225.4 255.05C225.4 256.175 224.5 256.85 223.6 256.85Z" fill="#CCD0D2"/>
<path d="M183.1 255.725C182.875 248.075 178.15 244.925 172.075 244.925C166 244.925 161.275 247.85 161.05 255.725C161.05 261.35 183.1 261.35 183.1 255.725Z" fill="#4ECB3E"/>
<path d="M172.075 239.975C174.685 239.975 176.8 237.86 176.8 235.25C176.8 232.64 174.685 230.525 172.075 230.525C169.465 230.525 167.35 232.64 167.35 235.25C167.35 237.86 169.465 239.975 172.075 239.975Z" fill="#4ECB3E"/>
<path d="M140.8 177.65C134.95 177.65 130 172.925 130 166.85C130 161 134.95 156.275 140.8 156.275C141.7 156.275 142.6 157.175 142.6 158.075C142.6 158.975 141.7 159.875 140.8 159.875C136.75 159.875 133.6 163.025 133.6 167.075C133.6 171.125 136.75 174.275 140.8 174.275C144.85 174.275 148 171.125 148 167.075C148 166.175 148.9 165.275 149.8 165.275C150.7 165.275 151.6 166.175 151.6 167.075C151.375 172.925 146.65 177.65 140.8 177.65Z" fill="#CCD0D2"/>
<path d="M140.8 170.225C140.35 170.225 139.9 170 139.45 169.55L136.3 166.4C135.4 165.5 135.4 164.6 136.3 163.7C136.975 163.025 138.1 163.025 138.775 163.7L140.8 165.725L150.475 156.05C151.15 155.375 152.275 155.375 152.95 156.05C153.625 156.725 153.625 157.85 152.95 158.525L141.925 169.55C141.7 170 141.25 170.225 140.8 170.225Z" fill="#83DA78"/>
<path d="M140.8 217.025C134.95 217.025 130 212.3 130 206.225C130 200.375 134.725 195.425 140.8 195.425C141.7 195.425 142.6 196.325 142.6 197.225C142.6 198.125 141.7 199.025 140.8 199.025C136.75 199.025 133.6 202.175 133.6 206.225C133.6 210.275 136.75 213.425 140.8 213.425C144.85 213.425 148 210.275 148 206.225C148 205.325 148.9 204.425 149.8 204.425C150.7 204.425 151.6 205.325 151.6 206.225C151.375 212.075 146.65 217.025 140.8 217.025Z" fill="#CCD0D2"/>
<path d="M140.8 209.375C140.35 209.375 139.9 209.15 139.45 208.925L136.075 205.55C135.4 204.875 135.4 203.75 136.075 203.075C136.75 202.4 137.875 202.4 138.55 203.075L140.575 205.1L150.25 195.425C150.925 194.75 152.05 194.75 152.725 195.425C153.4 196.1 153.4 197.225 152.725 197.9L141.925 208.7C141.7 209.15 141.25 209.375 140.8 209.375Z" fill="#83DA78"/>
<path d="M140.8 256.175C134.95 256.175 130 251.45 130 245.375C130 239.525 134.725 234.575 140.8 234.575C141.7 234.575 142.6 235.475 142.6 236.375C142.6 237.275 141.7 238.175 140.8 238.175C136.75 238.175 133.6 241.325 133.6 245.375C133.6 249.425 136.75 252.575 140.8 252.575C144.85 252.575 148 249.425 148 245.375C148 244.475 148.9 243.575 149.8 243.575C150.7 243.575 151.6 244.475 151.6 245.375C151.375 251.45 146.65 256.175 140.8 256.175Z" fill="#CCD0D2"/>
<path d="M140.8 248.75C140.35 248.75 139.9 248.525 139.45 248.3L136.075 244.925C135.4 244.25 135.4 243.125 136.075 242.45C136.75 241.775 137.875 241.775 138.55 242.45L140.575 244.475L150.25 234.8C150.925 234.125 152.05 234.125 152.725 234.8C153.4 235.475 153.4 236.6 152.725 237.275L141.925 248.075C141.7 248.525 141.25 248.75 140.8 248.75Z" fill="#83DA78"/>
</g>
</g>
<defs>
<clipPath id="clip0_64_805">
<rect width="216" height="256" rx="12" fill="white"/>
</clipPath>
</defs>
</svg>
