<svg width="164" height="175" viewBox="0 0 164 175" fill="none" xmlns="http://www.w3.org/2000/svg">
<circle cx="82" cy="82" r="82" fill="#FEBDA6"/>
<path d="M92.1286 152.767C105.463 155.573 116.749 163.806 123.484 175H40.5134C47.249 163.806 58.5349 155.573 71.8692 152.767H92.1286Z" fill="#FD794B"/>
<path d="M72.8239 165.225L81.9999 175L91.176 165.225L89.6754 158.531L81.9999 158.744H73.5604L72.8239 165.225Z" fill="#61A2F9"/>
<path d="M77.4638 152.767C71.4916 155.575 66.4361 163.807 63.4204 175H40.5134C47.2519 163.807 58.5352 155.575 71.8714 152.767H77.4638Z" fill="#FD794B"/>
<path d="M92.1314 135.506V152.767L82.0006 158.746L79.1617 157.072L71.8698 152.767V135.506H92.1314Z" fill="#AA7A63"/>
<path d="M92.1314 135.506V142.646C89.836 143.103 87.4589 143.344 85.0261 143.344H79.1617V157.072L71.8698 152.767V135.506H92.1314Z" fill="#986B54"/>
<path d="M81.9999 158.744L68.1015 168.561L64.2935 155.023L71.8692 151.158L81.9999 158.744Z" fill="#B1411B"/>
<path d="M81.9999 158.744L92.1308 151.158L99.7065 155.023L95.8985 168.561L81.9999 158.744Z" fill="#B1411B"/>
<path d="M54.0853 143.624C61.6132 136.223 64.175 126.741 59.8072 122.447C55.4394 118.152 45.7961 120.671 38.2683 128.073C30.7404 135.474 28.1787 144.955 32.5464 149.25C36.9142 153.544 46.5575 151.025 54.0853 143.624Z" fill="#444444"/>
<path d="M59.8265 122.456C56.1395 124.152 50.3898 128.508 44.5549 134.245C38.72 139.985 34.29 145.635 32.5613 149.26C30.5442 141.955 32.45 133.82 38.2846 128.08C44.1198 122.343 52.3938 120.472 59.8265 122.456Z" fill="#292929"/>
<path d="M131.408 149.257C135.776 144.963 133.214 135.482 125.686 128.08C118.158 120.679 108.515 118.16 104.147 122.454C99.7793 126.749 102.341 136.23 109.869 143.632C117.397 151.033 127.04 153.552 131.408 149.257Z" fill="#444444"/>
<path d="M104.173 122.453C105.899 126.078 110.329 131.731 116.163 137.468C122.002 143.205 127.748 147.561 131.435 149.261C124.006 151.244 115.732 149.37 109.893 143.633C104.059 137.896 102.156 129.761 104.173 122.453Z" fill="#292929"/>
<path d="M81.9991 15C55.7255 15 34.4268 35.941 34.4268 61.7729V94.6989H129.571V61.7732C129.571 35.941 108.272 15 81.9991 15Z" fill="#444444"/>
<path d="M97.5589 17.5591C78.9281 23.8978 65.5493 41.2982 65.5493 61.7732V94.697H34.4268V61.7729C34.4268 35.941 55.7255 15 81.9991 15C87.4475 15 92.6836 15.9009 97.5589 17.5591Z" fill="#292929"/>
<path d="M36.9707 113.028C44.1342 113.028 49.9414 107.318 49.9414 100.275C49.9414 93.232 44.1342 87.5223 36.9707 87.5223C29.8072 87.5223 24 93.232 24 100.275C24 107.318 29.8072 113.028 36.9707 113.028Z" fill="#986B54"/>
<path d="M127.029 113.028C134.193 113.028 140 107.318 140 100.275C140 93.232 134.193 87.5223 127.029 87.5223C119.866 87.5223 114.059 93.232 114.059 100.275C114.059 107.318 119.866 113.028 127.029 113.028Z" fill="#986B54"/>
<path d="M45.1045 103.76C44.2419 103.76 43.405 103.313 42.9559 102.519C42.1852 101.156 40.8601 100.4 38.9057 100.207C37.3073 100.049 35.9218 100.359 35.9085 100.362C34.5901 100.68 33.2615 99.8877 32.9383 98.5927C32.615 97.2977 33.4207 95.9902 34.7379 95.6724C34.9578 95.6192 36.9551 95.1611 39.3964 95.402C42.9674 95.7549 45.6827 97.4042 47.2483 100.172C47.9075 101.337 47.481 102.808 46.2958 103.456C45.9179 103.662 45.5085 103.76 45.1045 103.76Z" fill="#845C47"/>
<path d="M118.893 103.76C118.489 103.76 118.079 103.662 117.702 103.456C116.516 102.808 116.09 101.337 116.749 100.172C118.315 97.4042 121.03 95.7548 124.601 95.402C127.043 95.1614 129.04 95.6192 129.259 95.6723C130.577 95.9902 131.383 97.2977 131.059 98.5927C130.737 99.8845 129.414 100.675 128.099 100.365C128.054 100.354 126.618 100.035 124.975 100.219C123.083 100.432 121.796 101.185 121.041 102.519C120.592 103.313 119.756 103.76 118.893 103.76Z" fill="#845C47"/>
<path d="M120.533 81.1279V101.297C120.533 120.578 104.636 136.207 85.0262 136.207H78.9752C59.3651 136.207 43.4652 120.577 43.4652 101.297V89.0473C43.4652 79.5858 51.2647 71.9173 60.8879 71.9173C67.2825 71.9173 73.5497 70.6876 79.3649 68.357C85.18 66.0292 90.5369 62.6007 95.1109 58.2063L100.006 53.5029C100.006 53.5029 105.471 70.5429 120.533 81.1279Z" fill="#AA7A63"/>
<path d="M92.6455 135.399C90.193 135.931 87.6424 136.207 85.0262 136.207H78.9752C59.3651 136.207 43.4652 120.577 43.4652 101.297V89.0473C43.4652 79.5858 51.2647 71.9173 60.8879 71.9173C62.1844 71.9173 63.4745 71.8664 64.7547 71.7664V101.297C64.7547 118.005 76.6963 131.974 92.6455 135.399Z" fill="#986B54"/>
<path d="M63.6983 85.8636C62.7689 85.8636 61.9101 86.2674 61.2064 86.9455L59.5826 85.8096C58.4774 85.0364 56.9442 85.2908 56.1578 86.3774C55.3715 87.4639 55.6302 88.9714 56.7354 89.7446L59.403 91.6105C59.403 91.6243 59.4014 91.638 59.4014 91.6518C59.4014 94.8433 61.3291 97.4399 63.6983 97.4399C66.0674 97.4399 67.9951 94.8433 67.9951 91.6518C67.9948 88.4599 66.0674 85.8636 63.6983 85.8636Z" fill="#292929"/>
<path d="M107.843 86.377C107.057 85.2908 105.524 85.0358 104.418 85.8092L102.794 86.9451C102.09 86.267 101.231 85.8633 100.302 85.8633C97.9324 85.8633 96.005 88.4595 96.005 91.6511C96.005 94.8427 97.9324 97.4392 100.302 97.4392C102.671 97.4392 104.599 94.8427 104.599 91.6511C104.599 91.6373 104.597 91.6236 104.597 91.6098L107.265 89.7439C108.37 88.9714 108.629 87.4639 107.843 86.377Z" fill="#292929"/>
<path d="M69.2219 83.2292C68.5936 83.2292 67.9649 82.9933 67.4856 82.522C65.5369 80.6064 62.3671 80.6064 60.4184 82.522C59.4595 83.4648 57.9046 83.4648 56.9454 82.522C55.9861 81.5792 55.9861 80.0504 56.9454 79.1073C58.8168 77.2673 61.3052 76.2539 63.9518 76.2539C66.5985 76.2539 69.0865 77.2673 70.9583 79.1073C71.9175 80.0501 71.9175 81.5789 70.9583 82.522C70.479 82.9933 69.8503 83.2292 69.2219 83.2292Z" fill="#444444"/>
<path d="M105.688 83.2292C105.06 83.2292 104.431 82.9936 103.952 82.522C103.008 81.5939 101.753 81.0829 100.418 81.0829C99.0833 81.0829 97.8285 81.5942 96.8842 82.522C95.9253 83.4651 94.3704 83.4651 93.4111 82.522C92.4522 81.5789 92.4522 80.0504 93.4115 79.1073C95.2829 77.2673 97.7713 76.2539 100.418 76.2539C103.065 76.2539 105.553 77.2673 107.424 79.1073C108.383 80.0504 108.383 81.5789 107.424 82.522C106.945 82.9933 106.317 83.2292 105.688 83.2292Z" fill="#444444"/>
<path d="M81.9999 116.649C77.465 116.649 73.3938 113.667 72.0992 109.398C71.7118 108.12 72.4514 106.775 73.7511 106.394C75.051 106.013 76.4184 106.74 76.8061 108.018C77.4847 110.256 79.6209 111.82 82.0003 111.82C84.3825 111.82 86.518 110.257 87.1938 108.02C87.5793 106.742 88.9476 106.014 90.2469 106.393C91.5472 106.773 92.2884 108.117 91.9019 109.395C90.6118 113.666 86.54 116.649 81.9999 116.649Z" fill="#845C47"/>
<path d="M108.126 64.9973C96.4954 64.9973 86.7838 73.2095 84.6613 84.0448C83.8184 83.7551 82.9214 83.5986 81.9997 83.5986C81.0783 83.5986 80.1813 83.7551 79.3387 84.0445C77.2162 73.2092 67.5043 64.9973 55.8739 64.9973C42.695 64.9973 31.973 75.5389 31.973 88.4967C31.973 101.454 42.6947 111.996 55.8739 111.996C68.7569 111.996 79.2856 101.92 79.7522 89.3639C80.3367 88.7661 81.1269 88.4277 82 88.4277C82.8731 88.4277 83.6636 88.7661 84.2478 89.3639C84.7143 101.92 95.2431 111.996 108.126 111.996C121.305 111.996 132.027 101.454 132.027 88.4967C132.027 75.5389 121.305 64.9973 108.126 64.9973ZM55.8739 107.167C45.403 107.167 36.8846 98.7914 36.8846 88.4967C36.8846 78.2017 45.403 69.8264 55.8739 69.8264C66.3445 69.8264 74.8629 78.2017 74.8629 88.4967C74.8632 98.7914 66.3445 107.167 55.8739 107.167ZM108.126 107.167C97.6552 107.167 89.1371 98.7914 89.1371 88.4967C89.1371 78.2017 97.6555 69.8264 108.126 69.8264C118.597 69.8264 127.115 78.2017 127.115 88.4967C127.115 98.7914 118.597 107.167 108.126 107.167Z" fill="#FD794B"/>
</svg>
