<svg width="66" height="66" viewBox="0 0 66 66" fill="none" xmlns="http://www.w3.org/2000/svg">
<g clip-path="url(#clip0_1271_6055)">
<rect width="66" height="66" rx="33" fill="#FFDC64"/>
<path d="M66.9546 36.9659C66.9546 56.385 53.5423 67.8047 35.0286 67.8047C22.7418 67.8047 11.4925 65.1936 5.65586 54.8532C2.69792 49.6128 1 43.4972 1 36.9659C1 17.547 16.0083 1.80469 34.5221 1.80469C48.9637 1.80469 61.2723 11.3834 65.9883 24.8141C67.3181 28.6012 66.9546 32.6946 66.9546 36.9659Z" fill="#FFDC64"/>
<path d="M65.8447 34.2252C65.8447 34.2237 65.8447 34.2221 65.8447 34.2205C65.8441 30.628 65.2475 27.0301 64.0712 23.6276L64.0704 23.6269C64.0002 23.4238 63.928 23.2218 63.854 23.0205C63.0393 20.8086 59.7662 21.4186 59.7744 23.7757C59.7745 23.8142 59.7747 23.8525 59.7747 23.891C59.7747 24.1927 59.7698 24.493 59.7616 24.7927C59.3683 24.9286 58.9646 25.047 58.5537 25.148L53.0416 19.636C53.0416 19.636 53.0416 19.636 53.0416 19.6358L45.6541 12.2484C46.0811 10.4528 46.8157 8.7903 48.0249 7.5812L49.5823 6.11061C47.4712 4.89452 45.2098 3.9111 42.8336 3.19141C39.5381 6.76706 38.043 12.1416 38.3902 19.1803C38.4603 20.5998 38.6008 21.9463 38.7683 23.1539C40.5338 23.3985 42.0019 23.7002 42.9663 23.9225C41.8685 23.6769 40.3693 23.3758 38.7683 23.1539C37.5606 22.9866 36.2141 22.8459 34.7946 22.776C27.4825 22.4158 21.9649 24.0421 18.3958 27.611C14.8269 31.18 13.2001 36.6973 13.5608 44.0097C13.6288 45.3884 13.7636 46.6971 13.9246 47.8776C12.7441 47.7166 11.4352 47.5818 10.0566 47.5139C8.34649 47.4297 6.7348 47.4542 5.2231 47.5867C4.4079 46.825 3.63156 46.0222 2.89844 45.1808C3.2071 46.0408 3.5595 46.9002 3.94089 47.7315C3.94036 47.7316 3.9397 47.7316 3.93917 47.7318C5.01166 50.0691 6.35263 52.2575 7.9248 54.2559H7.92704C10.278 57.2445 13.1812 59.8533 16.516 61.8954V61.8959C21.6013 65.0094 27.4319 66.6481 33.4218 66.6481C51.4713 66.6484 65.8447 51.9873 65.8447 34.2252ZM27.2265 50.4453C25.7213 50.3765 22.8424 49.7609 21.0451 49.3467C20.7585 47.8739 20.4371 45.807 20.3341 43.553C20.2956 42.7122 20.2865 41.8032 20.3276 40.8703L27.2791 47.8217L29.9092 50.4519C28.9763 50.493 28.0674 50.4838 27.2265 50.4453ZM33.3342 50.0372L20.7423 37.4453C21.0516 35.9929 21.5519 34.6107 22.3295 33.4651L30.3997 41.5353L37.3144 48.45C36.1689 49.2275 34.7866 49.7279 33.3342 50.0372ZM39.2344 46.5299L24.2504 31.5459C25.3573 30.7975 26.6848 30.3107 28.0833 30.0033L37.4622 39.3821L40.7886 42.7086C40.4768 44.1042 39.9836 45.4267 39.2344 46.5299ZM41.2281 39.3084L39.382 37.4623L31.4873 29.5675C32.4789 29.5154 33.4463 29.5189 34.3375 29.5496C37.0248 29.6423 40.4826 30.4525 40.4826 30.4525C40.772 31.9014 41.1093 33.9963 41.224 36.3195C41.27 37.2527 41.281 38.2684 41.2281 39.3084ZM52.056 25.6158C49.4857 25.4365 47.2047 24.968 45.8995 24.6553C45.6128 23.2087 45.2826 21.1392 45.1694 18.8461C45.1198 17.8401 45.1108 16.7382 45.1789 15.6134L55.2007 25.6352C54.1058 25.7002 53.0344 25.6841 52.056 25.6158Z" fill="#FFC305"/>
<path d="M19.832 27.3047L21.7516 25.3851L41.7218 45.3553L39.8022 47.2749L19.832 27.3047Z" fill="#05CDFF"/>
<path d="M24.4414 22.6992L26.361 20.7796L46.3313 40.7499L44.4117 42.6695L24.4414 22.6992Z" fill="white"/>
<path d="M38.4267 33.4023C37.2172 33.4023 36.6115 34.8646 37.4668 35.7199L44.4209 42.674L46.3408 40.754L39.3867 33.7999C39.1321 33.5453 38.7868 33.4023 38.4267 33.4023Z" fill="#E8D6FF"/>
<path d="M40.1836 6.96094L42.1032 5.04134L62.0735 25.0116L60.1539 26.9312L40.1836 6.96094Z" fill="#F5415F"/>
<path d="M15.1289 32.0078L17.0485 30.0882L37.0187 50.0584L35.0991 51.978L15.1289 32.0078Z" fill="#F5415F"/>
<path d="M31.3642 35.5547C30.1547 35.5547 29.549 37.017 30.4043 37.8722L39.8132 47.2811L41.7331 45.3612L32.3242 35.9523C32.0696 35.6978 31.7243 35.5547 31.3642 35.5547Z" fill="#05ACFF"/>
<path d="M26.3672 20.7773L46.3405 40.7505L26.3672 20.7773Z" fill="white"/>
<path d="M51.123 17.8918L60.1606 26.9294L62.0805 25.0095L53.043 15.9718C52.7883 15.7172 52.443 15.5742 52.083 15.5742C50.8735 15.5742 50.2678 17.0367 51.123 17.8918Z" fill="#CD2846"/>
<path d="M28.2431 41.8398C27.0337 41.8398 26.4279 43.3021 27.2832 44.1574L35.1091 51.9833L37.0291 50.0635L29.2031 42.2376C28.9486 41.9829 28.6032 41.8398 28.2431 41.8398Z" fill="#CD2846"/>
<path d="M46.3066 21.1357C46.0145 19.6809 45.6742 17.5778 45.5584 15.2454C45.3764 11.5748 45.7286 6.63312 48.4394 3.93589L43.5964 -0.882812C39.9951 2.7003 38.3536 8.23957 38.7175 15.581C38.7883 17.0062 38.9301 18.358 39.0991 19.5705C42.2445 20.0042 44.4554 20.6167 44.5821 20.6522L46.3066 21.1357Z" fill="#265CDE"/>
<path d="M63.7497 19.1685C61.0617 21.843 56.1474 22.2936 52.5066 22.0409C48.4669 21.7605 45.1308 20.7749 45.1308 20.7749C45.0041 20.7393 42.2438 20.003 39.0984 19.5693C37.8798 19.4013 36.5211 19.2601 35.0888 19.1898C27.7105 18.8282 22.1429 20.461 18.5416 24.0441C14.9403 27.6272 13.2989 33.1665 13.6629 40.508C13.7315 41.8921 13.8674 43.206 14.0299 44.3912C17.2315 44.8255 19.4915 45.4513 19.6196 45.4872L21.2293 45.9384C20.9367 44.4555 20.6034 42.3487 20.4978 40.0492C20.3312 36.4221 20.6966 31.5372 23.3848 28.8626C26.0729 26.1881 30.9815 25.865 34.6279 25.9901C37.3396 26.0832 40.8286 26.8966 40.8286 26.8966L42.5533 27.38C42.6798 27.4156 44.8907 28.0281 48.0361 28.4617C49.2547 28.6296 50.6134 28.7709 52.0457 28.8411C52.7163 28.8741 53.3709 28.8905 54.0115 28.8905C60.419 28.8905 65.3189 27.2445 68.5929 23.987L63.7497 19.1685Z" fill="#0037BD"/>
<path d="M23.0876 53.4059C19.886 52.9716 17.6259 52.3458 17.4979 52.3099L15.8906 51.8594C16.1768 53.3083 16.5013 55.359 16.6138 57.6249C16.6813 58.9876 16.6749 60.5255 16.5018 62.0586C18.5169 63.3003 20.6772 64.3301 22.9522 65.1173C23.4287 62.7936 23.5981 60.182 23.4547 57.2893C23.3861 55.9053 23.2501 54.5912 23.0876 53.4059Z" fill="#0037BD"/>
<path d="M48.0364 28.4635C44.891 28.0299 42.6802 27.4173 42.5536 27.3819L40.8289 26.8984C41.121 28.3531 41.4613 30.4563 41.577 32.7887C41.759 36.4594 41.4069 41.401 38.696 44.0982C36.0082 46.7725 31.0986 47.1367 27.453 46.9707C25.1416 46.8655 19.6201 45.4889 19.6201 45.4889C19.4919 45.453 17.232 44.8272 14.0303 44.3929C12.8391 44.2313 11.5185 44.096 10.1273 44.0277C7.35826 43.892 4.8444 44.0372 2.59375 44.4609C3.33896 46.736 4.32903 48.9008 5.53338 50.9248C6.96638 50.7777 8.39352 50.7704 9.66633 50.8282C11.7851 50.9246 15.2365 51.6385 15.8103 51.8231C16.2904 51.9777 17.4857 52.3076 17.4994 52.31C17.6274 52.3459 19.8875 52.9717 23.0892 53.406C24.2804 53.5676 25.601 53.7029 26.9921 53.7712C27.6628 53.8041 28.3172 53.8205 28.9578 53.8205C35.3653 53.8205 40.2653 52.1744 43.5392 48.9169C47.1405 45.3338 48.7819 39.7945 48.4181 32.4531C48.3472 31.0278 48.2052 29.6759 48.0364 28.4635Z" fill="#265CDE"/>
<path d="M54.7364 32.0979C56.1429 32.0621 57.8592 31.9704 59.3474 31.753C60.9137 31.5242 62.2929 32.8108 62.1697 34.389C61.9344 37.4066 60.8144 42.1243 56.7434 47.1504C55.238 49.0088 52.232 47.8628 52.3414 45.4736C52.4997 42.0126 52.5872 37.8474 52.3254 34.7749C52.2046 33.356 53.3128 32.1342 54.7364 32.0979Z" fill="#FFDC64"/>
<path d="M27.3516 60.0272V59.5227C27.3516 58.0573 28.5667 56.8866 30.0313 56.9376C32.7303 57.0314 37.1091 56.8566 41.4741 55.2893C42.5612 54.899 43.4433 56.2162 42.6784 57.0819C40.2446 59.8364 35.9687 63.1399 29.7193 62.6059C28.3806 62.4915 27.3516 61.3708 27.3516 60.0272Z" fill="#FFDC64"/>
</g>
<defs>
<clipPath id="clip0_1271_6055">
<rect width="66" height="66" rx="33" fill="white"/>
</clipPath>
</defs>
</svg>
