<svg width="66" height="66" viewBox="0 0 66 66" fill="none" xmlns="http://www.w3.org/2000/svg">
<rect width="66" height="66" rx="33" fill="#FFE340"/>
<path d="M48.6807 25.5931V15.7356H36.6076V25.5931C31.4112 27.9453 27.7883 33.2408 27.7883 39.3968C27.7883 47.7382 34.4393 54.5 42.644 54.5C50.8486 54.5 57.5 47.7382 57.5 39.3968C57.5 33.2408 53.8767 27.9453 48.6807 25.5931Z" fill="#C9FFF7"/>
<path d="M54.4936 39.3972C54.4936 46.04 49.1783 51.4435 42.6436 51.4435C40.494 51.4435 38.4768 50.8589 36.7373 49.8369C33.1877 47.7545 30.7947 43.8546 30.7947 39.3972C30.7947 36.0647 32.1525 32.9463 34.4352 30.7118H50.8527C53.1358 32.9463 54.4936 36.0647 54.4936 39.3972Z" fill="#F7D360"/>
<path d="M39.3216 25.5934V22.8653C39.3216 21.3872 40.5 20.1892 41.9535 20.1892H48.6807V17.2638L46.2867 15.0488L44.032 14.4376L36.6079 17.2635L36.6076 25.5931C31.4112 27.9453 27.7883 33.2408 27.7883 39.3968C27.7883 47.7021 34.3821 54.4418 42.5393 54.4989C38.0719 54.394 34.4685 47.6728 34.4685 39.3972C34.4685 33.2404 36.4625 27.9457 39.3216 25.5934Z" fill="#72CEC0"/>
<path d="M36.7373 49.8369C33.1877 47.7545 30.7947 43.8546 30.7947 39.3972C30.7947 36.0647 32.1525 32.9463 34.4352 30.7118H35.9556C35.0184 33.1682 34.4685 36.1635 34.4685 39.3972C34.4685 43.4468 35.3313 47.124 36.7373 49.8369Z" fill="#E58E13"/>
<path d="M37.5481 47.9324L27.9005 30.9437V22.1538H18.7316V30.9437L9.08395 47.9324C7.42635 50.8513 9.49817 54.5 12.8138 54.5H33.8187C37.1339 54.5 39.2061 50.8513 37.5481 47.9324Z" fill="#E6E6E6"/>
<path d="M27.9005 22.1538L25.0933 20.5503L19.7134 20.6073L18.7316 22.1538V30.9437L9.08395 47.9324C7.42523 50.8513 9.4978 54.5 12.8126 54.5H18.547C17.0415 54.5 16.1006 50.8517 16.8531 47.9328L21.2345 30.9433V26.4307C21.2345 25.5034 21.974 24.752 22.8861 24.752H27.9005V22.1538Z" fill="#CCCCCC"/>
<path d="M31.2246 20.1672C31.2246 21.2645 30.3499 22.1538 29.2706 22.1538H17.3611C16.8221 22.1538 16.3331 21.9319 15.9794 21.5719C15.6258 21.2124 15.4071 20.7153 15.4071 20.1672C15.4071 19.0699 16.2819 18.1806 17.3611 18.1806H29.2706C29.8097 18.1806 30.2986 18.4025 30.6523 18.7621C31.0059 19.122 31.2246 19.6191 31.2246 20.1672Z" fill="#CCCCCC"/>
<path d="M31.2246 20.1672C31.2246 21.2645 30.3499 22.1538 29.2706 22.1538H22.1003C21.5601 22.1538 21.0723 21.9319 20.7182 21.5719C20.3646 21.2124 20.1463 20.7153 20.1463 20.1672C20.1463 19.0699 21.021 18.1806 22.1003 18.1806H29.2706C29.8097 18.1806 30.2986 18.4025 30.6523 18.7621C31.0059 19.122 31.2246 19.6191 31.2246 20.1672Z" fill="#E6E6E6"/>
<path d="M52.0464 15.2768C52.0464 16.3741 51.1716 17.2635 50.0924 17.2635H35.3604C34.8202 17.2635 34.332 17.0415 33.9783 16.682C33.6247 16.322 33.406 15.8249 33.406 15.2768C33.406 14.1796 34.2812 13.2902 35.3604 13.2902H50.0924C50.6314 13.2902 51.1204 13.5122 51.4741 13.8721C51.8281 14.2316 52.0464 14.7288 52.0464 15.2768Z" fill="#72CEC0"/>
<path d="M52.0464 15.2768C52.0464 16.3741 51.1716 17.2635 50.0924 17.2635H39.9269C39.3878 17.2635 38.8988 17.0415 38.5448 16.682C38.1912 16.322 37.9728 15.8249 37.9728 15.2768C37.9728 14.1796 38.8476 13.2902 39.9269 13.2902H50.0924C50.6314 13.2902 51.1204 13.5122 51.4741 13.8721C51.8281 14.2316 52.0464 14.7288 52.0464 15.2768Z" fill="#C9FFF7"/>
<path d="M34.9443 50.7825C34.8042 51.03 34.4714 51.4435 33.8191 51.4435H12.8138C12.1603 51.4435 11.8276 51.03 11.6874 50.7825C11.5472 50.5359 11.3606 50.0357 11.6874 49.461L18.7773 36.9765H27.8556L34.9443 49.461C35.2711 50.0357 35.0845 50.5359 34.9443 50.7825Z" fill="#FC5F61"/>
<path d="M16.8531 47.9328C16.5578 49.0791 16.5234 50.3371 16.6819 51.4435H12.8138C12.1603 51.4435 11.8276 51.03 11.6874 50.7825C11.5472 50.5359 11.3606 50.0357 11.6874 49.461L18.7773 36.9765H19.6782L16.8531 47.9328Z" fill="#E83842"/>
<path d="M24.9322 45.6869C24.2495 45.6869 23.9247 44.7949 24.4447 44.3423C24.9617 43.8923 25.7733 44.3514 25.6757 45.0355C25.623 45.4057 25.2993 45.6869 24.9322 45.6869Z" fill="#E83842"/>
<path d="M21.6173 14.3609C20.9612 14.3609 20.624 13.527 21.0861 13.0557C21.3358 12.8014 21.7407 12.7619 22.0342 12.9611C22.2914 13.1351 22.4196 13.4628 22.3489 13.7687C22.2704 14.1104 21.9631 14.3609 21.6173 14.3609Z" fill="#E83842"/>
<path d="M24.6084 11.4571C23.9284 11.4571 23.5961 10.5617 24.1202 10.1117C24.3695 9.89734 24.7333 9.86997 25.0103 10.0475C25.2765 10.2181 25.4122 10.5533 25.3404 10.8654C25.2619 11.2063 24.9546 11.4571 24.6084 11.4571Z" fill="#E83842"/>
<path d="M22.9792 7.02553C22.651 7.02553 22.3557 6.80129 22.2596 6.48317C22.1642 6.16582 22.2899 5.80969 22.5613 5.62574C23.119 5.24719 23.8738 5.78233 23.7075 6.44707C23.6233 6.78229 23.3202 7.02553 22.9792 7.02553Z" fill="#E83842"/>
<path d="M49.2434 35.4494C48.5753 35.4494 48.2422 34.5821 48.7349 34.1222C49.2071 33.6817 49.9952 34.0333 49.9952 34.6851C49.9952 35.1005 49.6527 35.4494 49.2434 35.4494Z" fill="white"/>
<path d="M49.7667 40.5454C49.1121 40.5454 48.769 39.7111 49.2355 39.2414C49.4688 39.0065 49.8314 38.9521 50.1211 39.1083C50.3989 39.2585 50.5552 39.5781 50.5103 39.8939C50.4572 40.2645 50.1335 40.5454 49.7667 40.5454Z" fill="white"/>
<path d="M39.9639 46.2985C39.6424 46.2985 39.3516 46.0837 39.2506 45.774C39.1437 45.4471 39.2734 45.0762 39.5587 44.8907C40.1247 44.5224 40.8679 45.0762 40.688 45.7371C40.5994 46.064 40.2981 46.2985 39.9639 46.2985Z" fill="white"/>
<path d="M36.5066 39.8799C35.8274 39.8799 35.4976 38.9894 36.0154 38.5382C36.264 38.3212 36.6281 38.2942 36.9059 38.4694C37.1694 38.6363 37.3063 38.9643 37.242 39.2733C37.1694 39.6222 36.858 39.8799 36.5066 39.8799Z" fill="white"/>
<path d="M45.6751 38.046C45.0033 38.046 44.6706 37.1738 45.1707 36.7166C45.4201 36.4885 45.7932 36.4566 46.0773 36.6371C46.3371 36.8028 46.4721 37.1259 46.4126 37.4318C46.3439 37.7845 46.0283 38.046 45.6751 38.046Z" fill="white"/>
<path d="M19.6722 47.2696C19.3705 47.2696 19.0935 47.0803 18.9776 46.7979C18.8505 46.487 18.9455 46.1134 19.2064 45.9055C19.7421 45.4794 20.5466 45.9705 20.4087 46.655C20.3377 47.0077 20.0274 47.2696 19.6722 47.2696Z" fill="#E83842"/>
<path d="M21.6263 42.3252C21.3119 42.3252 21.0248 42.1196 20.9186 41.8186C20.8057 41.4986 20.9212 41.1284 21.1964 40.9346C21.7313 40.5579 22.4816 41.0357 22.3661 41.692C22.3026 42.0531 21.9882 42.3252 21.6263 42.3252Z" fill="#E83842"/>
</svg>
