<svg width="66" height="66" viewBox="0 0 66 66" fill="none" xmlns="http://www.w3.org/2000/svg">
<rect width="66" height="66" rx="33" fill="#05E39C"/>
<path d="M33 8.57812C16.4314 8.57812 3 21.4324 3 37.2891C3 42.7011 4.56563 47.7628 7.28571 52.0836H7.40816V41.5339C7.40816 40.9523 7.90249 40.4793 8.5102 40.4793H31.0714C31.6856 40.4793 32.2522 40.774 32.5871 41.2675C32.6791 41.4027 32.8333 41.4836 33 41.4836C33.1667 41.4836 33.3209 41.4028 33.4129 41.2675C33.7478 40.774 34.3144 40.4793 34.9286 40.4793H57.4898C58.0975 40.4793 58.5918 40.9523 58.5918 41.5339V52.0836H58.7143C61.4344 47.7628 63 42.7011 63 37.2891C63 21.4324 49.5686 8.57812 33 8.57812Z" fill="#05E39C"/>
<path d="M27.0495 32.8359C27.0495 32.1252 26.4452 31.5469 25.7025 31.5469H18.1837V32.577C18.1837 34.5185 19.8283 36.0926 21.8571 36.0926H27.0495V32.8359Z" fill="#0ED290"/>
<path d="M52.1633 15.2013V28.1484C52.1633 30.0223 50.5702 31.5469 48.6122 31.5469H35.3513C34.9915 31.5469 34.6533 31.6811 34.3989 31.9245L30.0436 36.0926H53.0816C55.1105 36.0926 56.7551 34.5185 56.7551 32.577V19.7551C55.4034 18.0804 53.8624 16.553 52.1633 15.2013Z" fill="#0ED290"/>
<path d="M48.6122 6H17.3878C15.3589 6 13.7143 7.57395 13.7143 9.51562V28.1484C13.7143 30.0901 15.3589 31.6641 17.3878 31.6641H25.7025C26.3788 31.6641 26.927 32.1887 26.927 32.8359V36.9776C26.927 37.8128 27.9822 38.2311 28.5993 37.6405L34.4854 32.0073C34.715 31.7876 35.0265 31.6641 35.3513 31.6641H48.6122C50.6411 31.6641 52.2857 30.0901 52.2857 28.1484V9.51562C52.2857 7.57395 50.6411 6 48.6122 6Z" fill="#8379C1"/>
<path d="M57.4898 40.3621H34.9286C34.2505 40.3621 33.654 40.697 33.3102 41.2036C33.1629 41.4206 32.8371 41.4206 32.6898 41.2036C32.346 40.6971 31.7496 40.3621 31.0714 40.3621H8.5102C7.83392 40.3621 7.28571 40.8867 7.28571 41.5339V52.0836C8.05359 53.3036 8.91429 54.4637 9.85714 55.5566H9.97959V43.4344C9.97959 43.1759 10.1993 42.9656 10.4694 42.9656H55.5306C55.8007 42.9656 56.0204 43.1759 56.0204 43.4344V55.5565H56.1429C57.0857 54.4636 57.9464 53.3034 58.7143 52.0835V41.5338C58.7143 40.8867 58.1661 40.3621 57.4898 40.3621Z" fill="#FE5694"/>
<path d="M9.85714 43.4344C9.85714 43.1108 10.1313 42.8484 10.4694 42.8484H12.9184V41.5338C12.9184 40.8866 13.4666 40.3619 14.1429 40.3619H8.5102C7.83392 40.3619 7.28571 40.8866 7.28571 41.5338V52.0835C8.05371 53.3036 8.91404 54.4643 9.85714 55.5572V43.4344Z" fill="#FD3581"/>
<path d="M20.6327 28.1484V9.51562C20.6327 7.57406 22.2773 6 24.3061 6H17.3878C15.3589 6 13.7143 7.57395 13.7143 9.51562V28.1484C13.7143 30.0901 15.3589 31.6641 17.3878 31.6641H24.3061C22.2773 31.6641 20.6327 30.09 20.6327 28.1484Z" fill="#6E61B6"/>
<path d="M36.0241 13.1421C35.5168 13.1421 35.1058 13.5355 35.1058 14.021V20.7308L30.7702 13.58C30.5618 13.2363 30.1386 13.0686 29.7371 13.1723C29.3362 13.2756 29.0574 13.6236 29.0574 14.021V23.9968C29.0574 24.4823 29.4684 24.8757 29.9758 24.8757C30.4831 24.8757 30.8941 24.4823 30.8941 23.9968V17.2869L35.2303 24.4376C35.3893 24.6994 35.6848 24.8757 36.024 24.8757C36.5313 24.8757 36.9424 24.4823 36.9424 23.9968V14.021C36.9425 13.5356 36.5314 13.1421 36.0241 13.1421Z" fill="white"/>
<path d="M26.8033 19.8879C27.3107 19.8879 27.7217 19.4945 27.7217 19.009C27.7217 18.5235 27.3107 18.1301 26.8033 18.1301H21.6735V14.8999H26.8033C27.3107 14.8999 27.7217 14.5065 27.7217 14.021C27.7217 13.5355 27.3107 13.1421 26.8033 13.1421H20.7551C20.2478 13.1421 19.8367 13.5355 19.8367 14.021V23.9968C19.8367 24.4823 20.2478 24.8757 20.7551 24.8757H26.8033C27.3107 24.8757 27.7217 24.4823 27.7217 23.9968C27.7217 23.5113 27.3107 23.1179 26.8033 23.1179H21.6735V19.8879H26.8033Z" fill="white"/>
<path d="M43.2354 24.8757H41.2063C39.5918 24.8757 38.2784 23.6187 38.2784 22.0737V15.9442C38.2784 14.3991 39.5919 13.1421 41.2063 13.1421H45.2449C45.7522 13.1421 46.1633 13.5355 46.1633 14.021C46.1633 14.5065 45.7522 14.8999 45.2449 14.8999H41.2063C40.6046 14.8999 40.1151 15.3683 40.1151 15.9442V22.0737C40.1151 22.6495 40.6046 23.1179 41.2063 23.1179H43.2354C43.8371 23.1179 44.3265 22.6495 44.3265 22.0737V19.5041H42.6791C42.1718 19.5041 41.7607 19.1107 41.7607 18.6252C41.7607 18.1397 42.1718 17.7463 42.6791 17.7463H45.2449C45.7522 17.7463 46.1633 18.1397 46.1633 18.6252V22.0737C46.1633 23.6188 44.8498 24.8757 43.2354 24.8757Z" fill="white"/>
<path d="M55.5306 42.8484H10.4694C10.1313 42.8484 9.85714 43.1108 9.85714 43.4344V55.5593C15.3596 61.9359 23.6838 66 33 66C42.3162 66 50.6404 61.9359 56.1429 55.5594V43.4344C56.1429 43.1108 55.8687 42.8484 55.5306 42.8484Z" fill="#F2FBFF"/>
<path d="M9.85714 43.4344V55.5593C15.3596 61.9359 23.6838 66 33 66V42.8484H10.4694C10.1313 42.8484 9.85714 43.1108 9.85714 43.4344Z" fill="#C8EFFE"/>
<path d="M12.7959 43.4344C12.7959 43.1108 13.0701 42.8484 13.4082 42.8484H10.4694C10.1313 42.8484 9.85714 43.1108 9.85714 43.4344V55.5593C10.7625 56.6086 11.7458 57.5937 12.7959 58.51V43.4344Z" fill="#99E6FC"/>
<path d="M37.4694 47.9871H51.1837C51.691 47.9871 52.102 47.5937 52.102 47.1082C52.102 46.6227 51.691 46.2293 51.1837 46.2293H37.4694C36.9621 46.2293 36.551 46.6227 36.551 47.1082C36.551 47.5937 36.9621 47.9871 37.4694 47.9871Z" fill="#99E6FC"/>
<path d="M51.1837 50.0965H48.3061C47.7988 50.0965 47.3878 50.4899 47.3878 50.9754C47.3878 51.4609 47.7988 51.8543 48.3061 51.8543H51.1837C51.691 51.8543 52.102 51.4609 52.102 50.9754C52.102 50.4899 51.691 50.0965 51.1837 50.0965Z" fill="#99E6FC"/>
<path d="M37.4694 51.8543H45.3673C45.8747 51.8543 46.2857 51.4609 46.2857 50.9754C46.2857 50.4899 45.8747 50.0965 45.3673 50.0965H37.4694C36.9621 50.0965 36.551 50.4899 36.551 50.9754C36.551 51.4609 36.9621 51.8543 37.4694 51.8543Z" fill="#99E6FC"/>
<path d="M51.1837 53.9637H37.4694C36.9621 53.9637 36.551 54.3571 36.551 54.8426C36.551 55.3281 36.9621 55.7215 37.4694 55.7215H51.1837C51.691 55.7215 52.102 55.3281 52.102 54.8426C52.102 54.3571 51.691 53.9637 51.1837 53.9637Z" fill="#99E6FC"/>
<path d="M45.3061 57.8309H37.4694C36.9621 57.8309 36.551 58.2243 36.551 58.7098C36.551 59.1953 36.9621 59.5887 37.4694 59.5887H45.3061C45.8134 59.5887 46.2245 59.1953 46.2245 58.7098C46.2245 58.2243 45.8134 57.8309 45.3061 57.8309Z" fill="#99E6FC"/>
<path d="M14.8163 47.9871H16.9592C17.4665 47.9871 17.8776 47.5937 17.8776 47.1082C17.8776 46.6227 17.4665 46.2293 16.9592 46.2293H14.8163C14.309 46.2293 13.898 46.6227 13.898 47.1082C13.898 47.5937 14.309 47.9871 14.8163 47.9871Z" fill="#99E6FC"/>
<path d="M19.6531 47.9871H28.5306C29.0379 47.9871 29.449 47.5937 29.449 47.1082C29.449 46.6227 29.0379 46.2293 28.5306 46.2293H19.6531C19.1458 46.2293 18.7347 46.6227 18.7347 47.1082C18.7347 47.5937 19.1458 47.9871 19.6531 47.9871Z" fill="#99E6FC"/>
<path d="M28.5306 50.0965H14.8163C14.309 50.0965 13.898 50.4899 13.898 50.9754C13.898 51.4609 14.309 51.8543 14.8163 51.8543H28.5306C29.0379 51.8543 29.449 51.4609 29.449 50.9754C29.449 50.4899 29.0379 50.0965 28.5306 50.0965Z" fill="#99E6FC"/>
<path d="M28.5306 53.9637H14.8163C14.309 53.9637 13.898 54.3571 13.898 54.8426C13.898 55.3281 14.309 55.7215 14.8163 55.7215H28.5306C29.0379 55.7215 29.449 55.3281 29.449 54.8426C29.449 54.3571 29.0379 53.9637 28.5306 53.9637Z" fill="#99E6FC"/>
<path d="M28.5306 57.8309H20.6939C20.1866 57.8309 19.7755 58.2243 19.7755 58.7098C19.7755 59.1953 20.1866 59.5887 20.6939 59.5887H28.5306C29.0379 59.5887 29.449 59.1953 29.449 58.7098C29.449 58.2243 29.0379 57.8309 28.5306 57.8309Z" fill="#99E6FC"/>
</svg>
