<svg width="65" height="66" viewBox="0 0 65 66" fill="none" xmlns="http://www.w3.org/2000/svg">
<g clip-path="url(#clip0_1271_6105)">
<path d="M33.5 65.5C51.7254 65.5 66.5 50.7254 66.5 32.5C66.5 14.2746 51.7254 -0.5 33.5 -0.5C15.2746 -0.5 0.5 14.2746 0.5 32.5C0.5 50.7254 15.2746 65.5 33.5 65.5Z" fill="#A3D4FF"/>
<path d="M66.5001 32.7635L50.7506 17.014L43.1296 19.1574L37.6483 33.1717L17.6016 13.125L13.7344 51.8774L26.645 64.788C28.8568 65.2553 31.1503 65.5012 33.5011 65.5012C51.639 65.5012 66.3591 50.8681 66.5001 32.7635Z" fill="#65B1FC"/>
<path d="M59.708 30.5676H17.6016V13.125H13.7344V51.8773H17.6016V34.4347H19.1617L21.3267 34.5438L23.1716 34.4347H59.708V30.5676Z" fill="#555A66"/>
<path d="M59.7071 30.5674H56.2125L54.3981 30.5156L52.2041 30.5674H33.5156V34.4346H59.7071V30.5674Z" fill="#333940"/>
<path d="M53.0335 20.806C52.3579 19.2975 50.3021 14.707 46.2086 14.707C42.115 14.707 40.0592 19.2975 39.3836 20.806C37.9892 23.9196 36.8858 28.026 35.8187 31.9971C34.7908 35.8224 33.728 39.7779 32.4592 42.6111C31.6803 44.3503 30.4762 46.4236 29.1637 46.4236C27.8511 46.4236 26.6473 44.3504 25.8684 42.6112C24.8699 40.3815 23.9967 37.4418 23.17 34.4325H19.1602C20.109 37.9371 21.1136 41.4552 22.3391 44.1918C23.0147 45.7002 25.0705 50.2908 29.1638 50.2908C33.2573 50.2908 35.3131 45.7003 35.9887 44.1919C37.3831 41.0783 38.4866 36.9718 39.5536 33.0008C40.5815 29.1755 41.6444 25.22 42.9132 22.3868C43.692 20.6475 44.8962 18.5743 46.2087 18.5743C47.5212 18.5743 48.7253 20.6475 49.5042 22.3868C50.504 24.6193 51.3758 27.552 52.2035 30.5655H56.2119C55.262 27.0569 54.2604 23.5457 53.0335 20.806Z" fill="#FF6C52"/>
<path d="M53.0342 20.806C52.3586 19.2975 50.3028 14.707 46.2093 14.707C42.1157 14.707 40.0599 19.2975 39.3843 20.806C37.99 23.9196 36.8865 28.026 35.8194 31.9971C35.0897 34.7129 34.3419 37.4924 33.5156 39.8912V48.1957C34.8291 46.7788 35.6181 45.0205 35.9892 44.1918C37.3836 41.0782 38.487 36.9717 39.5541 33.0006C40.582 29.1753 41.6448 25.2199 42.9137 22.3866C43.6925 20.6474 44.8966 18.5742 46.2092 18.5742C47.5217 18.5742 48.7258 20.6474 49.5046 22.3866C50.5044 24.6191 51.3762 27.5519 52.2039 30.5653H56.2124C55.2628 27.0569 54.2612 23.5457 53.0342 20.806Z" fill="#FF432E"/>
</g>
<defs>
<clipPath id="clip0_1271_6105">
<rect width="66" height="66" fill="white" transform="translate(0.5 -0.5)"/>
</clipPath>
</defs>
</svg>
