<svg width="102" height="108" viewBox="0 0 102 108" fill="none" xmlns="http://www.w3.org/2000/svg">
<g opacity="0.3">
<path d="M78.8854 0H4.15237C1.85938 0 0.000539482 1.85871 0.000539482 4.15154V103.788C0.000539482 106.081 1.85938 107.94 4.15237 107.94H78.8854C81.1784 107.94 83.0372 106.081 83.0372 103.788V4.15154C83.0372 1.85871 81.1784 0 78.8854 0Z" fill="#F6F4E6"/>
<path d="M58.0575 84.2966L49.2 75.4397C49.0682 75.3079 48.9033 75.2141 48.7227 75.168C48.5421 75.1219 48.3524 75.1253 48.1736 75.1778C47.9947 75.2304 47.8334 75.3301 47.7064 75.4665C47.5794 75.6029 47.4915 75.771 47.4519 75.9532L45.4638 85.0972L43.5844 86.9765C43.2017 87.3671 42.9887 87.8929 42.9915 88.4397C42.9943 88.9864 43.2128 89.51 43.5995 89.8966C43.9861 90.2832 44.5097 90.5017 45.0565 90.5045C45.6033 90.5073 46.1291 90.2943 46.5198 89.9117L48.399 88.0326L57.544 86.0446C57.7261 86.005 57.8942 85.9171 58.0307 85.7901C58.1671 85.6631 58.2668 85.5017 58.3194 85.3229C58.3719 85.1441 58.3753 84.9544 58.3292 84.7738C58.2831 84.5932 58.1893 84.4284 58.0575 84.2966Z" fill="#D2D2D2"/>
<path d="M83.0372 42.6571V60.8823L57.9809 85.9576L47.539 75.5165L81.7294 41.3493L83.0372 42.6571Z" fill="#D2D2D2"/>
<path d="M6.22775 103.788V4.15154C6.22775 3.05048 6.66518 1.99452 7.4438 1.21596C8.22242 0.437393 9.27845 0 10.3796 0H4.15183C3.0507 0 1.99466 0.437393 1.21604 1.21596C0.437424 1.99452 0 3.05048 0 4.15154V103.788C0 104.89 0.437424 105.945 1.21604 106.724C1.99466 107.503 3.0507 107.94 4.15183 107.94H10.3796C9.27845 107.94 8.22242 107.503 7.4438 106.724C6.66518 105.945 6.22775 104.89 6.22775 103.788Z" fill="#FCFCFC"/>
<path d="M78.8849 0H72.6571C73.7582 0 74.8143 0.437393 75.5929 1.21596C76.3715 1.99452 76.8089 3.05048 76.8089 4.15154V103.788C76.8089 104.89 76.3715 105.945 75.5929 106.724C74.8143 107.503 73.7582 107.94 72.6571 107.94H78.8849C79.986 107.94 81.042 107.503 81.8206 106.724C82.5993 105.945 83.0367 104.89 83.0367 103.788V4.15154C83.0367 3.05048 82.5993 1.99452 81.8206 1.21596C81.042 0.437393 79.986 0 78.8849 0Z" fill="#D2D2D2"/>
<path d="M55.3848 84.2966L46.5273 75.4397C46.3955 75.3079 46.2306 75.2141 46.05 75.168C45.8694 75.1219 45.6798 75.1253 45.5009 75.1778C45.3221 75.2304 45.1607 75.3301 45.0337 75.4665C44.9067 75.6029 44.8188 75.771 44.7792 75.9532L42.7911 85.0972L40.9117 86.9765C40.5273 87.3668 40.3127 87.8931 40.3148 88.4409C40.3168 88.9887 40.5354 89.5134 40.9227 89.9007C41.3101 90.288 41.8349 90.5066 42.3827 90.5086C42.9305 90.5107 43.4569 90.2962 43.8472 89.9118L45.7264 88.0326L54.8714 86.0447C55.0536 86.0051 55.2217 85.9171 55.3581 85.7901C55.4945 85.6631 55.5942 85.5017 55.6468 85.3229C55.6993 85.1441 55.7027 84.9544 55.6566 84.7738C55.6105 84.5932 55.5166 84.4284 55.3848 84.2966Z" fill="#FD794B"/>
<path d="M55.3848 84.2966L54.3775 83.2893C54.3541 83.4972 54.2663 83.6925 54.1266 83.8481C53.9868 84.0037 53.8019 84.1118 53.5978 84.1573L45.0486 86.0157C44.6596 86.1003 44.3032 86.2949 44.0217 86.5763L42.5735 88.0244C42.2915 88.3354 41.9161 88.5464 41.5038 88.6256C41.0915 88.7049 40.6647 88.6481 40.2874 88.4639C40.2954 88.8727 40.4231 89.2703 40.6546 89.6073C40.8862 89.9444 41.2116 90.2061 41.5904 90.3602C41.9692 90.5143 42.3849 90.5539 42.786 90.4742C43.1871 90.3944 43.556 90.199 43.8472 89.9118L45.7264 88.0326L54.8714 86.0447C55.0536 86.0051 55.2217 85.9171 55.3581 85.7901C55.4945 85.6631 55.5942 85.5017 55.6468 85.3229C55.6993 85.1441 55.7027 84.9544 55.6566 84.7738C55.6105 84.5932 55.5166 84.4284 55.3848 84.2966Z" fill="#FD5D26"/>
<path d="M101.139 49.943L80.3379 70.7422C79.9488 71.1283 79.4228 71.3449 78.8745 71.3448C78.3263 71.3447 77.8004 71.1279 77.4114 70.7417C77.0223 70.3554 76.8018 69.8311 76.7978 69.2829C76.7939 68.7347 77.0068 68.2072 77.3901 67.8154L93.8314 51.3753L92.8557 50.3997L90.8836 48.4069C90.6911 48.2149 90.5384 47.9868 90.4342 47.7357C90.33 47.4846 90.2764 47.2154 90.2764 46.9435C90.2764 46.6716 90.33 46.4025 90.4342 46.1513C90.5384 45.9002 90.6911 45.6721 90.8836 45.4801C91.0731 45.2832 91.3004 45.1266 91.5519 45.0196C91.8033 44.9126 92.0738 44.8574 92.3471 44.8574C92.6204 44.8574 92.8909 44.9126 93.1424 45.0196C93.3938 45.1266 93.6211 45.2832 93.8106 45.4801L95.8035 47.4728L96.7792 48.4277L98.1908 47.0162C98.5803 46.6316 99.1059 46.4162 99.6532 46.4169C100.201 46.4177 100.726 46.6344 101.114 47.0201C101.502 47.4058 101.723 47.9292 101.728 48.4765C101.732 49.0238 101.521 49.5509 101.139 49.943Z" fill="#FEBDA6"/>
<path d="M95.8035 47.4728L92.8557 50.3997L90.8836 48.4069C90.6911 48.2149 90.5384 47.9868 90.4342 47.7357C90.33 47.4846 90.2764 47.2154 90.2764 46.9435C90.2764 46.6716 90.33 46.4025 90.4342 46.1513C90.5384 45.9002 90.6911 45.6721 90.8836 45.4801C91.0731 45.2832 91.3004 45.1266 91.5519 45.0196C91.8033 44.9126 92.0738 44.8574 92.3471 44.8574C92.6204 44.8574 92.8909 44.9126 93.1424 45.0196C93.3938 45.1266 93.6211 45.2832 93.8106 45.4801L95.8035 47.4728Z" fill="#FEA181"/>
<path d="M79.0526 41.3265L89.4819 51.755L55.3042 85.9303L44.8749 75.5018L79.0526 41.3265Z" fill="#FEBDA6"/>
<path d="M53.5115 84.1723L87.6892 49.9971L89.4666 51.7743L55.2888 85.9496L53.5115 84.1723Z" fill="#FEA181"/>
<path d="M99.0451 39.1504C99.0407 41.1105 98.26 42.9891 96.8738 44.3751L89.1197 52.1288L88.905 52.3673L78.4785 41.9178L86.4475 33.9495C87.4795 32.9209 88.7927 32.2206 90.2218 31.9367C91.6509 31.6528 93.1321 31.798 94.4788 32.354C95.8256 32.91 96.9778 33.852 97.7904 35.0614C98.6029 36.2707 99.0394 37.6934 99.0451 39.1504Z" fill="#FD794B"/>
<path d="M96.8739 33.9494C96.1 33.18 95.1637 32.5935 94.1338 32.2327C95.6259 33.7505 96.4548 35.7982 96.4386 37.9264C96.4224 40.0546 95.5624 42.0895 94.0474 43.5843L87.0787 50.537L88.905 52.3673L89.1197 52.1288L96.8738 44.3751C97.5618 43.6924 98.108 42.8805 98.4807 41.9858C98.8533 41.0911 99.0452 40.1315 99.0452 39.1623C99.0452 38.1931 98.8533 37.2336 98.4807 36.3389C98.108 35.4442 97.5619 34.6321 96.8739 33.9494Z" fill="#FD5D26"/>
<path d="M37.3665 49.8185H14.5314C13.9809 49.8185 13.4528 49.5998 13.0635 49.2105C12.6742 48.8212 12.4555 48.2932 12.4555 47.7427C12.4555 47.1922 12.6742 46.6642 13.0635 46.2749C13.4528 45.8856 13.9809 45.6669 14.5314 45.6669H37.3665C37.9171 45.6669 38.4451 45.8856 38.8344 46.2749C39.2237 46.6642 39.4424 47.1922 39.4424 47.7427C39.4424 48.2932 39.2237 48.8212 38.8344 49.2105C38.4451 49.5998 37.9171 49.8185 37.3665 49.8185Z" fill="#FEBDA6"/>
<path d="M14.5314 35.2881H68.5053C69.0558 35.2881 69.5839 35.5068 69.9732 35.8961C70.3625 36.2853 70.5812 36.8133 70.5812 37.3638C70.5812 37.9144 70.3625 38.4424 69.9732 38.8316C69.5839 39.2209 69.0558 39.4396 68.5053 39.4396H14.5314C13.9809 39.4396 13.4528 39.2209 13.0635 38.8316C12.6742 38.4424 12.4555 37.9144 12.4555 37.3638C12.4555 36.8133 12.6742 36.2853 13.0635 35.8961C13.4528 35.5068 13.9809 35.2881 14.5314 35.2881Z" fill="#FEBDA6"/>
<path d="M14.5314 24.9092H68.5053C69.0558 24.9092 69.5839 25.1279 69.9732 25.5172C70.3625 25.9065 70.5812 26.4345 70.5812 26.985C70.5812 27.5355 70.3625 28.0635 69.9732 28.4528C69.5839 28.8421 69.0558 29.0608 68.5053 29.0608H14.5314C13.9809 29.0608 13.4528 28.8421 13.0635 28.4528C12.6742 28.0635 12.4555 27.5355 12.4555 26.985C12.4555 26.4345 12.6742 25.9065 13.0635 25.5172C13.4528 25.1279 13.9809 24.9092 14.5314 24.9092Z" fill="#FEBDA6"/>
<path d="M14.5314 14.5304H68.5053C69.0558 14.5304 69.5839 14.7491 69.9732 15.1384C70.3625 15.5276 70.5812 16.0556 70.5812 16.6062C70.5812 17.1567 70.3625 17.6847 69.9732 18.0739C69.5839 18.4632 69.0558 18.6819 68.5053 18.6819H14.5314C13.9809 18.6819 13.4528 18.4632 13.0635 18.0739C12.6742 17.6847 12.4555 17.1567 12.4555 16.6062C12.4555 16.0556 12.6742 15.5276 13.0635 15.1384C13.4528 14.7491 13.9809 14.5304 14.5314 14.5304Z" fill="#FEBDA6"/>
</g>
</svg>
