<svg width="300" height="240" viewBox="0 0 300 240" fill="none" xmlns="http://www.w3.org/2000/svg">
<path d="M292.742 41.3438H60.2247C56.2152 41.3438 52.9648 44.3495 52.9648 48.0572V186.928C52.9648 190.636 56.2152 193.641 60.2247 193.641H292.742C296.751 193.641 300.001 190.636 300.001 186.928V48.0572C300.001 44.3495 296.751 41.3438 292.742 41.3438Z" fill="#F5F5F5"/>
<path d="M288.045 45.0625H64.2481C60.2386 45.0625 56.9883 48.0682 56.9883 51.776V182.789C56.9883 186.497 60.2386 189.502 64.2481 189.502H288.045C292.055 189.502 295.305 186.497 295.305 182.789V51.776C295.305 48.0682 292.055 45.0625 288.045 45.0625Z" fill="#E0E0E0"/>
<path d="M289.69 89.5234H60.5771V169.317H289.69V89.5234Z" fill="white"/>
<path d="M248.926 87.7031H16.4092C12.3997 87.7031 9.14941 90.7089 9.14941 94.4166V233.287C9.14941 236.995 12.3997 240.001 16.4092 240.001H248.926C252.936 240.001 256.186 236.995 256.186 233.287V94.4166C256.186 90.7089 252.936 87.7031 248.926 87.7031Z" fill="#F5F5F5"/>
<path d="M244.232 91.4258H20.4346C16.4251 91.4258 13.1748 94.4315 13.1748 98.1393V229.152C13.1748 232.86 16.4251 235.866 20.4346 235.866H244.232C248.241 235.866 251.492 232.86 251.492 229.152V98.1393C251.492 94.4315 248.241 91.4258 244.232 91.4258Z" fill="#E0E0E0"/>
<path d="M245.875 135.883H16.7617V215.676H245.875V135.883Z" fill="white"/>
<path d="M222.971 69.3133C222.971 69.3133 223.181 69.3677 223.574 69.4888C223.966 69.6099 224.549 69.7794 225.335 69.961C227.621 70.4843 229.989 70.6399 232.333 70.4211C234.021 70.2657 235.691 69.9679 237.321 69.5312C239.269 69.0348 241.161 68.3658 242.97 67.5335C247.373 65.4642 251.249 62.5525 254.341 58.9918C255.243 58.0128 255.928 56.8795 256.357 55.6562C256.803 54.3799 256.688 52.9924 256.037 51.794C255.652 51.2035 255.118 50.7085 254.481 50.352C253.843 49.9955 253.121 49.7881 252.377 49.7479C250.813 49.6184 249.24 49.8996 247.841 50.5591C247.1 50.8849 246.334 51.16 245.549 51.3824C244.727 51.6065 243.852 51.6065 243.029 51.3824C242.596 51.2816 242.197 51.0827 241.868 50.8037C241.539 50.5247 241.29 50.1743 241.144 49.7842C241.029 49.383 241.008 48.9638 241.082 48.5545C241.157 48.1452 241.325 47.7554 241.576 47.4112C242.056 46.7175 242.736 46.1618 243.54 45.807C244.337 45.4544 245.159 45.153 246.001 44.905C247.682 44.3536 249.313 43.6795 250.878 42.8891C252.486 42.0795 254.019 41.1481 255.461 40.1044C256.205 39.6013 256.878 39.0135 257.464 38.3549C258.066 37.7178 258.408 36.9064 258.433 36.0606C258.398 35.6443 258.248 35.2433 257.997 34.8965C257.746 34.5496 257.402 34.2687 256.999 34.081C256.157 33.6926 255.23 33.4856 254.289 33.4757C253.306 33.4639 252.326 33.3687 251.363 33.1912C250.852 33.0953 250.374 32.8882 249.967 32.5871C249.561 32.286 249.238 31.8995 249.026 31.4598C248.928 31.2232 248.891 30.9691 248.917 30.7171C248.943 30.4651 249.032 30.2221 249.176 30.0069C249.476 29.613 249.859 29.2793 250.302 29.0263C251.114 28.5056 251.91 27.9548 252.691 27.3736C254.256 26.2006 255.72 24.9174 257.071 23.5356C258.491 22.1861 259.675 20.64 260.58 18.953C261.001 18.1005 261.183 17.1637 261.11 16.2288C261.022 15.2925 260.59 14.4122 259.886 13.7347C259.176 13.0625 258.292 12.5697 257.318 12.3037C256.344 12.0377 255.312 12.0072 254.321 12.2153C252.35 12.669 250.581 13.6806 249.261 15.1089C246.544 17.9118 245.281 21.55 243.068 24.601C242.525 25.3699 241.907 26.0912 241.222 26.7561C240.888 27.1052 240.499 27.407 240.07 27.6521C239.844 27.7919 239.583 27.8745 239.312 27.8915C239.041 27.9085 238.769 27.8593 238.525 27.7489C238.3 27.6133 238.108 27.4355 237.961 27.227C237.814 27.0184 237.717 26.7838 237.674 26.5382C237.587 26.0868 237.567 25.6265 237.615 25.1701C237.665 24.7466 237.634 24.3184 237.524 23.9049C237.398 23.5046 237.158 23.1428 236.83 22.8576C236.496 22.5763 236.106 22.3588 235.681 22.2175C235.257 22.0762 234.806 22.0139 234.355 22.0343C233.453 22.1091 232.608 22.4732 231.966 23.0634C231.328 23.6471 230.839 24.3541 230.532 25.1338C230.22 25.9124 230.026 26.7273 229.956 27.5552C229.799 29.2079 229.871 30.8726 229.845 32.501C229.819 34.1295 229.845 35.7519 229.845 37.344C229.845 38.9361 229.989 40.5282 229.419 42.0476C229.287 42.4321 229.066 42.7851 228.771 43.0821C228.476 43.3791 228.114 43.6128 227.711 43.7669C226.899 44.0094 226.02 43.9794 225.23 43.6821C223.723 43.1382 222.385 42.2586 221.335 41.1214C220.828 40.5755 220.388 39.9785 220.026 39.3417C219.694 38.7176 219.325 38.1112 218.919 37.5256C218.538 36.9593 217.958 36.5317 217.276 36.3148C216.597 36.1487 215.877 36.2153 215.247 36.5025C214.623 36.7794 214.083 37.1955 213.676 37.7132C213.285 38.2272 213.022 38.8141 212.903 39.4325C212.734 40.655 212.655 41.8867 212.668 43.1191C212.615 44.3299 212.609 45.4922 212.628 46.6363C212.668 48.7823 212.876 50.9228 213.25 53.0411C213.561 54.8936 214.05 56.7168 214.71 58.4893C214.985 59.3126 215.365 60.0572 215.685 60.7897C216.006 61.5222 216.392 62.176 216.785 62.7814C217.941 64.6773 219.412 66.3933 221.145 67.8664C221.399 68.0958 221.667 68.3101 221.95 68.5081L222.552 68.9561L223.03 69.3254C223.03 69.3254 222.86 69.2164 222.533 68.9803L221.917 68.5445C221.631 68.3591 221.358 68.1569 221.099 67.9391C219.341 66.4769 217.847 64.7643 216.674 62.8661C216.275 62.2608 215.934 61.5767 215.548 60.8684C215.162 60.1601 214.834 59.3913 214.559 58.562C213.886 56.791 213.386 54.9676 213.067 53.1137C212.678 50.9865 212.459 48.8357 212.412 46.6787C212.412 45.5345 212.412 44.3601 212.412 43.1494C212.396 41.907 212.473 40.6651 212.641 39.4325C212.767 38.7809 213.041 38.1617 213.447 37.6164C213.879 37.0669 214.453 36.6258 215.116 36.333C215.8 36.0204 216.584 35.9473 217.322 36.1272C218.059 36.356 218.69 36.811 219.109 37.4166C219.519 38.0031 219.895 38.6093 220.235 39.2327C220.599 39.8539 221.038 40.4347 221.544 40.964C222.566 42.063 223.863 42.9149 225.322 43.446C226.053 43.716 226.862 43.7438 227.613 43.5247C227.976 43.3836 228.301 43.1707 228.566 42.9009C228.831 42.631 229.028 42.3109 229.145 41.9629C229.681 40.5342 229.505 38.9361 229.544 37.35C229.583 35.764 229.544 34.1476 229.544 32.5071C229.544 30.8666 229.491 29.22 229.649 27.531C229.721 26.6742 229.922 25.8307 230.244 25.0248C230.578 24.2029 231.105 23.4603 231.789 22.8515C232.494 22.2095 233.421 21.8173 234.408 21.7437C235.391 21.7093 236.35 22.0331 237.079 22.6457C237.457 22.9736 237.73 23.393 237.864 23.8564C237.983 24.3016 238.018 24.7623 237.969 25.2185C237.923 25.6485 237.941 26.0823 238.021 26.5079C238.057 26.7079 238.137 26.899 238.255 27.0696C238.373 27.2403 238.527 27.387 238.709 27.5007C238.904 27.5846 239.12 27.6197 239.335 27.6028C239.549 27.5858 239.756 27.5172 239.933 27.4039C240.334 27.1621 240.695 26.8686 241.006 26.5322C241.676 25.8794 242.281 25.1723 242.813 24.4194C244.993 21.3926 246.25 17.7604 249.026 14.8849C250.393 13.4089 252.223 12.3636 254.263 11.8944C255.312 11.6737 256.405 11.7064 257.437 11.9895C258.469 12.2726 259.405 12.7965 260.154 13.5108C260.908 14.2383 261.37 15.1825 261.463 16.1865C261.541 17.1729 261.35 18.1616 260.907 19.062C259.99 20.7847 258.784 22.3621 257.333 23.7354C255.967 25.1258 254.49 26.419 252.914 27.6036C252.135 28.209 251.323 28.7417 250.505 29.2684C250.101 29.5 249.75 29.8022 249.471 30.1583C249.349 30.337 249.274 30.54 249.254 30.7505C249.233 30.961 249.267 31.173 249.353 31.369C249.553 31.7585 249.851 32.0986 250.22 32.3616C250.59 32.6247 251.022 32.8031 251.48 32.8824C252.425 33.0551 253.385 33.1483 254.348 33.1609C255.341 33.1796 256.317 33.4073 257.202 33.8268C257.646 34.0477 258.029 34.3605 258.321 34.7409C258.606 35.1303 258.769 35.5849 258.793 36.0545C258.776 36.9719 258.407 37.8539 257.752 38.5426C257.155 39.2263 256.467 39.8367 255.703 40.3587C254.246 41.4067 252.701 42.344 251.081 43.1615C249.502 43.9585 247.855 44.6367 246.158 45.1895C245.328 45.432 244.516 45.7274 243.73 46.0733C242.965 46.4009 242.316 46.9213 241.857 47.5746C241.629 47.8857 241.474 48.2382 241.404 48.6088C241.334 48.9793 241.35 49.3593 241.451 49.7237C241.584 50.0715 241.807 50.3836 242.102 50.6319C242.397 50.8802 242.754 51.0569 243.14 51.1463C243.912 51.355 244.732 51.355 245.504 51.1463C246.275 50.9317 247.028 50.6625 247.756 50.3411C249.203 49.6705 250.824 49.3855 252.436 49.5178C253.225 49.5885 253.988 49.8134 254.675 50.1777C255.353 50.542 255.912 51.0691 256.292 51.7032C256.975 52.9577 257.095 54.4111 256.626 55.747C256.185 56.9977 255.482 58.1558 254.557 59.1552C251.434 62.7312 247.522 65.6495 243.082 67.7151C241.259 68.5451 239.354 69.21 237.393 69.7007C235.75 70.1334 234.067 70.4232 232.365 70.5664C230.009 70.7716 227.632 70.5954 225.341 70.0458C224.747 69.9084 224.161 69.7406 223.587 69.5433C223.168 69.392 222.971 69.3133 222.971 69.3133Z" fill="#263238"/>
<path d="M258.679 13.293C258.679 13.293 258.626 13.3535 258.508 13.4504C258.391 13.5472 258.201 13.6925 257.985 13.8741C257.52 14.2434 256.839 14.7882 255.982 15.5147C253.556 17.5606 251.299 19.7723 249.232 22.1313C247.923 23.6205 246.542 25.3034 245.108 27.1377C243.675 28.9719 242.162 30.9515 240.65 33.0823C239.052 35.2979 237.588 37.5937 236.264 39.9593C235.577 41.17 234.955 42.4776 234.333 43.7912C233.711 45.1049 233.076 46.4427 232.435 47.7927C229.994 52.8504 227.861 58.0303 226.045 63.3082C224.58 67.6268 223.559 72.0636 222.995 76.5596C222.624 79.594 222.538 82.6525 222.74 85.7006C222.818 86.7782 222.897 87.6136 222.975 88.1826C223.008 88.449 223.028 88.6669 223.047 88.8243C223.052 88.8989 223.052 88.9737 223.047 89.0483C223.02 88.9779 223.003 88.9047 222.995 88.8304C222.995 88.673 222.936 88.455 222.89 88.1887C222.792 87.6257 222.694 86.7903 222.589 85.7067C222.342 82.6535 222.395 79.5859 222.746 76.5415C223.281 72.0235 224.285 67.5636 225.744 63.2234C227.544 57.9284 229.673 52.7338 232.12 47.6656L234.019 43.6641C234.673 42.3565 235.269 41.055 235.983 39.82C237.318 37.4466 238.793 35.1427 240.401 32.9189C241.927 30.788 243.452 28.8206 244.892 26.9863C246.332 25.1521 247.727 23.4691 249.056 21.986C251.146 19.634 253.436 17.4396 255.903 15.4238C256.774 14.7095 257.468 14.1768 257.939 13.8196L258.489 13.4201L258.679 13.293Z" fill="#263238"/>
<path d="M236.071 39.8124C235.991 39.5861 235.936 39.3528 235.907 39.1162C235.822 38.6682 235.717 38.0205 235.599 37.2093C235.37 35.599 235.135 33.3592 234.879 30.8953C234.624 28.4315 234.362 26.1917 234.1 24.5874C233.976 23.7884 233.865 23.1346 233.786 22.6866C233.73 22.456 233.699 22.2207 233.694 21.9844C233.793 22.2044 233.866 22.4338 233.91 22.6684C234.028 23.1043 234.172 23.752 234.329 24.5572C234.644 26.1553 234.951 28.3891 235.2 30.8651C235.449 33.341 235.658 35.5022 235.855 37.1851C235.933 37.9478 236.005 38.5895 236.058 39.1041C236.088 39.3391 236.092 39.5765 236.071 39.8124Z" fill="#263238"/>
<path d="M258.608 36.1168C258.314 36.1771 258.013 36.2095 257.711 36.2136C257.129 36.256 256.297 36.3105 255.263 36.4134C253.201 36.6011 250.36 36.9522 247.25 37.4667C244.141 37.9813 241.359 38.5685 239.329 39.0467C238.321 39.2768 237.51 39.4826 236.947 39.6218C236.661 39.712 236.368 39.7769 236.069 39.8155C236.339 39.687 236.622 39.5836 236.914 39.5068C237.464 39.3373 238.269 39.0952 239.27 38.8409C241.234 38.3082 244.069 37.6907 247.191 37.1701C249.856 36.7206 252.543 36.3973 255.243 36.2015C256.278 36.1289 257.122 36.0986 257.705 36.0926C258.006 36.0786 258.308 36.0867 258.608 36.1168Z" fill="#263238"/>
<path d="M226.033 62.8481C225.973 62.7685 225.923 62.6833 225.882 62.5939C225.784 62.3881 225.659 62.1399 225.509 61.8372C225.182 61.1773 224.736 60.2148 224.2 59.0162C223.133 56.625 221.784 53.2773 220.344 49.5664C218.904 45.8556 217.581 42.4958 216.58 40.0864L215.375 37.2352C215.244 36.9264 215.14 36.6661 215.055 36.4542C215.007 36.367 214.976 36.2728 214.963 36.1758C215.024 36.2565 215.075 36.344 215.113 36.4361C215.218 36.6359 215.343 36.8841 215.493 37.1867C215.814 37.8466 216.259 38.8091 216.802 40.0077C217.863 42.4292 219.218 45.7466 220.658 49.4635C222.098 53.1805 223.414 56.5281 224.422 58.9375L225.62 61.8069L225.941 62.5878C225.987 62.6694 226.018 62.7574 226.033 62.8481Z" fill="#263238"/>
<path d="M256.024 54.1953L255.729 54.3043L254.852 54.5646L251.644 55.4969C248.934 56.2838 245.203 57.4098 241.078 58.6629C236.954 59.916 233.223 61.0117 230.48 61.7442C229.118 62.1135 228.012 62.4041 227.24 62.5857L226.356 62.7915C226.253 62.8261 226.145 62.8445 226.035 62.846C226.13 62.7972 226.231 62.7606 226.336 62.737L227.207 62.4707L230.415 61.5384C233.131 60.7514 236.863 59.6254 240.98 58.3784C245.098 57.1313 248.836 56.0296 251.579 55.291C252.94 54.9218 254.053 54.6372 254.852 54.4496L255.742 54.2437C255.833 54.2157 255.928 54.1994 256.024 54.1953Z" fill="#263238"/>
<path d="M207.121 32.3789C208.107 32.4532 209.067 32.7101 209.943 33.1345C210.819 33.5588 211.594 34.1418 212.221 34.8488C213.47 36.2713 214.348 37.9409 214.787 39.728C215.743 43.1483 215.101 47.168 214.015 50.552C210.034 49.202 207.612 45.2429 206.513 43.1665C204.784 39.8794 203.815 32.9722 207.121 32.3789Z" fill="#FF725E"/>
<path d="M219.724 54.7311C219.134 53.867 218.8 52.874 218.758 51.8524C218.715 50.8309 218.965 49.8171 219.482 48.9135C220.018 48.0199 220.741 47.2337 221.608 46.6008C222.476 45.9678 223.471 45.5008 224.536 45.2269C225.009 45.052 225.518 44.9749 226.027 45.0011C226.536 45.0272 227.032 45.1559 227.482 45.3782C227.861 45.6482 228.156 46.0074 228.334 46.4184C228.513 46.8294 228.569 47.2771 228.496 47.7149C228.34 48.5879 227.935 49.4068 227.324 50.088C225.361 52.5094 222.984 54.5071 219.724 54.7311Z" fill="#FF725E"/>
<path d="M220.057 66.1287C219.975 65.8981 219.916 65.661 219.88 65.4204C219.782 64.9119 219.651 64.2581 219.494 63.4712C218.988 61.329 218.86 59.1253 219.114 56.9453C219.405 54.7423 220.33 52.6517 221.792 50.8917C222.236 50.3678 222.749 49.8961 223.317 49.4872C223.47 49.3747 223.63 49.2696 223.795 49.1724C223.854 49.1376 223.918 49.1111 223.985 49.0938C223.241 49.6698 222.562 50.3126 221.956 51.0128C220.575 52.7654 219.697 54.8125 219.402 56.9635C219.154 59.1202 219.253 61.2991 219.697 63.4288C219.835 64.2521 219.939 64.924 220.005 65.3841C220.047 65.6303 220.065 65.8795 220.057 66.1287Z" fill="#263238"/>
<path d="M208.366 37.5938C208.428 37.6819 208.48 37.7751 208.523 37.8722C208.628 38.0841 208.759 38.3565 208.929 38.6955C209.27 39.4159 209.761 40.4632 210.35 41.7587C211.528 44.3496 213.099 47.9515 214.742 51.9651C216.385 55.9787 217.78 59.6472 218.749 62.3108C219.233 63.6426 219.619 64.7322 219.875 65.4768L220.156 66.3425C220.196 66.4425 220.224 66.5459 220.241 66.6512C220.188 66.5574 220.142 66.4603 220.104 66.3607C220.019 66.1367 219.907 65.8582 219.77 65.5071C219.475 64.7383 219.063 63.691 218.565 62.3713C217.544 59.7198 216.124 56.0695 214.48 52.0801C212.837 48.0908 211.299 44.4586 210.166 41.8495C209.61 40.5661 209.158 39.5188 208.824 38.7621L208.471 37.9146C208.42 37.8127 208.385 37.7047 208.366 37.5938Z" fill="#263238"/>
<path d="M215.389 58.5551C214.209 56.6933 212.566 55.1183 210.597 53.9603C208.627 52.8024 206.388 52.0948 204.064 51.8961C202.879 51.8053 201.446 51.9808 200.928 52.9555C200.411 53.9301 201.086 55.0985 201.878 55.9157C203.574 57.5832 205.766 58.749 208.177 59.2661C210.589 59.7832 213.112 59.6285 215.428 58.8215" fill="#FF725E"/>
<path d="M205.833 54.8569C206.079 54.8341 206.327 54.8341 206.573 54.8569C206.861 54.8757 207.147 54.91 207.43 54.9598C207.764 55.0204 208.15 55.0567 208.563 55.1657C209.016 55.2617 209.464 55.3789 209.905 55.5168C210.413 55.673 210.911 55.8549 211.397 56.0616C213.649 56.9944 215.618 58.4247 217.132 60.2265C217.46 60.6134 217.764 61.0177 218.042 61.4372C218.282 61.8036 218.5 62.1814 218.696 62.5693C218.867 62.8865 219.02 63.2119 219.155 63.5439C219.269 63.7897 219.366 64.0425 219.443 64.3006C219.529 64.5159 219.591 64.7391 219.626 64.9665C219.567 64.9665 219.292 64.0403 218.52 62.648C218.309 62.2718 218.078 61.906 217.826 61.5523C217.545 61.1333 217.239 60.7291 216.909 60.3415C216.152 59.4725 215.293 58.6828 214.35 57.9867C213.394 57.3063 212.362 56.7219 211.273 56.2432C210.796 56.0338 210.306 55.8499 209.807 55.6923C209.379 55.5419 208.941 55.4146 208.497 55.311C206.88 54.9719 205.826 54.9114 205.833 54.8569Z" fill="#263238"/>
<path d="M274.231 63.1328H41.7139C37.7044 63.1328 34.4541 66.1385 34.4541 69.8463V208.717C34.4541 212.425 37.7044 215.43 41.7139 215.43H274.231C278.24 215.43 281.491 212.425 281.491 208.717V69.8463C281.491 66.1385 278.24 63.1328 274.231 63.1328Z" fill="#F5F5F5"/>
<path d="M269.537 66.8555H45.7393C41.7298 66.8555 38.4795 69.8612 38.4795 73.569V204.582C38.4795 208.29 41.7298 211.295 45.7393 211.295H269.537C273.546 211.295 276.796 208.29 276.796 204.582V73.569C276.796 69.8612 273.546 66.8555 269.537 66.8555Z" fill="#FF725E"/>
<path d="M271.179 111.32H42.0664V191.113H271.179V111.32Z" fill="white"/>
<path d="M164.234 83.9531V98.8875H160.483V92.7672H153.158V98.8875H149.42V83.9531H153.158V89.8433H160.483V83.9531H164.234Z" fill="white"/>
<path d="M180.574 96.1149V98.8875H168.07V83.9531H180.273V86.7257H171.762V89.9704H179.258V92.6764H171.782V96.1331L180.574 96.1149Z" fill="white"/>
<path d="M183.552 83.9531H187.322V96.0604H195.42V98.8754H183.552V83.9531Z" fill="white"/>
<path d="M197.487 83.9531H201.225V96.0604H209.33V98.8754H197.487V83.9531Z" fill="white"/>
<path d="M210.137 91.4198C210.137 86.9764 213.875 83.6953 218.974 83.6953C224.074 83.6953 227.812 86.9582 227.812 91.4198C227.812 95.8813 224.054 99.1442 218.974 99.1442C213.894 99.1442 210.137 95.8571 210.137 91.4198ZM224.028 91.4198C224.006 90.5001 223.691 89.6069 223.123 88.852C222.554 88.0971 221.757 87.5141 220.832 87.1762C219.907 86.8382 218.895 86.7602 217.922 86.952C216.949 87.1437 216.059 87.5968 215.363 88.2543C214.667 88.9118 214.197 89.7445 214.011 90.6481C213.825 91.5518 213.931 92.4861 214.317 93.3341C214.702 94.182 215.35 94.9059 216.178 95.4151C217.007 95.9242 217.979 96.1959 218.974 96.1961C219.652 96.2126 220.327 96.0996 220.955 95.8641C221.584 95.6286 222.153 95.2756 222.628 94.8273C223.102 94.3789 223.471 93.8449 223.712 93.2586C223.953 92.6723 224.061 92.0463 224.028 91.4198Z" fill="white"/>
<path d="M32.8907 140.6L21.762 159.536L22.6785 113.558C22.8878 110.637 23.9538 107.825 25.7618 105.422C26.5285 104.344 27.4269 103.35 28.4392 102.462C29.7485 101.439 31.4963 100.143 32.6943 99.7074C34.1803 99.1626 34.2261 97.2557 32.8449 96.9227C31.4636 96.5898 27.3264 97.9942 23.7259 101.408C20.1255 104.823 20.9372 97.4433 21.186 94.7495C21.4347 92.0556 21.7686 83.7016 20.9307 82.9993C19.7065 81.9642 18.2467 82.9993 18.0699 85.7114C17.8932 88.4234 16.7607 96.4566 15.2092 96.3053C13.6578 96.1539 15.1568 82.4606 15.1568 82.4606C15.1568 82.4606 15.9817 79.5669 14.2207 79.3369C11.0392 78.9192 10.653 93.5569 10.653 94.9553C10.653 95.9239 8.98371 95.8149 9.04263 94.7737C9.10155 93.7325 10.8363 81.1288 7.60245 80.6808C5.12142 80.3357 7.16385 92.7215 5.23925 95.2095C3.31465 97.6976 4.72864 85.6448 2.33925 85.4026C1.45551 85.3118 0.774695 85.3603 1.03 92.3462C1.17402 96.1055 2.99388 101.723 2.66657 108.976L2.58801 110.852C0.709232 124.418 -7.75509 195.591 21.3823 193.66C21.3823 193.66 43.4891 190.821 55.7764 153.615L32.8907 140.6Z" fill="#FFBE9D"/>
<path d="M7.95703 105.858C7.95703 105.924 8.448 105.979 9.17464 106.33C10.1542 106.797 10.9188 107.575 11.3284 108.521L11.5575 109.06L11.8128 108.533C12.1798 107.782 12.6923 107.099 13.325 106.518C14.5438 105.371 16.1093 104.592 17.8157 104.284C19.125 104.036 19.976 104.175 19.9891 104.078C19.2732 103.834 18.4978 103.779 17.7502 103.921C15.9138 104.141 14.2115 104.928 12.9191 106.154C12.2465 106.784 11.709 107.525 11.3349 108.34H11.8193C11.5846 107.825 11.2423 107.359 10.812 106.967C10.3817 106.576 9.872 106.266 9.31211 106.057C8.89501 105.859 8.4202 105.789 7.95703 105.858Z" fill="#EB996E"/>
<path d="M165.792 149.445L178.171 171.008L189.476 191.119H163.913L148.071 160.929" fill="#FFBE9D"/>
<path d="M68.8352 191.118C71.2704 183.448 69.6731 182.238 67.0546 174.622L61.4248 158.277L49.1047 175.106L22.9131 155.638L31.6 137.519C47.8282 103.51 74.1507 105.925 74.1507 105.925L107.694 100.005C107.694 100.005 129.152 98.1887 143.044 109.848C147.574 113.65 168.149 147.901 168.149 147.901L142.867 164.282L136.668 154.506L134.952 167.794C133.604 175.058 133.689 184.302 136.668 191.118" fill="#455A64"/>
<path d="M65.9184 117.499C65.9184 117.583 60.3999 118.709 53.559 120.011C46.7182 121.312 41.1211 122.299 41.1211 122.214C41.1211 122.13 46.633 121.004 53.4804 119.702C60.3278 118.401 65.8987 117.402 65.9184 117.499Z" fill="#FAFAFA"/>
<path d="M139.674 107.701C139.674 107.792 134.26 108.791 127.537 109.935C120.814 111.079 115.355 111.945 115.335 111.854C115.315 111.763 120.755 110.77 127.478 109.626C134.201 108.482 139.661 107.616 139.674 107.701Z" fill="#FAFAFA"/>
<path d="M150.01 118.775C150.01 118.86 141.585 120.592 131.15 122.692C120.715 124.793 112.244 126.385 112.225 126.324C112.205 126.264 120.643 124.508 131.078 122.408C141.513 120.307 149.964 118.709 150.01 118.775Z" fill="#FAFAFA"/>
<path d="M160.345 135.84L159.992 135.906L158.958 136.076L154.958 136.681L140.248 138.909L91.6882 146.113C72.704 148.892 55.5331 151.367 43.0821 153.099C36.8632 153.971 31.8226 154.649 28.3334 155.096C26.5921 155.314 25.237 155.478 24.314 155.569C23.8541 155.661 23.3813 155.686 22.9131 155.641C23.3812 155.634 23.8477 155.59 24.3074 155.508L28.3138 154.975L43.0494 152.881L91.6358 145.798L140.189 138.685L154.919 136.554L158.925 135.991L159.972 135.852L160.345 135.84Z" fill="#FAFAFA"/>
<path d="M135.647 162.343C135.647 162.427 120.054 164.383 100.801 166.701C81.5485 169.02 65.9291 170.83 65.916 170.745C65.9029 170.66 81.5027 168.711 100.762 166.387C120.021 164.062 135.608 162.258 135.647 162.343Z" fill="#FAFAFA"/>
<path d="M132.67 185.01C132.67 185.101 118.713 185.089 101.51 185.01C84.306 184.931 70.3428 184.768 70.3428 184.677C70.3428 184.586 84.2929 184.598 101.51 184.677C118.726 184.756 132.67 184.925 132.67 185.01Z" fill="#FAFAFA"/>
<path d="M75.5071 131.505C75.3602 131.549 75.2089 131.58 75.0554 131.596L73.7461 131.795L68.9673 132.498C64.9283 133.103 59.3574 133.957 53.2563 135.016C47.1552 136.075 41.5908 137.135 37.5911 137.928L32.8319 138.866L31.5227 139.114C31.3731 139.152 31.2194 139.174 31.0645 139.181C31.2057 139.125 31.3526 139.082 31.5031 139.054L32.8319 138.745C33.9448 138.491 35.5552 138.14 37.5453 137.71C41.5319 136.856 47.057 135.767 53.1974 134.683C59.3378 133.599 64.9152 132.8 68.9608 132.262C70.9901 131.989 72.6267 131.783 73.7658 131.656L75.075 131.517C75.2182 131.5 75.363 131.496 75.5071 131.505Z" fill="#FAFAFA"/>
<path d="M104.304 33.8203C103.498 42.7918 116.499 49.1602 115.341 58.0954C115.02 60.5774 113.625 63.2773 115.046 65.4082C116.748 67.9689 120.892 67.4301 123.916 68.538C127.641 69.9 129.546 74.0468 128.983 77.7092C128.42 81.3717 125.854 84.5378 122.836 86.9774C118.072 90.8292 112.117 93.1951 105.816 93.7393C102.896 93.9814 99.8456 93.7877 97.2401 92.5286C94.6347 91.2694 92.5727 88.8419 92.5596 86.1299" fill="#263238"/>
<path d="M105.587 105.149C103.858 97.4909 102.189 89.4092 102.189 89.4092C102.189 89.4092 112.473 85.6802 111.733 72.3924C111.033 59.7161 102.359 31.833 102.359 31.833C85.699 29.0544 68.4103 36.4641 60.0703 49.994L75.2118 111.947C76.9662 119.139 85.0312 123.449 93.3646 121.675C101.763 119.823 107.23 112.443 105.587 105.149Z" fill="#FFBE9D"/>
<path d="M103.487 54.7214C103.588 55.1504 103.504 55.5989 103.253 55.9718C103.003 56.3447 102.605 56.6128 102.145 56.7192C101.922 56.7807 101.688 56.8003 101.456 56.7767C101.225 56.7532 101.001 56.6869 100.798 56.582C100.594 56.477 100.416 56.3354 100.273 56.1656C100.13 55.9957 100.025 55.8011 99.9648 55.5932C99.8608 55.1675 99.9391 54.721 100.183 54.3475C100.427 53.9739 100.818 53.7023 101.274 53.5894C101.5 53.5241 101.737 53.5018 101.972 53.5239C102.208 53.5459 102.435 53.6118 102.642 53.7176C102.849 53.8235 103.031 53.967 103.176 54.1395C103.321 54.3121 103.427 54.51 103.487 54.7214Z" fill="#263238"/>
<path d="M105.494 53.0572C105.324 53.3175 103.759 52.6576 101.841 53.0572C99.9232 53.4567 98.7187 54.6008 98.4634 54.4253C98.339 54.3466 98.4634 53.9168 98.9936 53.384C99.6941 52.6917 100.609 52.216 101.612 52.022C102.608 51.8228 103.647 51.9225 104.578 52.3065C105.272 52.591 105.56 52.9421 105.494 53.0572Z" fill="#263238"/>
<path d="M83.8913 58.8807C83.9953 59.3065 83.9171 59.7529 83.673 60.1264C83.429 60.5 83.038 60.7716 82.5821 60.8845C82.3586 60.9451 82.1242 60.9638 81.8928 60.9394C81.6614 60.9151 81.4375 60.8482 81.2345 60.7428C81.0314 60.6373 80.8531 60.4954 80.7102 60.3253C80.5673 60.1553 80.4625 59.9605 80.4022 59.7525C80.2983 59.3275 80.3768 58.8819 80.621 58.5093C80.8651 58.1368 81.256 57.8663 81.7114 57.7548C81.9345 57.6932 82.1686 57.6736 82.4 57.6972C82.6314 57.7207 82.8553 57.787 83.0586 57.8919C83.2618 57.9969 83.4402 58.1385 83.5832 58.3083C83.7263 58.4782 83.831 58.6728 83.8913 58.8807Z" fill="#263238"/>
<path d="M85.8574 57.1961C85.6872 57.4504 84.1226 56.7906 82.2045 57.1961C80.2865 57.6017 79.0885 58.7398 78.8267 58.5643C78.7023 58.4916 78.8267 58.0558 79.3569 57.523C80.0603 56.834 80.9735 56.359 81.9754 56.161C82.9738 55.9643 84.0138 56.0638 84.9474 56.4455C85.6675 56.73 85.9621 57.0751 85.8574 57.1961Z" fill="#263238"/>
<path d="M96.056 68.6709C96.0233 68.568 97.1754 68.1442 99.0542 67.5389C99.5321 67.3936 99.9772 67.218 99.9903 66.8911C99.9167 66.414 99.6885 65.9686 99.3357 65.6138L97.0969 62.4477C93.9547 57.9257 91.5718 54.1724 91.7748 54.0574C91.9777 53.9424 94.6748 57.514 97.8104 62.03L99.9969 65.2264C100.425 65.7159 100.657 66.3279 100.652 66.9577C100.617 67.1311 100.54 67.2948 100.427 67.4365C100.313 67.5781 100.166 67.6939 99.9969 67.775C99.742 67.8968 99.4714 67.9884 99.1917 68.0474C97.2933 68.5256 96.0887 68.7677 96.056 68.6709Z" fill="#263238"/>
<path d="M102.223 89.4075C95.7072 90.7735 88.9098 90.4445 82.584 88.457C82.584 88.457 89.1303 96.4055 102.766 92.4767L102.223 89.4075Z" fill="#EB996E"/>
<path d="M96.2243 73.1012C95.7616 72.7483 95.2091 72.5102 94.6193 72.4096C94.0294 72.309 93.4215 72.3491 92.853 72.5261C92.437 72.6424 92.0511 72.8361 91.719 73.0953C91.3869 73.3545 91.1156 73.6738 90.9218 74.0335C90.7314 74.3784 90.6607 74.7693 90.7192 75.1528C90.7778 75.5363 90.9629 75.8938 91.2492 76.1765C91.6269 76.429 92.0768 76.5729 92.5426 76.5901C93.0084 76.6073 93.4693 76.4971 93.8677 76.2733C94.7054 75.8043 95.435 75.1871 96.0148 74.4572C96.1946 74.2805 96.3387 74.0755 96.4403 73.8519C96.4895 73.7391 96.5008 73.6153 96.4728 73.4965C96.4447 73.3778 96.3787 73.2696 96.2832 73.186" fill="#FF725E"/>
<path d="M90.6879 70.9984C91.0021 70.9197 91.4473 72.8448 93.5421 73.8679C95.6369 74.8909 97.8037 74.2371 97.8823 74.4732C97.9412 74.5882 97.4764 74.9454 96.5403 75.1512C95.3237 75.4076 94.0482 75.2575 92.9398 74.7275C91.8764 74.2228 91.0683 73.3539 90.6879 72.306C90.4392 71.5372 90.5439 71.0166 90.6879 70.9984Z" fill="#263238"/>
<path d="M68.4304 63.1367C66.8715 63.1337 65.3422 63.5297 64.0117 64.2809C62.6877 65.0455 61.7459 66.2647 61.3932 67.6709C61.117 69.0994 61.44 70.5715 62.2966 71.7874C63.152 72.9915 64.2884 74.003 65.6221 74.7476C66.5364 75.3436 67.5911 75.7295 68.6988 75.8736C69.2533 75.9423 69.8175 75.8825 70.3408 75.6997C70.8641 75.5169 71.3301 75.2168 71.697 74.8263" fill="#FFBE9D"/>
<path d="M69.4913 71.6373C69.6746 71.6373 69.2164 72.6119 67.7827 72.5392C67.0068 72.4497 66.3007 72.0797 65.8189 71.5101C65.2495 70.8818 64.8201 70.1556 64.5554 69.3732C64.2502 68.5449 64.2758 67.643 64.6274 66.8307C64.7731 66.4845 65.003 66.1739 65.2993 65.923C65.5956 65.6721 65.9503 65.4876 66.336 65.3838C67.7304 65.0812 68.3654 65.8923 68.2148 65.9468C68.0642 66.0013 67.4751 65.7168 66.611 66.0982C65.7469 66.4795 65.1577 67.7084 65.6683 69.0584C66.1789 70.4084 67.043 71.6191 67.9333 71.7825C68.8236 71.946 69.3997 71.5404 69.4913 71.6373Z" fill="#EB996E"/>
<path d="M98.2946 28.9942C99.3057 30.8337 99.6455 32.9266 99.2631 34.9595C98.8808 36.9925 97.7969 38.8564 96.1736 40.2722C92.8481 43.0387 88.03 43.4322 83.7357 44.5884C79.4413 45.7447 74.8393 48.6686 75.0357 52.8032C75.1535 55.3094 77.0781 57.7188 76.3842 60.1402C75.579 62.9794 71.6578 64.1901 70.5515 66.9385C68.7774 71.3576 75.2713 75.3349 74.9833 80.0386C74.8131 82.8293 72.2601 85.1055 71.9786 87.9083C71.5727 91.8674 75.7754 96.0747 73.4384 99.4102C71.6447 101.977 67.4682 101.608 64.4045 100.494C61.3409 99.38 57.9892 97.7939 54.919 98.9078C53.0729 99.5737 51.7702 101.099 50.1271 102.128C48.6266 103.07 46.8578 103.579 45.0443 103.591C43.2309 103.603 41.4545 103.117 39.9399 102.194C38.4253 101.272 37.2407 99.9549 36.5359 98.4097C35.8311 96.8645 35.6379 95.1608 35.9806 93.514C36.4782 91.0925 38.0624 89.0161 39.3389 86.855C40.6154 84.6938 41.6301 82.1695 40.8642 79.8146C40.2684 77.9985 38.7366 76.6304 37.519 75.117C36.3014 73.6035 35.3522 71.6119 36.1378 69.8745C37.5125 66.8174 42.7822 67.0838 44.6937 64.287C47.3122 60.4429 41.2373 55.5516 42.7953 51.2414C44.5628 46.3621 53.924 47.2339 55.7045 42.3546C56.3592 40.5809 55.7045 38.6256 55.8813 36.7611C56.3461 32.5235 61.1838 29.7691 65.7465 29.0366C70.3093 28.3041 75.075 28.849 79.5526 27.7593C82.0009 27.1539 84.2921 26.0824 86.7011 25.3378C89.1101 24.5932 91.781 24.224 94.1639 25.0412C96.5467 25.8584 98.4517 28.1649 97.9738 30.4895" fill="#263238"/>
<path d="M96.2323 38.0865C97.5572 40.2067 99.3894 42.0182 101.588 43.3823C103.788 44.7465 106.295 45.6269 108.919 45.9563C108.834 42.7115 108.651 39.4426 107.701 36.3249C106.752 33.2073 104.972 30.1865 102.222 28.207C99.4727 26.2275 95.5843 25.4042 92.3242 26.5846" fill="#263238"/>
<path d="M113.087 100.313C114.272 100.458 120.897 136.393 95.4649 140.382C71.3943 144.166 63.9512 107.244 63.9512 107.244C63.9512 107.244 80.1663 96.2449 113.087 100.313Z" fill="#FFBE9D"/>
<path d="M98.5165 51.115C98.667 51.3753 99.9763 50.9879 101.606 50.8184C103.236 50.6489 104.598 50.7337 104.676 50.4491C104.755 50.1646 103.367 49.5835 101.475 49.7893C99.5835 49.9951 98.3659 50.9092 98.5165 51.115Z" fill="#263238"/>
<path d="M79.0803 53.8998C79.1392 53.8514 79.1326 53.7485 79.0803 53.585V53.8575C80.0203 53.4158 81.0135 53.0784 82.0392 52.8526C83.846 52.4893 85.3778 52.8889 85.5022 52.6165C85.5545 52.4893 85.2272 52.2048 84.5595 52.0111C83.6765 51.7331 82.7282 51.6828 81.8166 51.8658C81.2134 51.951 80.6352 52.149 80.1175 52.4477C79.5997 52.7464 79.1533 53.1396 78.8053 53.6032L78.6875 53.8211L78.7857 53.8696C78.9166 53.9362 79.0279 53.9362 79.0803 53.8998Z" fill="#263238"/>
<path d="M68.0972 52.853C66.6128 52.8698 65.1291 52.7828 63.6589 52.5927C62.1784 52.5088 60.7074 52.3165 59.2598 52.0176C60.7442 52.001 62.2279 52.088 63.6981 52.2779C65.1781 52.3667 66.6487 52.559 68.0972 52.853Z" fill="#FF725E"/>
<path d="M65.9353 55.144C64.8329 55.3661 63.6991 55.4234 62.5771 55.3135C61.451 55.3109 60.3326 55.1413 59.2646 54.811C59.2646 54.7263 60.7637 54.9079 62.5967 54.9987C64.4297 55.0895 65.9288 55.0471 65.9353 55.144Z" fill="#FF725E"/>
<path d="M98.5111 36.3242C98.4848 36.4539 98.4408 36.5801 98.3802 36.6995C98.2203 37.0495 97.9991 37.3726 97.7256 37.656C96.6327 38.6427 95.1916 39.2317 93.6669 39.3147C92.6324 39.4217 91.5874 39.4054 90.5574 39.2663C89.4511 39.1392 88.2793 38.9515 87.0486 38.8667C85.7702 38.7323 84.4755 38.8626 83.2583 39.2481C81.9914 39.7538 80.8964 40.5676 80.0899 41.603C79.1931 42.6321 78.4403 43.7339 77.5565 44.7085C77.1209 45.1901 76.6365 45.632 76.1098 46.0282C75.5922 46.398 75.0244 46.7033 74.4208 46.9363C73.3023 47.3209 72.1441 47.5988 70.9644 47.7656C69.9535 47.9087 68.9572 48.1294 67.9859 48.4255C66.5784 48.834 65.374 49.6923 64.5883 50.8469C64.3457 51.2932 64.1969 51.778 64.1497 52.2756C64.1311 52.145 64.1311 52.0127 64.1497 51.8821C64.1912 51.5036 64.3042 51.1348 64.4836 50.7924C65.2412 49.5623 66.4624 48.6334 67.9138 48.1833C68.8944 47.8697 69.9017 47.6328 70.9251 47.475C72.0817 47.3037 73.216 47.0217 74.3096 46.6336C75.4905 46.1593 76.5237 45.4183 77.3143 44.4785C78.1784 43.5281 78.9247 42.4202 79.8346 41.373C80.687 40.306 81.8331 39.4699 83.1536 38.9515C84.416 38.5565 85.7577 38.4262 87.0813 38.5701C89.5885 38.7759 91.7815 39.3268 93.6276 39.0907C95.1149 39.044 96.5364 38.5122 97.6404 37.5894C97.9999 37.2121 98.2937 36.7852 98.5111 36.3242Z" fill="#455A64"/>
<path d="M43.8818 102.678C44.0794 102.639 44.2741 102.589 44.4644 102.526C44.9919 102.303 45.4081 101.902 45.6297 101.406C45.9934 100.623 46.0121 99.7389 45.6821 98.9426C45.3678 97.9983 44.759 96.9934 44.2942 95.7947C43.0998 93.0012 42.7755 89.9541 43.3581 86.9988C43.7562 85.2597 44.5754 83.6267 45.7541 82.2225C46.3866 81.4856 47.1269 80.8336 47.9536 80.2853C48.8138 79.7428 49.7413 79.2977 50.7161 78.9595C51.6697 78.6449 52.556 78.1777 53.3346 77.5793C53.6801 77.2747 53.9493 76.9039 54.1235 76.493C54.2976 76.082 54.3725 75.6408 54.3428 75.2002C54.2315 73.4386 53.1906 71.8223 53.2234 70.0789C53.2415 69.2319 53.4794 68.4015 53.9173 67.6574C54.3237 66.9741 54.8255 66.3431 55.4098 65.7808C56.4648 64.7991 57.5889 63.883 58.7746 63.0385C60.8694 61.4403 62.1721 59.7029 62.5191 58.3348C62.6973 57.6259 62.6973 56.8886 62.5191 56.1797C62.5447 56.2231 62.5624 56.2702 62.5714 56.3189C62.5714 56.4097 62.6434 56.549 62.6827 56.7306C62.778 57.2738 62.758 57.8289 62.6238 58.3651C62.3997 59.2106 61.997 60.0067 61.4389 60.7078C60.7102 61.6335 59.8616 62.4732 58.9121 63.208C57.7463 64.0585 56.6399 64.9764 55.5997 65.9563C55.0375 66.5022 54.5535 67.1125 54.1595 67.7724C53.7503 68.4728 53.5259 69.2527 53.5048 70.0486C53.5383 70.8906 53.7082 71.7231 54.0089 72.5185C54.3382 73.3715 54.5579 74.2574 54.6635 75.1579C54.6981 75.6431 54.617 76.1293 54.4258 76.5823C54.2346 77.0353 53.9381 77.4439 53.5572 77.7791C52.7513 78.4047 51.8314 78.8925 50.8405 79.2199C49.8893 79.5704 48.9863 80.0235 48.15 80.5698C47.3482 81.1011 46.63 81.7327 46.0159 82.4465C44.8648 83.811 44.0615 85.3981 43.6658 87.0896C43.0846 89.9927 43.3791 92.9877 44.5168 95.7463C44.962 96.957 45.5577 97.9438 45.8654 98.9245C46.0144 99.3796 46.0851 99.8535 46.0748 100.329C46.0548 100.733 45.9456 101.128 45.7541 101.491C45.5059 102.003 45.0532 102.407 44.4906 102.617C44.2957 102.682 44.0871 102.702 43.8818 102.678Z" fill="#455A64"/>
</svg>
